<?xml version="1.0" encoding="UTF-8"?>
<svg id="Layer_1" data-name="Layer 1" xmlns="http://www.w3.org/2000/svg" viewBox="0 0 238.22 238.22">
  <defs>
    <style>
      .cls-1 {
        fill: #fff;
      }

      .cls-2 {
        fill: #06a9e7;
      }
    </style>
  </defs>
  <rect class="cls-2" x="0" y="0" width="238.22" height="238.22" rx="24.22" ry="24.22"/>
  <g>
    <path class="cls-1" d="M52.46,26.82c1.22-8.32,10.9-4.08,16.64-6,41.48.47,83.15.04,124.55.08,4.61,0,13.21-3.19,13.48,4.71.04,1.23-.7,2.43-.63,3.74,1.21,20.92.53,43.08.63,64.08.18,39.88.52,79.57-.1,119.35-.41,1.84-2.5,3.47-4.25,3.92-6.59,1.7-24.44.14-32.43.27-11.51.19-28.08,2.46-38.99-.58-6.42-1.79-14.19-5.26-20.57-7.72-26.04-10.03-51.85-20.78-77.85-30.94-7.35-6.05,6.81-12.17,7.45-15.21.45-2.16-4.95-3.56-6.21-6.77-3.1-7.86,2.06-12.97,4.01-19.35,1.46-4.8.66-9.5,3.89-13.72,3.87-5.07,9.69-5.3,4.36-12.5-3.45-4.66-6.08-5.12-7.65-11.85-2.25-9.66-2.95-22-3.3-31.91-.18-5.25.89-13.4,8.19-12,1.7.33,8.79,5.27,8.79,1.32,0-8.23-1.11-21.37,0-28.92ZM197.65,29.1l-135.79.19c-.64.45-.54,1.22-.62,1.9-.93,7.72,1.19,24.16-2.13,30.56-4.16,7.99-14.56.91-15.44,1.85-.23,3.66.97,7.43,1.25,11.01.5,6.41.21,15.72,2.07,21.82s14.03,16.15,9.26,23.44c-1.84,2.82-7.64,6.39-8.95,9.28-1.28,2.82-1.12,7.58-2.19,11.01-.83,2.66-3.38,5.97-3.82,8.15-1.43,7.13,11.24,8.28,5.03,18.84-.78,1.32-5.16,4.98-4.53,5.83,4.5,1.33,8.99,2.86,13.36,4.57,23.42,9.15,48.44,20.72,72.01,28.6,12.15,4.07,22.72,2.63,35.03,2.65,4.62,0,34.74.79,36.23-.25.6-.42.61-1.24.62-1.9-.18-37.48.14-75.28-.06-112.54-.11-19.91.86-41.98-.57-61.66-.08-1.16-.2-2.3-.75-3.34Z"/>
    <path class="cls-1" d="M97.74,112.64c-4.47-2.64-10.33-9.74-11.98-14.75-10.12-30.69,52.97-35.69,43.76-.95-1.49,5.62-8.47,10.66-11.63,15.31,6.09,5.45,13.99,11.55,15,20.25,2.59,22.26-22.53,32.77-39.99,22.37-10.93-6.51-12.8-20.86-5.5-30.88,2.24-3.07,8.58-7.45,10.04-10.09.25-.45.43-.66.29-1.26ZM104.51,81.99c-13.54,1.86-13.06,13.93-3.63,21.53,5.5,4.43,7.19,5.32,12.59.63,12.82-11.13,8.43-24.56-8.96-22.16ZM108.27,117.75c-4.44.62-12.8,8.41-14.48,12.62-5.44,13.59,4.7,20.45,17.46,19.34,10.54-.91,15.23-10.5,11.13-19.91-1.29-2.95-11.37-12.44-14.11-12.06Z"/>
    <path class="cls-1" d="M143.8,155.87c-1.31-1.27-.92-4.58.5-5.81,3.01-2.59,9.05,1.4,9.76-3.45.09-18.28-.95-36.75-.39-55.08.03-1.05.77-2.69.67-2.78-1.01-.97-1.2.55-1.44.8-2.79,2.84-9.08,12.3-12.68,6.71-2.61-4.04.52-6.39,3.11-9.41s8.23-9.76,11.08-12.19c3.3-2.81,8.18-2.46,8.75,2.44,1.64,14.01-.43,33.33-.51,47.79-.03,5.41.61,10.85.53,16.37-.03,2.22-2.21,7.24.92,7.84s11.08-2.92,10.86,3.28c-.11,2.93-1.24,3.84-4.01,4.2-5.18.68-17.03.69-22.48.46-.93-.04-4.13-.64-4.67-1.17Z"/>
  </g>
</svg>