<?xml version="1.0" encoding="UTF-8"?>
<svg id="Layer_1" data-name="Layer 1" xmlns="http://www.w3.org/2000/svg" viewBox="0 0 600 600">
  <defs>
    <style>
      .cls-1 {
        fill: #f3fbe7;
      }
    </style>
  </defs>
  <path class="cls-1" d="M328.01,24.27c17.42,4.48,34.65,24.26,40.74,40.7,1.2,3.23,6.17,26.23,7.71,26.23l17.27-18.93c5.93-3.31,10.06,3.04,6.21,8.46-3.38,4.75-20.94,20.17-21.82,24.18-.13,8.31,2.41,16.62,2.88,24.82.85,14.79-.95,33.7-1.08,48.87-.09,9.9,1.31,19.79-.96,29.5,1.76,1.11,24.61-18.77,22.99-4.52-.61,5.38-18.68,12.45-22.86,16.15l-.14,16.84c-3.61,21.21-2.15,43.07-3.54,64.5,3.47,4.66,33.05-6.71,37.01-11.1.88-.97,1.08-1.76,1.02-3.05-.32-6-11.44-31.38,1.97-28.9,4.93.91,5.24,12.94,6.53,17.01,1.52-.77,2.87-4.41,3.46-6.01,10.05-26.89,4.73-58.75,15.34-85.59-1.56-6.92-17.18-12.45-11.9-19.86,4.58-6.42,13.04,5.62,16.56,8.55,14.46-24.3,41.87-30.77,66.42-16.97,3.29-4.8,4.02-17.3,11.3-16.78,10.95.77-3.49,21.47-3.2,23.16.2,1.18,4.35,3.36,5.76,5.26,1.6,2.14,5.7,9.53,6.87,12.12,7.32,16.22,8.09,34.66,7.27,52.17,1.25,1.42,20.93-14.28,20.9-2.49-.03,7.89-17.85,9.37-21.71,15.17.26,5.78-1.46,11.23-2.2,16.84-1.32,10.03-2.16,20.27-4.44,30.46-2.19,9.79-6.06,19-9.55,28.42,4.19,2.66,17.23,1.61,16.54,8.62-.89,9.08-14.69,5.14-20.58,4.32-8.58,15.58-19.37,28.6-33.45,39.49-31.89,24.67-65.34,27.06-102.69,36.07-2.63.63-10.7,2.1-11.5,4.58l-4.15,39.29c2.51,1.81,16.38-14.14,23.04-9.54,8.03,5.56-19.61,20.48-23.12,23.21l-2.89,23.81.41,8.55c.94,1.31,26.54,4.11,30.77,5.2,21.06,5.45,55.23,27.6,57.61,51.28,1.48,14.81-12.94,21.94-24.97,26.76-28.79,11.54-68.55,13.53-99.3,14.58-45.38,1.55-98.8-1.3-143.41-10.42-3.98-.81-23.07-5.94-25.46-7.51-4.44-2.93-2.74-8.73,2.09-10.05,10.24,1.42,20.85,4.45,31.02,5.92,64.91,9.39,165.8,15.22,228.65-4.84,8.24-2.63,19.18-7.54,15.56-17.6-9.26-25.69-49.72-34.86-73.47-37.92-.86.19-2.32.09-2.55,1.16-1.28,5.98.62,18.1-2.9,22.88-1.56,2.13-13,7.7-16.05,8.93-20.55,8.32-55.38,10.77-77.16,7.26-6.98-1.12-36.38-9.87-39.78-15.17-1.97-3.06-1.58-24.35-3.48-24.58-14.23,1.19-28.44,2.64-42.19,6.74s-23.73,8.94-33.69,20.25c-3.05,3.47-9.66,15.03-11.55,16.42-4.39,3.22-12.35.24-11.51-5.44.9-6.09,11.45-19.95,15.93-24.59,14.75-15.27,39.24-24.53,60.17-27.24,4.28-.55,18.49.93,20.93-3.06,1.37-2.25-2.81-34.82-3.04-40.98-2.11-4.29-30.12-12.65-20.99-21,4.72-4.32,14.47,4.34,18.85,6.19,4.43,1.86.94-2.81.74-4.75-.43-4.1.23-9.56-.09-13.9-.59-7.9-2.06-15.83-2.19-23.79l-3.33-2.67c-18.99-1.23-38.01-1.79-56.77-5.1-2.05.46-4.35,18.46-9.15,19.09-11.32,1.49.69-18.19-1.94-22.06-.62-.92-13.68-4.95-16.47-6.51-8.89-4.98-19.24-13.32-26.06-20.89-10.19-11.33-17.18-24.97-22.93-39.01-4.44-1.07-24.61-1.56-26.76-3.71-2-2.01-1.9-7.56,1.46-8.55,5.83-1.72,14.32,1.65,20.8.8,3.06-.41-.05-3.7-.67-6.34-4.58-19.25-7.45-42.44-8.83-62.1-.29-4.17.83-11.36-.2-14.78-1.23-4.08-24.85-9.12-22.65-16.96,2.29-8.15,17.66,5.75,22.79,4.24,1.06-12.37,1.64-21.07,7.26-32.22.71-1.41.41-3.43,1.05-4.43,2.52-3.95,13.4-14.04,17.82-16.64,1.72-1.01,7.51-2.19,8.46-3.58,1.79-2.6-3.94-15.67-3.57-19.49.3-3.1,4.36-5.35,7.32-4.37s5.31,20.09,7.8,21.71c.88.57,7.67-.01,10.11.37,9.16,1.45,21.98,9.13,27.69,16.26,9.37,11.71,11.1,22.09,14.02,36.44,1.27,1,4.42-9.96,11.42-9.01,12.36,1.68-8.71,20.63-8.97,23.45-.55,5.9,2.81,13.43,3.43,19.14.5,4.56-.3,9.22.21,13.78,2.91,26.1,19.75,47.32,47.85,43.56l-2.01-27.55c-.97-41.75-4.35-83.65-3.03-125.84.11-3.57,1.79-7.12,1.04-10.95-.78-4-7.38-4-10.37-5.61-3.59-1.94-16.68-13.01-7.91-15.67,7.16-2.17,13.32,8.75,20.27,8.8,2.07-12.5,3.47-24.93,7.48-36.98,4.15-12.49,11.39-23.19,17.81-34.64l14.2-13.18c-.26-7.15-16.74-25.71-7.82-31.12,8.08-4.91,9.14,8.13,11.11,12.71.76,1.77,5.89,12.27,6.67,12.29,16.04-11.9,37.37-14.77,56.8-11.04,3.36-1.1,4.87-21.7,13.23-15.01,4.73,3.78-4.1,13.89-3.6,19.06ZM315.03,39.28c-11.72-2.6-21.77-2.61-33.2,1.26-3.19,1.08-13.49,6.06-13.79,9.21-.38,4.08,7.42,15.18,1.39,16.34-3.93.76-7.43-8.7-8.37-11.84-.3-.23-5.91,3.34-6.5,3.97-2.44,2.6-9.97,13.56-11.98,16.99-10.2,17.42-11.62,38.76-14.23,58.34,9.75,7.25,18.31,19.41-1.23,9.61.97,6.47-.94,13.42-1.08,19.47-1.04,43.89,4.2,87.63,5.09,131.82.23,11.31,3.6,18.67-8.82,21.24-31.95,6.6-64.54-13.67-69.9-46.39l-3.24-33.24c-.4-.57-9.99,9.84-11.83,4.34-1.55-4.65,6.98-10.54,8.94-14.77,1.81-3.9-1.01-5.9-1.65-9.49-1.25-6.98-1.49-12.1-3.97-19.01-4.55-12.69-13.42-22.78-27.45-24-1.48,4.02,4.32,14.47-2.34,13.73-6.66-.74-2.61-13.64-10.67-11.25-6.77,2-15.88,13.28-18.17,19.8-3.16,8.97-2.35,19.21-2.63,28.53,13.25,3.73,18.51,15.33-.16,9.15.31,4.39-.43,9.21-.05,13.54,1.51,16.9,5.1,44.08,9.5,60.43,2.15,7.98,4.49,4.06,9.83,7.15s.92,8.33-4.29,6.81c-.67.55,2.46,7.03,3.19,8.29,8.55,14.83,26.97,33.64,43.19,39.73,1.67.63,7.48,1.67,8.47.82,1.33-1.15,6-24.18,8.31-28.15,1.65-2.84,6.67-4.99,8.11-1.49,2.98,7.24-5.74,25.77-7.33,33.73,8.79.63,17.72,2.36,26.48,3,5.13.37,11.05-.8,15.63-.44,5.48.43,20.36,2.15,25.05,3.71,4.31,1.44,5.24,3.69,6.14,7.93,2.57,12.17,1.11,25.03,1.55,37.26.72,20.31,2.35,40.86,3.91,61.08,1.06,13.81.79,27.8,3.16,41.56,1.3,2.39,16.48,6.6,19.92,7.3,20.45,4.16,47.13,3.77,67.26-.79,2.74-.62,15.02-5.12,16.18-6.8l6.53-52.9c-3.04,2.31-11.68,4-11.04-1.49.41-3.57,10.7-6.34,13.02-9.27,2.02-16.75.39-33.78,2.16-50.62.63-5.97.84-12.86,5.79-17.11,16.81-5.82,34.6-7.95,51.86-12.08,18.98-4.54,38-9.54,54.98-19.95,15.52-9.52,24.81-20.87,36.08-34.83-2.34-3-17.16-3.42-16.85-7.81.5-7.05,18.04-1.82,22.98-4.26l8.67-30.19c-1-11.51,4.24-24.24,4.22-35.64,0-3.18-3.99,1.19-7.07-.97-2.22-1.56-.58-6.33,1.03-8.08,2.52-2.73,7.13-1.79,7.83-6.18-.59-8.96.86-17.3-.43-26.39-1.44-10.15-5.53-19.92-10.39-28.84-1.96-1.66-3.3,5.23-5.99,6.46-10.68,4.88-2.02-11.18-3.44-14.42-3.11-7.1-21.81-6.62-28.19-4.22-4.93,1.85-16.24,12.67-15.95,17.66.24,4.07,14.08,10.07,7.64,14.05-5.07,3.13-9.31-8.53-12.08-2.15-.91,2.1-2.38,12.13-2.8,15.19-3,21.42-4.23,54.69-15.67,73.24-1.63,2.64-8.9,10.7-9.23,11.79-1.19,3.99,4.21,13.45-2.59,13.25-5.01-.15-3.37-4.21-6.08-6.95-11.93,10.26-28.29,12.59-43.5,13.43-1.72,1.28.1,3.09-.05,4.92-.76,9.4-1.47,32.25-4.38,39.59-2.77,6.98-10.74,6.56-13.05-.96-2.6-8.44.31-25.06.55-34.59,1.52-60.21,4.71-118.99,5.03-178.79l-2.05-26.43c-4.25,2.46-8.54,11.43-13.98,6.47-.65-3.24,12.49-14.33,12.68-18.74.29-6.67-5.5-29.94-8.29-36.58-4.14-9.84-15.76-25.96-25.64-30.32-8.1-3.57-4.34,15.58-11.26,16.26-7.91.78.55-15.9.54-20.01Z"/>
  <path class="cls-1" d="M284.77,106.35c5.88-1.65,7.84,11.94,9.01,16.61,1.24,4.98,5.51,23.64,3.77,27.2-1.58,3.24-5.7,2.31-7.52-.47-1.28-1.94-1.9-6.03-2.5-8.49-1.17-4.8-6.27-30.4-4.98-33,.39-.78,1.39-1.63,2.23-1.86Z"/>
  <path class="cls-1" d="M298.8,345.76c-1.17,1.26-4.5.74-5.72-.3-3.23-2.77-3.21-30.15-4.99-35.9,6.18-13.33,9.51.95,10.68,8.22.8,4.98,2.8,25.01.03,27.98Z"/>
  <path class="cls-1" d="M489.64,245.28c.69.48,1.24,3.31,1.26,4.31.05,3.09-6.39,18.04-8.18,21.81-1.56,3.3-5.43,12.14-10.23,10.56-2.37-1.28-1.87-4.91-1.38-7.2.84-3.93,6.9-18.98,8.91-23.06,1.79-3.63,4.6-9.93,9.63-6.43Z"/>
  <path class="cls-1" d="M116.97,272.31c1.02,1,3.54,6.14,5.27,8.2,2.77,3.31,17.63,16.69,11.81,20.36-5.14,3.24-14.21-7.12-17.34-10.83-1-1.19-6.67-8.37-6.96-9.02-.67-1.47-1-7.82-.37-8.82.88-1.39,6.11-1.36,7.6.11Z"/>
  <path class="cls-1" d="M434.7,338.19c4.34,2.52.95,7.78-1.77,10.3-3.92,3.61-16.78,13.36-21.32,15.63-8.39,4.2-10.06-1.51-3.68-7.67,3.34-3.22,17.39-15.65,20.61-17.35,1.63-.86,4.54-1.86,6.17-.91Z"/>
  <path class="cls-1" d="M262.79,204.25c2.84-.8,4.8,1.3,6.13,3.51s4.68,12.56,5.47,15.51c.89,3.33,5.89,22.82-2.87,16.87-3.76-2.55-11.61-26.94-11.48-31.59.05-1.86.83-3.77,2.76-4.31Z"/>
  <path class="cls-1" d="M332.71,197.29c3.07-.93,5.7.4,6.13,3.56.51,3.71-4.93,9.6-6.65,12.93-2.21,4.29-7.96,20.39-14.55,18.23-2.28-.75-1.88-5.22-1.37-7.18.77-2.92,11.62-21.93,13.89-25.06.74-1.01,1.2-2.07,2.54-2.48Z"/>
  <path class="cls-1" d="M265.71,436.99c7.55-2.53,8.8,8.79,10.85,12.88,1.79,3.56,12.5,18.01,4.8,19.88-6.24,1.52-17.64-22.87-17.37-28.38.08-1.63-.22-3.73,1.72-4.38Z"/>
  <path class="cls-1" d="M223.61,345.32c1.52,0,2.97,1.66,3.94,2.72,1.92,2.11,13.95,19.15,14.78,21.23,2.14,5.35-2.13,8.68-7.29,5.24-2.22-1.48-15.37-20.89-15.76-23.28-.46-2.76,1.53-5.9,4.33-5.9Z"/>
  <path class="cls-1" d="M327.64,423.54c-.35.78-3.24,4.03-3.99,5.48-1.49,2.87-6.64,18.17-11.38,12.59-2.81-3.3,7.11-26.75,10.21-29.75,3.92-3.79,7.97-1.74,7.53,3.42-.11,1.25-1.79,7-2.36,8.26Z"/>
</svg>