<?xml version="1.0" encoding="UTF-8"?>
<svg id="Layer_1" data-name="Layer 1" xmlns="http://www.w3.org/2000/svg" viewBox="0 0 238.22 238.22">
  <defs>
    <style>
      .cls-1 {
        fill: #06a9e7;
      }

      .cls-2 {
        fill: #fff;
      }
    </style>
  </defs>
  <rect class="cls-1" x="0" width="238.22" height="238.22" rx="24.22" ry="24.22"/>
  <g>
    <path class="cls-2" d="M192.58,81.14c.05.33.81.91.64,1.57,2.36-1.73,6.92-2.24,6.95,1.56.03,4.37-6.4,5.99-6.94,8.82-.65,9.43-.29,20.01-2.2,29.2-.27,1.28-2.15,5.65-2.13,5.96.08.89,5.19,1.97,3.36,5.94-1.85,4.01-7.39,1.7-8.51,2.22-.44.2-4.57,6.08-6.23,7.53-2.3,2.01-5.19,3.94-8.17,4.71,4.52,3.12,4.87,9.05-2.04,8.02-2.66-.4-5.12-2.87-7.71-3.04-2.4-.16-5.1,1.05-7.54,1.29-3.83.37-7.73.67-11.58.67-1.06,5.15-.57,10.43-.66,15.66,3.91-1.07,7.2-1.58,6.97,3.49-.11,2.4-5.79,4.67-6.33,7.51-1.24,6.52.83,16.82.07,23.77.12.57.49.72.98.9,3.96,1.48,20.19,1.3,20.76,6.8.13,1.24-.92,3.49-2.16,3.87-2.79.86-17.51-3.01-21.95-3.57-17.14-2.16-38.58-.76-55.68,1.95-2.98.47-9.32,4.26-10.38-.61-.29-1.33-.37-2.53.45-3.67,2.38-3.3,16.72-3.82,20.97-5.41.49-.18.86-.34.98-.91l-.02-22.42c-1.96-2.34-9.39-5.6-7.75-9.19,1.27-2.78,5.2-2.17,7.22-.64-.5-2.72,2.17-14.17-.39-14.99-4.91-.33-9.88-.67-14.7-1.63-2.89-.58-7.47-2.65-9.79-2.83-2.61-.2-10.06,4.24-11.86.62-1.9-3.8,3.45-5.33,3.45-5.97-6.53-4.35-10.09-11.17-12.23-18.53-.78-2.68-.73-6.71-1.94-8.74-1.69-2.84-10.1-5.07-8.13-9.45.75-1.66,2.72-2.11,4.35-1.89,1.3.17,2.43,1.69,3.51.93.66-4.34-.63-9.13-.68-13.19-.04-3.24,1.39-6.79.55-10.54-.76-3.4-8.99-6.15-7.46-10.19,1.97-5.22,7.69.15,8.22-.31,1.39-14.88,22.49-21.74,29.21-6.9.93,2.05,1.19,5.65,1.88,6.92s3.56-1.94,4.91-1.17c7.16,4.51-4.16,8.98-4.89,12.38,2.21,10.63-5,32.26,8.96,36.33,11.29,3.29,7.09-2.98,7.01-10.16-.04-3.26,1.4-7.61.54-10.57-.82-2.79-9.78-5.41-6.71-10.11,2.47-3.78,6.61.56,6.83.25.16-9.52-.18-19.07-.02-28.6.07-4.36,1.84-11.64.07-15.72-.71-1.64-3-2.98-3.54-4.62-1.74-5.37,2.05-7.47,5.99-3.81,1.75-5.58,5.02-10.5,10.27-13.29,1.32-.7,4.69-1.43,5.45-2.09,1.51-1.32.33-5.78,5.95-4.7,2.84.55,2.21,3.62,3.49,4.69.89.75,4.98,1.31,6.7,2.09,4.88,2.21,7.83,8.33,9,13.31.66.49,5.14-4.32,7.57-.35,2.61,4.27-5.06,7.26-5.06,9.46v22.92c3.47-3.86,8.99-.5,6.31,4.12-.66,1.14-6.31,5.72-6.31,6.24v40.82c0,.67,1.37.94,2.1.91,7.76-.37,16.65-4.84,18.48-12.99.54-2.41,1.29-10.86.66-12.92-.78-2.54-10.77-6.04-6.46-11.08,2.42-2.83,4.81.09,7.19,1.23.99-7.29-.44-15.27,2.81-22,4.35-9.01,16.21-10.49,22.96-3.26,1.28,1.37,4.39,6.28,4.39,7.99,0,2.77-.39,6.89,0,9.42ZM114.05,33.73c-5.83.68-9.38,8.27-9.98,13.57-2.38,20.84-.6,45.08-1.35,66.48-.13,3.69.77,14.06-.3,16.65-2.57,6.19-19.14,2.02-23.76-.71-15.93-9.4-7.16-38.73-10.61-54.08-2.43-10.8-11.39-6.24-12.98,3.68-2.2,13.76-1.9,47.83,6.86,58.95,9.19,11.66,23.2,9.84,35.94,11.8,4.1.63,5.22,2.33,5.53,6.4.47,6.24-.76,14.68-.68,21.41.02,1.79.65,3.31.68,4.97.16,7.23-.41,14.5.25,21.72l28.62.59-.49-54.81c.17-.59.89-1.41,1.4-1.74,3.1-1.94,14.11-1.11,18.8-1.93,12.45-2.15,24.98-11.47,29.15-23.61,3.4-9.89,4.55-38.99,2.37-49.2-.59-2.75-2.15-6.12-5.28-6.54-5.64-.75-6.69,6.68-7,10.67-1.35,17.49,3.59,43.2-16.34,52.12-5.18,2.32-22.32,6.17-23.26-1.87-1.69-14.54.36-34.36.04-49.65-.19-9.31.2-31.77-3.34-39.37-1.19-2.55-3.79-5.4-6.74-5.5,1.03,13.48-9.48,13.63-7.54,0Z"/>
    <path class="cls-2" d="M119.61,125.53c1.9,1.14,2.25,17.05-.16,18.77-6.84,4.9-6.29-12.83-5.19-16.5.7-2.35,3.31-3.5,5.36-2.27Z"/>
    <path class="cls-2" d="M114.83,105.8c-1.92-2.01-1.71-13.93-.2-16.39,1.18-1.92,4.93-.99,5.58,1.28.41,1.45.86,8.79.69,10.47-.32,3.08-3.25,7.57-6.06,4.63Z"/>
    <path class="cls-2" d="M115.75,161.96c7.57-2.33,6.16,15.54,2.38,16.23-6.87,1.26-5.52-15.26-2.38-16.23Z"/>
    <path class="cls-2" d="M115.75,55.82c6.42-1.97,5.71,7.62,5.15,11.44-.45,3.1-1.82,4.56-5.18,3.41-2.38-.81-3.92-13.64.02-14.85Z"/>
  </g>
</svg>