<?xml version="1.0" encoding="UTF-8"?>
<svg id="Layer_1" data-name="Layer 1" xmlns="http://www.w3.org/2000/svg" viewBox="0 0 785 550">
  <defs>
    <style>
      .cls-1 {
        fill: #fff5f9;
      }
    </style>
  </defs>
  <path class="cls-1" d="M314.75,88.95h168.16c-1.3-21.52,4.01-62.84,31.47-65.19,33.64-2.88,38.88,41.84,37.16,66.34,32.23,1.18,76.4-5.82,101.24,19.45,17.18,17.48,12.52,50.07,13.12,72.68,2.25,84.42,2.91,171.88-1.14,256.15-1.05,21.9.41,39.6-13.88,58.19-25.74,33.51-61.37,27.26-98.8,28.18-96.48,2.37-194,1.93-290.47,0-66.12-1.32-137.19,8.65-141.37-78.27-2.51-52.1-1.24-107.1-1.52-158.87-.25-46.38-3.31-97.29.44-143.17,5.39-65.96,79.54-53.52,126.97-55.49,2.54-20.26-2.01-44.56,16.11-58.82,14.4-11.33,40-6.71,47.36,10.78,1.65,3.93,5.16,18.45,5.16,22.29v25.74ZM294.16,88.95v-17.73c0-1.8-1.91-10-2.61-12.26-1.63-5.3-6.69-14.85-13.39-11.75-8.18,3.78-10.26,33.21-10.31,41.74h26.31ZM530.96,88.95c.87-10.3-3.97-61.85-20.36-34.66-.91,1.5-4.8,9.14-4.8,10.07v24.6h25.17ZM542.39,83.23c.02-3.53.21-7.04-.28-10.57-.25-1.81-1.14-7.02-3.13-7.72l3.41,18.29ZM414.28,102.68h-26.31v1.14h26.31v-1.14ZM644.22,196.48v-53.19c0-6.44-8.53-17.92-13.8-21.66-18.49-13.15-50.78-10.77-72.52-10.99-16.98-.17-33.99.23-50.96.04-1.46,1.49,3.47,20.48,6.04,22.56,3.9,3.15,16.38.83,17.96,8.93,1.18,6.07-.6,13.14-7.47,14.21-26.55,4.13-42.64-23.2-40.55-46.83h-213.91c1.7,5.84,2.95,18.74,7.49,22.82,6.2,5.57,17.47.27,19.71,10.02,3.69,16.02-12.65,16.08-23.74,12.31-18.37-6.23-25.74-27.25-25.19-45.16-24.04.15-48.29.4-72.14,2.8-16.94,4.19-32.34,11.71-34.24,30.96-1.67,16.91,2.04,35.66-1.17,52.59l504.5.59ZM463.47,201.06h-46.9v1.14h46.9v-1.14ZM352.5,207.94c-15.51-.14-30.87.49-46.34,1.13-1.39.06-4.25-.86-3.99,1.13,15.5.33,30.88-.54,46.34-1.13,1.39-.05,4.25.85,3.98-1.14ZM644.22,218.21l-504.5,2.29c.23,9.71-.27,19.5-.04,29.22.9,38.28,1.74,77.16,2.38,115.45.52,30.9-1.6,65.68,2.26,96.12,1.68,13.29,7.06,21.49,18.38,28.52,18.85,11.72,66.54,12.61,89.66,13.3,66.76,2,134.81.29,201.34-.09,46.26-.27,97.25,1.48,143.02-2.26,31.76-2.59,43.6-20.79,46.33-50.91l1.17-231.64ZM660.22,276.56v-25.72s-2.26-15.45-2.26-15.45c.53,12.36.62,24.81,1.13,37.18.06,1.39-.86,4.25,1.13,3.99ZM128.29,325.75v-22.88l-2.35,5.09,2.35,17.79ZM343.35,509.93h-25.17v1.14h25.17v-1.14ZM508.08,512.22h37.75l-20.02-2.38c-5.87,3.22-13.98-2.49-17.73,2.38Z"/>
  <path class="cls-1" d="M268.76,260.88c64.01-3.29,131.18-.04,195.23.85,21.94.31,50.03-2.38,70.98-.05,20.65,2.3,11.88,35.78,11.95,50.97.19,39.13,4.25,83.64,1.24,122.39-1.27,16.31-8.6,16.77-23.44,17.74-70.14,4.55-143.09-5.49-212.87-3.53-18.97.53-39.37,4.6-58.32,2.36-4.82-.57-9.09-4.42-10.31-9.14-4.78-18.66-1.5-58.49-1.63-79.59-.02-2.7-1.23-5.21-1.24-7.91-.08-28.32,1.48-56.33,2.4-84.64.42-3.2,3.71-7.21,6.74-8.13,3.56-1.09,14.52-1.07,19.27-1.32ZM289.59,269.7l-4.01-2.38-17.73,2.38h21.74ZM445.17,267.41h-26.31v1.14h26.31v-1.14ZM529.82,270.84h-52.62v1.14h50.91c.26,0,1.25,1.69,1.7,1.14v-2.29ZM339.92,282.28l-78.27-1.17c-2.07.3.34,9.02.41,10.93.76,18.74-.43,37.79.06,56.59l77.8-1.15v-65.21ZM433.73,282.28h-73.21v65.21h73.21v-65.21ZM527.53,283.43l-73.22-1.15c.39,21.75-2.59,43.57-.64,65.28l2.42,1.11,71.44,1.11v-66.35ZM249.55,353.21v-37.75h-1.14v37.75h1.14ZM360.51,368.08v64.06l73.21,1.13c-2.19-4.8-.09-10.24.05-15.38.35-13.2,1.53-34.61,0-47.01-.15-1.23.05-2.63-1.13-3.45-23.92-.81-48.03,1.62-72.14.64ZM339.92,431v-61.2c0-2.55-2.67-.57-2.86-.57h-74.93v61.77h77.79ZM528.68,433.28v-61.2c0-2.73-13.75-1.56-16.58-1.73-2.24-.14-4.39-1.09-6.83-1.18-17.36-.67-34.77.57-52.1-1.1v65.21h75.5Z"/>
</svg>