<?xml version="1.0" encoding="UTF-8"?>
<svg id="Layer_1" data-name="Layer 1" xmlns="http://www.w3.org/2000/svg" viewBox="0 0 593.78 550">
  <defs>
    <style>
      .cls-1 {
        fill: #fffae5;
      }
    </style>
  </defs>
  <path class="cls-1" d="M405.71,39.76c33.38-.16,72.46-2.43,105.24,2.69,4.8.75,18.18,3.57,21.46,6.47,4.89,4.33,7.04,23.98,7.45,30.78,5.63,93.46-1.45,196.06-4.53,289.63-.95,28.76,1.07,58.13-.49,86.55-.44,8.06-2.4,40.18-6.07,45.08-6.79,9.08-42.55,5.45-54.45,5.83-94.04,3.02-189.47,2.54-283.62,3.07-29.08.16-97.43,4.26-121.96-3.15-15.65-4.73-14.94-17.44-15.61-31.4-3.75-78.83,1.56-163.5,3.03-242.59.85-45.39-1.22-93.21,1.35-138.32.74-12.96,3.76-26.86,5.8-39.66,9.07-11.83,45.42-12.64,59.94-13.39,91.33-4.76,190.3-1.14,282.46-1.59ZM253.11,52.56h-48.52c-.25,2.17,3.84,2.65,5.28,2.81,5.33.58,10.76-.16,16.11.21l27.13-3.01ZM482.46,55.5h21.32c.75,0,10.78-2.62,4.39-2.99l-25.71,2.99ZM508.93,74.61c-60.79-2.73-122.07-.99-183.11-1.4-59.32-.4-118.32-1.72-177.77,0-19.87.57-40-1.89-59.44,3.04l-3.11,402.68,417.55-1.47c3.61-55.04,3.19-110.26,4.42-165.39.54-24.21,2.65-49.34,3.04-73.55.88-54.41.01-109.6-1.58-163.91ZM529.5,199.58v-38.22l-3,21.24c.06,3.4-.13,6.8.24,10.19.17,1.54.58,6.91,2.76,6.79ZM63.45,270.15v-32.34h-1.47v32.34h1.47ZM522.14,452.45c-.16-4.76,3.33-51.46.75-51.46.14,15.16-2.86,31.41-2.2,46.34.08,1.79-1.11,5.47,1.45,5.12ZM339.85,490.68h37.49c1.41,0,5.9-2.92,8.82-1.46,2.39-1.99-1.77-1.6-2.98-1.54-9.2.45-18.14,3.22-27.64.62l-15.68,2.39Z"/>
  <path class="cls-1" d="M267.78,343.65c.42-.29,3.76-6.69,5.33-8.66,44.75-56.02,87.38-114.78,132.93-169.92,5.88-7.12,21.97-27.03,29.92-29.01,7.32-1.82,14.02,1.59,17.38,8.09,5.24,10.16,1.92,12.49-3.5,20.6-29.47,44.11-72.15,90.23-105.52,132.65-20.62,26.21-40.67,58.4-63.24,82.31-11.33,12.01-14.59,18.11-27.93,4.33-24.09-24.9-67.26-81.55-85.91-111.09-6.06-9.61-9.53-22.92,3.14-28.93,21.21-10.05,37.76,25.55,48.31,39.23,15.14,19.63,31.25,38.55,45.55,58.84.52,1.4,2.62,2.2,3.55,1.56Z"/>
</svg>