<?xml version="1.0" encoding="UTF-8"?>
<svg id="Layer_1" data-name="Layer 1" xmlns="http://www.w3.org/2000/svg" viewBox="0 0 785 550">
  <defs>
    <style>
      .cls-1 {
        fill: #f3fbfe;
      }
    </style>
  </defs>
  <path class="cls-1" d="M511.49,182.28c32.51-12.64,77.52-8.39,103.8,15.71,18.26,16.75,26.19,41.43,25.08,65.94,14.08-2.14,26.16-2.13,39.88,1.71,58.7,16.39,82.14,79.83,50.64,131.86-15.07,24.89-42.08,40.66-69.97,47.66-35.34,8.86-74,5.04-106.36-11.73-14.08,12.37-29.78,24.34-47.59,30.87-35.5,13.03-79.02,7.13-112.66-8.71-9.32-4.39-17.52-9.91-25.59-16.24-10.28,9.28-22.29,17-35.08,22.48-43.69,18.7-97.46,6.51-132.44-24.46-.65-.58-3.11-4.19-3.38-4.19-6.2,3.58-12.44,6.87-19.23,9.24-41.2,14.4-93.77-3.41-120.03-37.72-49.68-64.92,8.22-148.78,83.49-144.51.5-8.7,2.59-17.14,5.97-25.12,10.66-25.19,34.14-47.23,59.44-57.44,22.31-9,47.83-7.93,70.21.15,3.14-19.58,12.76-41.07,26.26-55.78,35.57-38.74,90.29-54.94,140.3-34.68,31.83,12.89,60.12,50.98,66.4,84.21.65,3.42.83,7.26.84,10.75ZM460.28,121.86c-39.2-37.38-106.54-26.22-140.6,12.87-14.39,16.51-19.25,28.92-23.81,50.36-1.31,6.15-.95,19.91-9.61,21.12-4.65.65-6.4-3.01-10.31-5.33-14.41-8.56-32.2-12.13-48.63-8.66-31.12,6.57-63.54,36.98-65.81,69.8-.51,7.37,2.65,21.36-8.59,21.45-8.61.07-17.24-3.29-26.87-2.2-59.44,6.71-88.71,74.73-45.09,119.05,21.53,21.87,70.36,35.94,98.35,20.33,3.01-1.68,13.06-10.54,15.44-10.48,1.26.03,6.94,2.15,8.26,2.96,2.95,1.82,5.93,6.12,8.73,8.5,40.9,34.81,94.08,39.85,138.57,8.16,4.1-2.92,13.12-12.41,17.21-12.66,4.63-.28,10.6,6.22,14.54,8.77,43.69,28.38,102.51,37.41,146.84,4.29,3.52-2.63,17.98-17.62,19.72-17.95,5.57-1.04,19.09,7.37,24.92,9.52,53.27,19.6,140.95,5.14,150.68-61.67,7.08-48.61-35.28-85.69-82.54-76.52-5.27,1.02-12.14,5.8-16.49,4.9-3.77-.78-6.89-4.66-7.31-8.43-.57-5.15,2.03-13.06,2.27-18.69.84-20.3-9.95-45.02-27.97-55.25s-44.58-14.49-65.11-7.9c-6.31,2.03-23.03,12.41-27.75,11.64-9.06-1.48-6.52-11.51-6.88-17.13-1.77-27.47-12.18-51.84-32.15-70.88ZM549.71,180.78h-11.61c-.45,0-1.69,1.04-2.62.76v.73c1.22.59,2.88-.74,3.37-.74h10.87v-.75ZM563.94,186.03c-6.46-1-12.89-1.9-19.48-1.5l6.37,1.48c3.64-.52,7.08.48,10.5.75.83.07,2.79.55,2.61-.73Z"/>
</svg>