<?xml version="1.0" encoding="UTF-8"?>
<svg id="Layer_1" data-name="Layer 1" xmlns="http://www.w3.org/2000/svg" viewBox="0 0 785 550">
  <defs>
    <style>
      .cls-1 {
        fill: #fff5f9;
      }
    </style>
  </defs>
  <path class="cls-1" d="M711.98,478.97c-1.93,1.09-19.52,3.6-22.88,3.84-29.89,2.17-60.23.42-90.26,1.15-147.23,3.58-295.52,8.13-442.71,2.37-21.78-.85-47.83.62-68.96-2.26-10.9-1.49-12.38-10.99-14.45-19.97-12.94-56.02-9.12-132.69-9.86-190.72-.7-54.03-5.24-117.66-1.19-170.96.88-11.58,5.1-14.74,7.93-23.93.3-.97-.87-2.6-.78-2.71.36-.38,8.71-1.99,10.25-2.25,35.35-5.99,75.6-8.22,111.5-9.59,171.23-6.52,341.16-2.25,511.59,10.63,11.22.85,14.66,4.79,16.91,15.17,5.91,27.27,4.57,62.89,5.04,90.98,1.17,69.6,1.54,139.65-1.2,210.08-.82,21.11,1.9,64.46-6.83,82.18-.39.79-3.78,5.82-4.09,5.99ZM408.35,68.65c-17.2.29-34.47-.41-51.68-.07-4.72.09-9.97-.15-14.15,0-5.97.22-13.35,1.88-19.65,1.83l65.95.64,19.53-2.41ZM605.42,79.33c-30.01-2.78-60.16-5.02-90.21-5.93l10.1,2.35c25.05-.76,49.88,3.22,74.73,4.81,1.29.08,5.6.82,5.38-1.22ZM275.39,74.59c-34.02.5-68.25-1.43-102.1,1.77,22.27.63,44.82,1.18,67.13.64,2.81-.07,5.4-1.19,8.21-1.28,7.52-.25,15.1.36,22.62.05,1.45-.06,4.42.9,4.14-1.17ZM132.94,80.51h23.74l-12.53-2.32-11.21,2.32ZM565.06,86.46l-106.83-5.94c-.49,3.31.57,2.21,2.94,2.37,31.95,2.1,64.09,2.81,96.13,4.8,1.59.1,7.42.88,7.76-1.22ZM675.47,103.07c-14.83-.72-29.73-2.63-44.53-3.56-173.8-10.97-343.95-15-517.59-4.77-4.92.29-9.91-.19-14.83.02l296.27,240.9c3.09.2,6.22-2.53,8.72-4.25,8.14-5.61,18.69-15.28,26.78-21.88,70.17-57.28,139.87-115.84,208.94-174.45,12.26-10.4,24.64-20.87,36.24-32ZM79.51,230.03l-2.96-118.68c-3.32,5.94-.62,11.61-.54,17.17.36,28.2.53,56.14,1.15,84.3l2.35,17.21ZM123.94,423.98c40.17-37.36,80.93-73.71,121.8-110.25,4.54-4.06,37.12-32.94,36.7-35.45-56.31-53.79-118.77-100.34-177.42-151.45l-19.55-14.27c.52,26.03,1.77,52.22,1.97,78.24.58,74.71-2.81,150.38,1.53,225.02.56,9.61.89,25.6,2.42,34.38.24,1.39.64,2.11,1.79,2.94,10.46-9.49,20.46-19.56,30.77-29.15ZM694.45,119.68l-191.1,159.61,191.1,169.11c.16-70.75,4.26-140.98,3.63-211.89-.23-25.71-1.45-52.29-2.48-78.22-.51-12.85-.68-25.77-1.14-38.61ZM712.26,424.66c3.82-57.84,3.74-115.77,3.62-173.9-.06-30.99.49-62.67,0-93.75-.04-2.52-1.14-4.79-1.22-7.08-.09-2.48.55-23.14-.61-23.14l-1.79,297.88ZM75.95,394.99c.28-18.01-1.87-36.09-2.46-54-.42-12.72-.66-26.1-1.14-39.11-.32-8.7.3-17.49.1-26.21l-2.41-15.97,3.5,122.87,2.41,12.41ZM673.09,461.45l-184.76-167.24c-14.83,11.07-28.59,23.57-43.29,34.8-10.19,7.79-33.65,26.85-44.95,29.82-11.63,3.06-27.8-9.85-37.21-16.27-22.35-15.23-42.29-33.7-64.16-49.54l-188.32,171.99,562.7-3.56ZM706.33,333.29v-24.92h-1.19v24.92h1.19ZM705.15,365.33v-26.11h-1.19v26.11h1.19ZM584.06,470.96c-22.45,2.35-45.59.89-68.3,1.13-79.82.83-160.97.86-241,4.74-4.78.23-9.94,1.68-14.8,1.83l324.1-7.7ZM169.74,479.26h35.61c.27-2.09-2.68-1.13-4.14-1.19-6.33-.27-12.73.53-19.01-.52l-12.46,1.71ZM547.26,479.26h-21.96c-.27,0-1.3-1.75-1.77-1.19v2.37s23.73,0,23.73,0v-1.19Z"/>
</svg>