<?xml version="1.0" encoding="UTF-8"?>
<svg id="Layer_1" data-name="Layer 1" xmlns="http://www.w3.org/2000/svg" viewBox="0 0 238.22 238.22">
  <defs>
    <style>
      .cls-1 {
        fill: #fff;
      }

      .cls-2 {
        fill: #06a9e7;
      }
    </style>
  </defs>
  <rect class="cls-2" y="0" width="238.22" height="238.22" rx="24.22" ry="24.22"/>
  <path class="cls-1" d="M211.34,187.83c-.61.29-5.99.66-7.01.66-9.09,0-18.24-1.19-27.34-1.63-44.64-2.13-89.62-4-134.04-8.96-6.57-.73-14.49-.86-20.82-2.19-3.26-.69-3.51-3.6-3.94-6.36-2.69-17.24.14-40.36,1.19-57.94.97-16.37.99-35.72,3.38-51.77.52-3.49,1.86-4.35,2.92-7.07.11-.29-.21-.81-.18-.84.12-.11,2.68-.41,3.15-.46,10.83-1.04,23.06-.83,33.95-.46,51.97,1.77,103.3,6.78,154.6,14.4,3.38.5,4.33,1.77,4.79,4.96,1.19,8.38,0,19.13-.46,27.64-1.17,21.09-2.59,42.3-4.96,63.55-.71,6.37-.83,19.55-3.86,24.72-.14.23-1.27,1.68-1.37,1.72ZM128.42,57.01c-5.21-.29-10.42-.88-15.64-1.15-1.43-.07-3.02-.26-4.28-.31-1.81-.06-4.08.28-5.99.12l19.94,1.64,5.96-.3ZM187.83,64.55c-9.02-1.5-18.1-2.83-27.17-3.77l3,.93c7.6.32,15.03,2.07,22.51,3.09.39.05,1.68.37,1.65-.25ZM88.05,55.9c-10.31-.59-20.62-1.93-30.94-1.7,6.73.68,13.54,1.34,20.3,1.66.85.04,1.66-.24,2.51-.21,2.28.09,4.56.44,6.84.51.44.01,1.32.37,1.28-.26ZM44.81,54.57l7.19.52-3.74-.98-3.44.46ZM175.46,65.82l-32.2-4.13c-.22.99.12.68.84.78,9.62,1.34,19.34,2.25,28.99,3.55.48.06,2.23.43,2.38-.2ZM208.51,73.27c-4.47-.54-8.94-1.44-13.4-2.05-52.36-7.12-103.77-12.06-156.54-12.76-1.5-.02-3-.27-4.49-.32l84.4,79.39c.93.13,1.94-.63,2.73-1.1,2.59-1.52,5.99-4.21,8.58-6.04,22.49-15.8,44.87-32,67.05-48.23,3.94-2.88,7.91-5.78,11.67-8.89ZM25.37,98.66l1.7-35.98c-1.13,1.73-.44,3.5-.54,5.18-.51,8.54-1.07,17-1.5,25.54l.33,5.26ZM34.58,158.33c12.98-10.43,26.11-20.54,39.27-30.7,1.46-1.13,11.95-9.16,11.88-9.93-15.86-17.51-33.75-32.96-50.38-49.71l-5.61-4.74c-.41,7.89-.61,15.84-1.11,23.72-1.46,22.62-4.14,45.45-4.46,68.13-.04,2.92-.29,7.77-.02,10.46.04.43.15.65.48.93,3.37-2.64,6.62-5.47,9.95-8.15ZM213.89,78.71l-61.33,44.13,54.14,55.36c1.6-21.41,4.37-42.58,5.73-64.05.49-7.79.7-15.86.96-23.73.13-3.9.36-7.81.5-11.71ZM212.61,171.4c2.42-17.42,3.66-34.96,4.9-52.55.66-9.38,1.52-18.96,2.05-28.37.04-.76-.24-1.47-.22-2.17.03-.75.67-6.99.32-7.02l-7.06,90.11ZM20.68,148.5c.48-5.44.22-10.96.44-16.4.15-3.86.37-7.91.51-11.86.09-2.64.47-5.29.6-7.93l-.38-4.88-1.63,37.26.46,3.81ZM199.95,181.67l-52.26-54.65c-4.73,3.03-9.17,6.51-13.86,9.59-3.26,2.14-10.77,7.39-14.26,8.04s-8.2-3.59-10.91-5.74c-6.43-5.1-12.06-11.12-18.34-16.4l-60.76,47.93,170.38,11.23ZM212.82,143.62l.55-7.54-.36-.03-.55,7.54.36.03ZM211.76,153.29l.57-7.9-.36-.03-.57,7.9.36.03ZM172.8,182.61c-6.85.22-13.82-.73-20.7-1.15-24.18-1.49-48.74-3.26-73.04-3.84-1.45-.03-3.04.29-4.52.23l98.26,4.76ZM47.23,176.06l10.78.78c.13-.63-.79-.4-1.23-.45-1.91-.22-3.86-.12-5.74-.57l-3.81.24ZM161.48,184.31l-6.65-.48c-.08,0-.35-.56-.51-.4l-.06.72,7.19.52.03-.36Z"/>
</svg>