<?xml version="1.0" encoding="UTF-8"?>
<svg id="Layer_1" data-name="Layer 1" xmlns="http://www.w3.org/2000/svg" viewBox="0 0 238.22 238.22">
  <defs>
    <style>
      .cls-1 {
        fill: #fff;
      }

      .cls-2 {
        fill: #84d40f;
      }
    </style>
  </defs>
  <rect class="cls-2" x="0" width="238.22" height="238.22" rx="24.22" ry="24.22"/>
  <g>
    <path class="cls-1" d="M103.48,119.17c.06.67.12,1.35.17,2.02.16-.76.14-1.5-.17-2.02ZM109.72,138.3c-.27-2.27-.49-4.56-.69-6.85-.08-.91-.16-1.83-.24-2.74-.2-2.32-.41-4.64-.65-6.94-1.01,2-2.36,3.83-4.01,5.38.17,2.17.36,4.33.56,6.47,2.14,2.34,3.18,5.64,3.92,8.7.79,3.29,1.5,7.06,2.08,10.9.41-.52.66-1.18.71-2,.22-4.18-1.2-8.82-1.68-12.93ZM103.48,119.17c.06.67.12,1.35.17,2.02.16-.76.14-1.5-.17-2.02ZM182.95,159.87c-.91-3.22-1.88-6.36-2.89-9.47-2.25-6.98-4.68-13.8-7.01-20.87-.04-.12-.08-.23-.11-.35-.61-1.85-1.21-3.71-1.79-5.56-.31.78-.66,1.53-1.04,2.21-.6,1.07-1.32,2.06-2.14,2.96.51,1.56,1.04,3.12,1.56,4.69.18.54.36,1.08.55,1.62,1.82,5.41,3.69,10.83,5.56,16.23.09.27.19.55.28.82,1.35,3.93,2.03,8.27,3.41,12.12.09.26.62.58.52.69-.3-.01-.6,0-.9.04-1.44.17-2.93.81-4.37,1.14l1.56,4.45c.34,0,.72.1,1.12,0,.54-.13,1.79-.55,3.05-1,1.36-.49,2.73-1.02,3.23-1.29.76-.41,1.1-1.08,1.17-1.89.2-2.07-1.33-5.01-1.76-6.52ZM184.15,131.66c-2.3-4.96-4.62-9.85-6.99-14.69-3.65-7.46-7.43-14.79-11.44-22.1-1.65-3.02-3.35-6.03-5.09-9.04-.21-.37-1.46-2.71-1.48-2.87-.01-.12,1.7-1.07,1.92-1.58,2.89,4.31,8.13,5.04,12.95,4.46.7-.09,4.5-.83,4.91-1.09,1.15-.74,1.44-2.92.59-4.06-.37-.5-2.47-1.82-2.92-2.48-4.15-6.09-5.11-16.46-7.6-23.51-1.58-4.46-5.62-11.8-9.05-15-.61-.58-1.52-.51-2.11-.89-.4-.26-.75-.93-1.47-1.36-6.37-3.79-19.29-5.03-26.03-1.93-9.23,4.24-14.95,12.96-15.8,23.21-.68,8.15,2.52,21.63-1.96,28.59-.86,1.34-3.28,1.52-2.45,4.13.33,1.03,2.04,1.72,3.03,1.96,5.51,1.32,13.97-.72,17.17-5.68.5-.77.22-2.33,1.62-.79-1.35,3.86-3.29,7.46-4.58,11.35-.17.52-.34,1.04-.5,1.56-.46,1.47-.89,2.96-1.29,4.45-.03.1-.06.2-.08.3-.82,3.04-1.53,6.11-2.18,9.19-1.42,6.66-2.59,13.39-4.03,20.05-.07.32.04.9-.4.88-1.1-5.26-2.69-10.36-4.49-15.4-1.13-3.17-2.35-6.32-3.58-9.45-1.53-3.89-2.87-7.85-4.75-11.61-1.23-2.46-2.66-4.95-4.38-7.17-.45-.58-.92-1.13-1.41-1.67-.82-.89-1.7-1.73-2.65-2.47-.53-.42-1.09-.81-1.67-1.16-.21-.14-.43-.26-.64-.38.39-.74,1.13-1.23,1.69-1.8.12-.12.23-.24.32-.36,5.77-7.49,7.44-16.67,5.72-25.73-1.11-5.88-2.99-11.1-7.61-15.02-.44-.37-2.32-1.21-2.44-1.33-.55-.53.85-.81.98-1.51.25-1.37-1-2.06-2.21-2.17l-4.2.71c2.46-3.95-2.31-3.29-4.77-2.46.53-1.39.03-2.24-1.45-2.4-1.06-.11-1.53.33-2.19.34-2.08.03-4.04-.22-6.32.19-15.45,2.75-25.08,18.61-25.06,33.6.01,8.03,4.26,15.31,10.2,20.24,1.49,1.24,3.36,1.53,4.94,2.58-.24.56-.95.89-1.24,1.3-2.49,3.47-3.11,8.51-4.01,12.55-.94,4.22-1.91,8.67-2.61,12.72-2.01,11.46-2.28,23-3.6,34.55-.16,2.04,2.44,4.09,3.84,2.24.34-.45.72-3.33.83-4.18.87-6.85.81-14.15,1.62-21.05l1.48-9.99c.36,4.1.49,8.27.92,12.38.73,7.11,1.77,14.38,2.94,21.48.81,4.94-.46,6.99,5.77,6.98.34,0,.84-.15,1.33-.26.58-.13,1.16-.19,1.48.16.71.77.09,2.56.19,3.58.3,2.79.6,5.59.91,8.38,1.18,10.64,2.45,21.26,3.56,31.78.06.59.47,1.25.53,2.08.09,1.18-.23,2.35.09,3.53-.07.69-8.92,2.23-10.21,2.69-2.54,1.74-1.03,4.28,1.83,4.18,2.22-.08,8.71-1.45,10.82-2.17,1.04-.36,1.63-.98,1.95-1.76h0c.19-.45.29-.95.34-1.48.05-.52.05-1.08.03-1.64-.22-8-1.96-18.19-2.87-26.36-.87-7.74-2.21-15.45-2.59-23.23l1.01-.11,4.49-.51c-.12-1.65-.22-3.31-.28-4.97l-4.38.46-1.26.13-4.53.48-3.17.33c-.29-1.71-.36-3.45-.6-5.17-1.22-8.86-2.57-17.89-3.49-26.89-.17-1.68-.33-3.36-.46-5.03-.13-1.57-.33-3.57-.49-5.76-.46-6.33-.54-14.23,2.61-17.85,2.88-3.31,6.56-.96,9.99-1.01.6,0,1.34-.06,2.19-.14,3.62-.37,8.98-1.39,11.23-2.55,1.44-.74,1.36-2.15,3.49-.99.23.13.46.26.68.41.02,0,.03.01.04.03,1.94,1.23,3.52,2.94,4.77,4.9.26.41.51.83.74,1.26.46.83.86,1.7,1.21,2.58.89.23,1.97-.32,2.35-1.58,1.56,1.19,3.25,2.67,4.39,4.28,3.71,5.26,4.42,11.74,2.69,17.44.74,2.21,1.42,4.45,2.09,6.67.47,1.58.94,3.15,1.41,4.68,1.41,4.58,2.92,9.14,4,13.82.23,1,.45,2,.63,3.01.41.31.77.56,1.11.74,3.66,2.03,3.05-3.44,3.46-6.15.24-1.57.59-3.12.89-4.67,1.1-5.73,2.17-11.57,3.36-17.35.71-3.42,1.45-6.83,2.28-10.18.43-1.75,1.34-3.42,1.5-5.27.75-.07-.52,5.77-.57,6.28-.03.34-.06.68-.09,1.02-.34,3.96-.45,8-.82,11.98-1.12,12.21-2.54,24.86-3.8,37.22-.06.63-.15,1.28-.25,1.94-.4,2.6-.99,5.34-1.11,7.86-.02.33-.02.63,0,.92.19,4.71,4.02,3.57,7.9,3.87,1,.08,2.08.52,3.31.57.78.03,3.8-.23,5.78-.29.94-.03,1.65-.01,1.77.1l1.33,10.47,1.91,15.03c-2.18,1.21-12.38,1.34-10.68,5.29,1.18,2.72,4.51.89,6.41.49,1.12-.24,2.29-.41,3.46-.64,1.22-.23,2.43-.53,3.56-1.04.76-.34,1.66-.87,1.83-1.76.1-.53.08-1.4.01-2.41-.19-2.51-.75-5.93-.96-7.53-.31-2.41-.69-4.84-1.08-7.27-.23-1.41-.45-2.82-.67-4.23-1.05-.19-2.18-.48-3.18-.37l1.19-11.12c-1.5.11-3,.25-4.5.36-1.31.1-2.62.18-3.93.2-1.3.02-2.6,0-3.89-.13-1.47-.13-2.93-.38-4.37-.8l4.23-45.05,2.06-21.94,1.35-14.42c5.96,1.55,12.33.43,18.05-1.74.22.55.55,1.03.77,1.59.57,1.47,1.1,2.96,1.6,4.45.76,2.25,1.47,4.52,2.14,6.81,1.07.93,2.33,1.67,3.29,2.74-1.09-.32-2.08-.92-2.96-1.64.51,1.71,1,3.43,1.49,5.15,1.67.75,3.46,1.29,5.27,1.61-.59-1.88-1.17-3.76-1.77-5.64,1.29.92,1.53,3.2,2.18,4.52.21.43.43.85.66,1.28,1.07.13,2.13.19,3.19.16,1.68,2.54,2.27,4.56,2.41,7.62.03.71,0,1.45-.06,2.21,1.08,2.14,2.13,4.31,3.18,6.48,1.54,3.21,3.07,6.42,4.64,9.61.92,1.87,1.29,4.31,3.31,5.31,1.09.54,2.05.26,2.55-.9,1.01-2.38-1.25-4.26-2.19-6.3ZM71.03,39.69c.45-.22.86-.39,1.37-.38l-6.62,7.64c.56-1.98,3.51-6.38,5.25-7.26ZM52.75,66.58c-.07-4.55,2.33-13.26,5.26-16.81.63-.76,1.56-1.21,2.18-2.03.7-.94.35-1.59,1.52-2.01,1.55-.56-.26,1.76-.45,2.32-.7,2.07-1.04,5.26,2.06,4.89,2.36-.27,4.56-4.21,6.06-5.96,1.23-1.42,2.73-2.67,3.88-4.18.54.69-.4,1.45-.67,2.16-.59,1.57-1.5,3.87.84,4.39,2.76.62,5.25-4.79,7.87-5.67.15.11-1.68,1.96-.17,3.42,2.75,2.65,4.65-3.43,6.86-3.23.62.06,4.16,2.57,4.78,3.14,1.62,1.49,3.98,5.88,4.66,8,3.09,9.61.16,22.89-8.6,28.72-.88.59-1.81,1.09-2.81,1.52-1.24.53-2.52.96-3.8,1.29-13.73,3.52-29.2-4.13-29.46-19.97ZM167.39,65.68l2.18,7.56,2.97,6.24c-.72-.3-1.44-1.27-1.84-1.91-1.27-2.08-1.9-4.57-2.78-6.64-.17-.39-.76-.56-.87-.89-.28-.87.47-3.29.34-4.35ZM164.16,76.83l4.08,4.33c-.57.69-4.18-3.48-4.08-4.33ZM134.25,40.38c-1.43,1.59-3.35,3.12-5.22,4.18,1.43-1.65,3.28-3.17,5.22-4.18ZM126.75,49.36c1.72-.63,3.46-1.7,4.98-2.52,1.04-.56,2.05-1.14,3.07-1.72-2.83,3.12-7.5,5.34-11.56,6.4-.66-2.07,2-1.61,3.51-2.16ZM118.29,86.47c-.14.67-.94,3.86-2.14,3.01-.23-.16,1.77-4.51,1.57-5.34l.7-6.3c.43,2.78.45,5.87-.13,8.64ZM122.51,84.86c-.92,1.16-.28-2.03-.28-2.25,0-.93-.34-1.88-.14-2.8,2.01,1.25.32,3.08.42,5.05ZM149.63,82.9c-2.97.9-4.11.99-7.07.95-4.99-.07-6.63-.28-11.09-2.63-7.76-4.08-10.59-12.13-10.86-20.35-.06-1.76-.41-3.14.5-4.85,2.13-.93,4.29-1.16,6.46-1.99,5.42-2.08,13.23-7.42,14.75-13.31.18-.69-.34-2,.48-1.6.41.2,1.04,1.83,1.33,2.21,2.92,3.78,9.81,8.68,14.59,9.39.56.08,1.57-.24,1.83-.1.18.09,1.78,3.27,1.87,3.56,3.6,11.82-.15,24.87-12.79,28.72ZM103.65,121.19c.16-.76.14-1.5-.17-2.02.06.67.12,1.35.17,2.02ZM181.31,199.12c-.2-.88-.67-1.13-1.36-1.25-.24-.04-.51-.07-.8-.1-1.61-.17-3.42-.13-5.17,0-1.02.07-2.03.16-2.96.26l-2.25-17.95c-1.46.24-3.06.47-4.73.69.21,1.42.45,2.84.68,4.26.4,2.37.81,4.74,1.13,7.13.3,2.19.45,7.8,1.13,9.41.32.75,1.63,1.28,2.41,1.37,2.04.21,5.85-.05,7.98-.23.67-.06,1.34-.15,1.94-.32,1.43-.41,2.43-1.29,1.99-3.27ZM103.48,119.17c.06.67.12,1.35.17,2.02.16-.76.14-1.5-.17-2.02ZM119.87,205.02s-.02-.01-.03-.02c-.21-.05-.56-.06-1.02-.06-.01,0-.02,0-.04,0-2.92,0-9.93.7-10.36.2-.1-.27-.16-.56-.2-.85-.11-.94.06-1.95-.03-2.89-.94-9.83-2.13-19.54-3.3-29.29-1.54.19-3.08.37-4.63.53l.56,4.57,3.95,32.14c.26.45,1.65.99,2.18,1.01,2.42.11,7.29-.22,9.8-.49.46-.05.92-.12,1.37-.2,2.96-.57,5.37-2,1.73-4.66Z"/>
    <path class="cls-1" d="M90.05,71.22c.11.05.73,1.01.79,1.22.51,1.85-1.21,4.5-2.47,5.81-5.62,5.88-15.44,6.02-22,1.59-2.24-1.51-2.92-4.5.27-4.66,1.63-.08,5.25,2.58,7.49,3.03,4.31.87,8.98-.77,12-3.91.6-.62,1.06-2.16,1.93-2.73.27-.18,1.73-.47,2-.36Z"/>
    <path class="cls-1" d="M87.02,63.05c-.35.84-2.28,1.32-3.21.96-2.47-.96-3.09-9.93,1.29-7.7,1.41.72,2.46,5.45,1.92,6.74Z"/>
    <path class="cls-1" d="M65.28,59.06c3.79-1.08,5.03,6.46,1.57,7.18-3.66.77-5.33-6.11-1.57-7.18Z"/>
    <path class="cls-1" d="M134.04,77.15c-1.29-.94-3.8-3.3-2.81-5.08,1.34-2.41,6.29,2.5,7.76,3.08,2.88,1.14,7.48.28,10.05-1.34,1.96-1.24,3.11-6.02,5.98-4.6,3.15,1.55-1.73,6.65-3.34,7.78-5.28,3.74-12.36,4-17.65.15Z"/>
    <path class="cls-1" d="M146.82,55.5c.37-.48,2.04-.71,2.65-.61,1.95.34,2.55,4.84,1.67,6.33-1.57,2.68-4.74.3-4.88-2.24-.02-.42.39-3.27.56-3.48Z"/>
    <path class="cls-1" d="M131.88,57.19c4.59-1.6,5.59,8.68.44,6.74-2.56-.97-2.83-5.9-.44-6.74Z"/>
    <g>
      <path class="cls-1" d="M186.04,95.17c-5.08-4.02-12.06-2-15.72,2.84-.96-.64-1.84-1.63-2.81-2.21-.42-.25-1.06-.58-1.79-.92-1.73-.81-3.97-1.7-5.1-1.92-.82-.16-2.21-.25-3.79-.28-3.3-.07-7.44.14-9.01.61-4.78,1.42-8.88,4.48-12.02,8.2-.29.34-.41.94-.76,1.32-.04.05-.09.09-.13.13-.93-1.3-3.04-2.27-4.58-2.7-.43-.12-.94.12-1.35.06-.27-.04-.15-.52-.7-.53-.37,0-.85.02-1.41.08-3.42.36-9.63,2-8.1,5.42,1.4,3.14,3-.14,4.72-.67.68-.21,1.39-.24,2.09-.31.11,0,.23-.02.34-.04l-.42.34-3.71,2.96c-.39.4-.85,1.17-1.24,2.08-.74,1.75-1.21,4-.4,5.05.22.28.52.47.94.54,1.2.21,1.79-.47,2.23-1.45.69-1.56.96-3.88,2.58-4.43.19.17-1.39,2.9-1.55,3.47-.38,1.36-1,5.67.57,6.38.28.13.9.11,1.5,0,.6-.11,1.18-.31,1.37-.56.24-.31.43-4.57.8-5.69.2-.61.53-1.28.95-1.9.66-.98,1.56-1.85,2.61-2.12-.09,2.61-1.39,6.45-1.1,8.96.24,2.11.93,4.49,1.94,6.84,1.84,4.28,4.75,8.44,7.96,10.66.46.32,2.61,1.04,2.76,1.47.09.26-1.08,2.17-1.25,2.75-.98,3.25-2.78,6.58-3.93,10.06-2.18,6.55-3.52,13.8-5.4,20.48,0,.15,0,.3.01.45.21,1.69,2.15,2.88,3.5,1.45l.39-1.33,6.3-21.39c-.25,3.15-.81,6.28-1.18,9.42-.46,3.9-.85,7.84-1.2,11.77-.14,1.54-.27,3.09-.39,4.62-.05.62-.1,1.24-.15,1.86-.15,1.86-1.2,5.66-.02,7.28.59.81,1.81,1.23,3.27,1.43,1.39.2,2.99.19,4.46.16,1.41-.03,2.7-.09,3.55-.03l1.35,14.53c-.93.17-1.93.14-2.86.31-.08.02-.16.03-.24.05-1.71.38-5.47,1.06-6.1,2.68-.56,1.43,0,2.15.94,2.48,1.09.38,2.68.26,3.67.11,1.94-.3,6.97-1.02,8.39-1.93.25-.16.96-.9.99-1.09l-1.96-17.31c3,.3,5.93-.19,8.88-.64,1.29-.2,2.57-.39,3.87-.51-1.02,2.22.24,4.58.47,6.67.29,2.64.26,5.68.61,8.34.2,1.52.61,3.07,2.35,3.16,2.3.13,4.85-.26,7.29-.3.65-.01,1.28,0,1.91.06,1.54-.35,3.11-1.8,2.37-3.47-.54-1.21-2.1-1.18-3.64-1.1-1.06.06-2.13.14-2.85-.14-1,.34-2.12.57-3.11.07v-.04s-1.43-14.03-1.43-14.03c2.6-1.03,10.85-1.29,10.64-5.24-.14-2.61-1.76-5.87-2.88-8.91-.48-1.31-.87-2.57-1.02-3.74-.12-.28-.23-.57-.35-.85-2.39-5.91-4.24-12.07-6.52-18.07l3.21,4.41.84,1.15c2.36,4.14,4.54,8.49,6.98,12.52.29.47.74.98,1.25,1.4,1.12.9,2.55,1.32,3.21-.29,1.03-2.53-.82-3.22-1.87-5.06-2.01-3.52-3.96-7.1-5.98-10.64-1.97-3.46-3.99-6.88-6.2-10.19-.57-.86-2.69-3.39-3.79-5.11-.41-.65-.68-1.18-.67-1.47,0-.08.05-.12.12-.15.19-.09.55-.08.71-.26,1.06-1.2,2-2.43,2.82-3.68,1.19-1.81,2.11-3.67,2.79-5.58.8-2.26,1.24-4.58,1.32-6.98.13-3.65-.56-7.46-2.08-11.43-.13-.33-1.89-2.89-.11-2.23,1.41.52,3.55,1.99,4.43,3.23,1.03,1.46,1.94,5.57,4.29,3.99,2.67-1.8-1.32-6.61-2.84-8.17l-1.95-1.43c2.83-.66,5.68,4.22,7.21,4.66,2.09.59,2.2-2.31,1.35-3.75-1.63-2.77-7-4.83-10.04-4.12-.66.16-.54-.36-.43-.46,1.1.11,2.24-.6,3.24-.55,2.06.1,5.94,3.34,7.38,2.28,1.45-1.08-.64-3.08-1.56-3.81ZM158.14,98.28c.28.23.42.83.81,1.17,0,0,.02.02.03.03,1.07.93,2.33,1.67,3.29,2.74-1.09-.32-2.08-.92-2.96-1.64-.86-.71-1.63-1.55-2.29-2.4.12-.41.94-.04,1.13.11ZM143.51,103.57c.74-.68,5.06-5.97,5.69-5.56-2.07,4.01-5.89,6.8-9.78,8.9,1.14-1.32,2.8-2.15,4.09-3.33ZM174.58,166.13l1.56,4.45,2.48,7.09c-2.57.72-5.11,1.56-7.75,2.03-.66.12-1.36.24-2.09.36-1.46.24-3.06.47-4.73.69-5.29.69-11.2,1.21-15.36,1.04-.39-.02-.8-.08-1.23-.16-1.05-.19-2.18-.48-3.18-.37l1.19-11.12,3.31-31.04c2,.18,4.18.65,6.2.49,1.67-.13,4.87-.59,6.38-1.1.93-.32,2.11-1.06,3.06-1.46l10.17,29.09ZM171.15,123.62c-.31.78-.66,1.53-1.04,2.21-.6,1.07-1.32,2.06-2.14,2.96-4.47,4.87-11.94,7.02-18.33,5.35-9.47-2.48-15.39-12.74-13.26-22.24,6.77-2.52,13.37-6.1,16.69-12.82.28.02.14.47.35.74.96,1.26,2.07,2.57,3.44,3.61,1.2.9,2.53,1.68,3.94,2.3,1.67.75,3.46,1.29,5.27,1.61.36.06.72.12,1.07.16,1.07.13,2.13.19,3.19.16,1.68,2.54,2.27,4.56,2.41,7.62.03.71,0,1.45-.06,2.21-.19,2.05-.74,4.22-1.52,6.15Z"/>
      <path class="cls-1" d="M162.21,128.96c-4.64,3.63-11.47,3.94-15.95-.04-1.24-1.1-3.61-4.23-1.12-5.23,1.52-.6,3.72,2.21,5.11,2.92,2.81,1.43,6.04,1,8.71-.51,1.72-.98,4.09-5.02,5.76-3.46,1.92,1.79-1.05,5.18-2.51,6.33Z"/>
      <path class="cls-1" d="M147.16,118.85c-4.14,1.45-4.83-5.47-2.41-6.49,4.15-1.76,5.1,5.55,2.41,6.49Z"/>
      <path class="cls-1" d="M160.47,117.35c-.61.21-1.9.35-2.41-.04-1.64-1.26-1.93-5.21.42-6.13,3.37-1.31,4.77,5.21,1.99,6.17Z"/>
    </g>
    <g>
      <path class="cls-1" d="M122.77,157.26c-1.11-2.87-2.49-6.36-4.06-9.88-.56-1.25-1.14-2.51-1.74-3.75-2.07-4.27-4.39-8.29-6.81-11.02-.36-.41-.74-.79-1.13-1.16-.5-.48-1.02-.95-1.51-1.44,1.13.03,1.05-.72,1.27-1.3.04-.1.08-.19.14-.27.74-1.04,1.73-2.13,2.64-3.31.81-1.06,1.56-2.17,1.99-3.38.24-.66.19-2.24.27-2.34.03-.04.27-.07.58-.1.53-.05,1.28-.09,1.6-.18,2.06-.58,3.46-2.35,4.16-4.45.54-1.61.68-3.42.4-5.05-.41-2.38-1.7-4.37-3.91-4.78-.72-.13-1.82.55-2.56-.16-.55-.54-1.42-3.64-2.04-4.54-1.21-1.77-3.76-4.53-5.44-6.01-.43-.38-1.02-.5-1.46-.88l3.09-3.19c-.09-5.02-5.21.29-6.55,1-.09.05-.16.07-.21.08-.14.01-.2-.43-.31-.47-.52-.15-1.05.05-1.44-.4.11-.2.31-.51.56-.88,1.22-1.82,3.71-5.27,3.4-6.1-1.14-3-4.7,1.77-5.49,2.8-.23.29-.41.57-.56.82-1.03,1.71-.87,2.65-3.86,2.54-.07,0-.32.14-.45.1-.02,0-.03-.01-.04-.03-.05-.05-.05-.14.03-.33.27-.69,1.66-2.09,2.66-3.44.58-.79,1.03-1.57,1.04-2.19.01-.2-.03-.38-.12-.54-.23-.4-.8-.76-1.26-.76-.97,0-5.11,4.16-5.97,5.1-.57.63-.86,1.93-1.76,2.37-.7.35-1.78-.1-2.48.04-.48.1-.7.67-1.26.61.68-1.39,4.57-5.24,4.67-6.38,0-.1.01-.19.02-.28.05-1.63-.76-1.84-2.29-1.25-.83.32-2.97,2.49-4.32,4.06-.48.56-.86,1.05-1.05,1.35-.57.91-1.08,1.6-1.56,2.32-1.19,1.8-.84,1.71-1.74,2.48-.24.21-.58.49-1.07.88-5.31,4.32-8.06,8.38-9.67,15.18-.09.39.1,1.21.06,1.26-.11.15-1.34-.1-1.81.03-.59.17-1.52.89-2.29,1.65-.55.54-1.02,1.09-1.23,1.47-1.68,3-.52,7.3,2.18,9.31.6.45,1.27.79,2.01.97.9.23,1.88.07,2.76.26,1.62.36,1.44,1.6,2.35,2.79,1.3,1.7,3.51,4.07,5.14,5.37.81.64,2.02,1.18,2.87,1.82.12.35-1.82,3.25-2.01,4.04-.11.46.24.95.18,1.05-.05.08-.83.32-1.22.8-1.22,1.48-3.42,9.12-4.82,14.61-.52,2.03-.92,3.76-1.13,4.79-.02.11-.04.21-.06.3-.74,3.97-1.93,10.87-2.09,14.75-.08,2.06.8,4.57,3.33,3.46,1.05-.45,1.24-4.18,1.4-6.4.04-.53.07-.97.12-1.27.74-4.97,1.83-9.67,2.57-14.91l.38-1.2,1.49-4.71c-.15,1.53-.22,3.05-.23,4.57-.01,1.67.05,3.35.16,5.02.41,5.98,1.48,11.93,2.3,17.86,1.08,2.15,2.3,2.66,4.65,2.64.71,0,1.59-.77,2.24-.06l2.24,14.38c.11,2.48.27,4.96.51,7.42.21,2.14.75,4.2.7,6.34-.3.48-6.86,1.41-7.93,2.43-.1.1-.19.21-.27.33-.26.41-.37.95-.34,1.48h0c.07,1,.65,1.95,1.68,1.95,2.23-.01,3.96-.79,5.89-1.18.56-.11,1.1.15,1.68.02.57-.13,3.56-.93,3.69-1.18,1.14-2.15-.33-7.4-.56-9.79-.5-5.29-.66-10.78-1.49-16-.16-1.01-1.74-6.47-1.39-6.9l10-1.14,4.34-.49,3.06,27.57.46,4.18c.54.94,1.44.96,2.39,1.06,1.3.14,4.49.25,7.06.15,1.41-.06,2.63-.18,3.25-.4,1.13-.39,1.75-1.67,1.27-2.79-.39-.9-1.47-1.31-2.79-1.47-.33-.04-.69-.07-1.05-.08-.01,0-.02,0-.04,0-2.21-.09-4.77.23-6.06-.01.3-2.33-.55-4.43-.78-6.65-.43-4.13-.55-8.38-1.08-12.45-.43-3.32-.71-6.65-1.73-9.85,2.41-.07,7.69-.11,7.96-3.22.1-1.22-.15-4.17-.25-5.58-.31-4.26-.91-9.09-1.52-13.34-.24-1.71-1.03-3.09-.85-4.83.43-.12.43.51.54.83,1.64,4.76,3.84,9.29,5.5,14.05.55,1.58,1.05,4.98,1.81,6.18.32.5.76.8,1.25.92,1.44.36,3.24-.86,2.97-2.81-.16-1.19-.99-3.62-1.86-5.97-.73-1.95-1.48-3.86-1.9-4.95ZM115.24,113.69c-.09-1.47.19-2.96-.19-4.44,2.88-1.14,1.38,4.35.65,5.75-.5.11-.44-.99-.46-1.31ZM67.82,119.53c-.58.24-.43-.3-.69-.48-2.43-1.79-2.99-3.75-.13-5.42.25,1.81.35,3.66.62,5.47.01.07.61.33.2.43ZM74.22,122.31c-4.01-6.57-3.35-13.55.23-20.11.48-.88,2-3.45,2.99-3.54.4-.04.73.39,1.03.43,1.58.19,1.96-2.46,2.73-3.08.39-.31,4.01-1.74,4.3-1.55-.71,2.77.92,4.44,3.08,2.04,1.67-1.84,1.44-3.26,4.94-2.65.4.3-1.57,1.95-.1,3.33,2.17,2.03,3.3-3.02,4.35-2.78.12.03.22.06.32.08.95.3.88.74.74,1.26-.07.29-.16.59-.11.92.15.95.69,1.5,1.32,1.66.89.23,1.97-.32,2.35-1.58,1.56,1.19,3.25,2.67,4.39,4.28,3.71,5.26,4.42,11.74,2.69,17.44-.35,1.14-.79,2.26-1.33,3.32-1.01,2-2.36,3.83-4.01,5.38-1.99,1.88-4.42,3.35-7.24,4.21-8.23,2.53-18.22-1.77-22.67-9.06ZM112.33,167.34c.04.51.15,3.23-.02,3.48l-.57.36c-2.28.34-4.55.65-6.84.93-1.54.19-3.08.37-4.63.53-5.4.59-10.81,1.06-16.23,1.55-.25-.13-.98-4.24-1.09-4.99-.51-3.68-.95-7.39-1.23-11.1-.12-1.65-.22-3.31-.28-4.97-.12-3.66-.07-7.32.24-10.98.16-1.91.44-4.29,1.81-5.83,1-1.11,1.67-.14,2.92.06,5.92.99,12.61.69,17.45-3.24l.41.06c.14.13.27.27.4.42,2.14,2.34,3.18,5.64,3.92,8.7.79,3.29,1.5,7.06,2.08,10.9.75,4.88,1.31,9.86,1.63,14.11Z"/>
      <path class="cls-1" d="M103.65,121.19s0,0,0,0c-.16.8-.52,1.61-.92,2.17-3.63,5.17-11.28,6.93-16.95,4.37-1.71-.77-5.55-3.42-4.16-5.57,1.12-1.73,3.75.84,4.81,1.37,3.98,2.01,9.9,1.25,12.8-2.29.8-.97.9-2.7,2.59-2.79.86-.05,1.38.24,1.66.71.31.52.33,1.26.17,2.02Z"/>
      <path class="cls-1" d="M80.59,107.36c4.7-1.65,5.87,6.7,1.06,5.96-2.54-.4-3.27-5.18-1.06-5.96Z"/>
      <path class="cls-1" d="M97.39,111.29c-1.52-.96-2.61-4.4-.94-5.57,3.94-2.75,5.5,4.19,3.46,5.45-.69.42-1.82.56-2.53.12Z"/>
    </g>
  </g>
</svg>