<?xml version="1.0" encoding="UTF-8"?>
<svg id="Layer_1" data-name="Layer 1" xmlns="http://www.w3.org/2000/svg" viewBox="0 0 640.72 653.32">
  <defs>
    <style>
      .cls-1 {
        fill: #fff5f9;
      }
    </style>
  </defs>
  <path class="cls-1" d="M411.4,69.64c25.19,23.7,20.07,73.45,9.74,103.28-2.89,8.35-8.04,15.96-9.46,24.79,3.23-2.28,6.15-6.67,8.93-9.17,29.18-26.25,86.9-62.9,122.17-27.87,38.06,37.79-9.15,94.4-43.58,114.91l-12.73,7.16c4.19.61,8.93-.56,12.89-.53,23.8.17,59.94,6.28,79.2,21.47,28,22.08,27.26,60.06-1.61,80.97-16,11.59-36.82,15.27-56.24,16.2-17.01.82-32.77-1.74-49.2-5.5-.45,1.81.34,1.29.99,1.8,22.58,17.46,48.45,42.06,56.27,70.46,11.69,42.47-20.16,74.8-62.78,64.35-33.87-8.3-61.14-37.15-81.09-64.17l3.92,29.54c3.1,34.85-10.81,94.08-53.15,98.01-57.55,5.33-71.6-70.66-68.68-113.56.09-1.34,1.56-5.12,1.37-5.32-1.29-1.39-1.67,1.06-1.96,1.55-3.97,6.75-7.34,14.76-11.87,21.23-9.96,14.21-30.65,34.66-45.61,43.37-31.52,18.34-73.49,11.53-82.08-28.18-7.9-36.5,19.54-68.84,40.73-95.45-14.06,5.24-28.74,9.42-43.8,10.92-25.73,2.55-59.18-4.05-74.19-27.18-19.77-30.46.15-63.24,28.49-78.37,15.44-8.24,34.02-11.75,51.31-14.12,4.3-.59,10.03.3,13.78-1.89-21.35-7.89-42.08-17.13-58.73-33.02-16.05-15.31-26.79-36.1-22.81-58.75,9.22-52.41,70.68-44.95,106.77-26.37,8.76,4.51,16.83,11.32,25.95,15.38l-8.8-17.57c-16.9-38.01-26.51-90.72,13.74-117.25,30.2-19.9,67.51,4.31,82.74,31.79,10.02,18.08,14.37,38.4,19.8,58.16l5.49-29.16c7.93-30.01,24.57-64.95,57.61-72.38,15.65-3.52,34.48-.79,46.46,10.48ZM394.86,78.31c-19.19-10.98-39.74.43-52.47,15.07-17.23,19.8-24.22,60.07-26.77,85.83-1.44,14.51-1.73,29.04-1.5,43.61,17.27,1.7,32.93,3.93,48.65,11.59,3.65,1.77,7.75,7.16,11.11,3.06,9.22-11.24,25.04-47.28,29.53-61.8,8.1-26.22,20.63-80.65-8.55-97.35ZM248.16,245.26c6.09-4.15,14.22-8.93,21.01-11.71,8.46-3.46,17.5-4.75,26.06-7.82l.63-1.58c-.8-6.3-1.62-12.65-2.28-18.96-3.73-36.04-14.79-97.28-47.63-118.52-29-18.75-52.88,3.01-57.1,32.7-5.5,38.65,20.24,82.68,43.45,111.69,2.49,3.11,11.23,13.49,14,15.09,2.1,1.22,1.32-.53,1.85-.9ZM528.5,169.85c-12.35-9.96-23.7-8.7-38.52-5.32-36.89,8.43-79.02,52.42-101.91,81.62-.63.8-2.46,3.02-2.32,3.82,12.96,10.68,24.4,25.14,31.07,40.64,1.3,3.03-1.18,4.21,4.94,2.61,5.34-1.39,15.89-6.05,21.6-8.32,34.96-13.89,89.53-42.39,96.13-83.46,1.88-11.69-1.71-24.11-11-31.6ZM200.33,229.53c-24.55-19.94-68.93-46.84-101.41-34.73-21.98,8.19-26.77,34.43-15.44,53.55,14.22,23.99,45.87,40.78,71.53,49.72,17.36,6.05,35.47,9.04,53.48,12.21,3.71-18.63,12.27-36.22,24.4-50.76-5.04-5.9-11.34-10.44-17.02-15.63-5.16-4.72-10.02-9.87-15.55-14.36ZM378.08,264.37c-61.58-55.03-162.75-10.75-155.95,74.19,3.66,45.72,54.43,85.71,99.29,81.88,77.99-6.66,116.55-102.56,56.66-156.07ZM418.95,362.87c7.93,2.43,14.89,7.25,22.68,10,35.25,12.43,106.58,23.62,133.44-9.01,15.79-19.19,5.73-44.24-15.45-53.86-28.27-12.84-61.11-14.45-91.54-10.62-15.48,1.95-30.58,6.25-45.83,9.31,2.12,15.61,2.31,29.69-1.32,45.11-.48,2.03-3.92,7.51-1.97,9.07ZM60.13,386.97c4.25,8.77,7.24,13.23,15.88,18.45,35.13,21.24,94.69.12,127.54-18.6,1.94-1.11,13.3-8.14,13.58-9.27-5.47-11.34-10.01-23.42-10.95-36.15-.29-3.94.83-12.72-.12-15.63-.31-.93-.93-1.25-1.86-1.29-41.65-1.61-97.8-6.17-131.47,23.65-10.67,9.45-18.06,21.59-14.52,36.39.04.15,1.73,2.06,1.92,2.45ZM443.46,394.26c-2.02-1.34-3.47-2.2-5.55-3.49-6.2-3.84-17.61-11.44-23.9-13.89-.81-.32-1.41-.61-2.32-.42-.13,2.76-2.13,5.46-3.62,7.81-6.91,10.91-15.91,19.59-25.94,27.6-1.64,1.31-8.42,5.09-8.7,5.53-.59.94.11,1.91.42,2.77,1.57,4.44,7.08,13.39,9.65,17.93,18.81,33.16,57.17,78.69,97.85,80.45,20.52.89,34.79-17.38,33.49-36.92-2.3-34.73-44.38-69.38-71.39-87.35ZM233.42,399.58c-1.52-1.56-6.65-8.25-7.82-8.07-.73.12-10.69,7.08-12.3,8.21-28.79,20.22-70.32,62.65-71.73,99.91-.92,24.15,14.77,39.69,39.22,36.14,35.36-5.14,68.11-53.2,81.95-83.47,1.74-3.8,10.31-23.79,9.98-26.33-.24-1.88-6.74-3.45-8.82-4.51-11.18-5.71-21.74-12.89-30.48-21.89ZM360.42,426.91c-.96-.68-19.4,5.33-22.6,5.99-10.76,2.22-20.25,2.9-31.16,1.71-2.57-.28-14.98-3.22-15.75-2.99-2.43.72-5.45,21.22-5.9,24.84-4.19,33.55-4.93,91.55,23.15,115.23,23.39,19.72,47.69,3.01,56.86-21.83,9.93-26.9,8.41-63.1,3.12-90.91-2.04-10.74-5.01-21.47-7.72-32.05ZM251.05,490.63c-1.2-1.14-8.57,8.73-7.87,9.44,4.82-1.17,4.68-5.97,7.87-9.44Z"/>
</svg>