<?xml version="1.0" encoding="UTF-8"?>
<svg id="Layer_1" data-name="Layer 1" xmlns="http://www.w3.org/2000/svg" viewBox="0 0 238.22 238.22">
  <defs>
    <style>
      .cls-1 {
        fill: #fff;
      }

      .cls-2 {
        fill: #84d40f;
      }
    </style>
  </defs>
  <rect class="cls-2" x="0" y="0" width="238.22" height="238.22" rx="24.22" ry="24.22"/>
  <g>
    <path class="cls-1" d="M159.83,116.7c15.4,15.01,33.87,30.24,48.32,45.58,15.28,16.21-6.02,36.97-22,23.25-19.98-20.49-39.62-41.24-59.13-62.15-.74-.13-10.64,9.72-10.83,10.45-.34,1.3,2.48,5.23,2.48,8.03,0,8.03-12.91,18.19-20.96,16.5-3.31-.69-12-8.79-14.91-11.47-8.51-7.81-19.06-18.12-26.7-26.69-5.76-6.46-10.93-11.18-5.59-20.05,1.46-2.42,7.47-9.09,9.87-10.23,5.33-2.52,9.78-1.05,14.06,2.56,14.25-12.79,27.43-27.35,42.01-40.08,2.15-2.57-2.3-5.93-2.82-9.18-.79-4.9.46-7.39,3.41-10.96,4.32-5.24,9.71-10.66,17-8.19,2.48.84,11.78,10.05,14.44,12.58,11.48,10.88,22.43,22.42,33.93,33.29,3.55,4.59,3.77,8.38.82,13.41-1.86,3.16-9.92,10.34-13.55,10.95-5.81.98-9.51-2.92-10.54-2.84-.84.06-11.58,11.04-11.97,11.79-.47.91-.14.92.31,1.58,2.39,3.48,9.05,8.67,12.34,11.88ZM130.25,32.47c-1.45,0-6.7,5.84-7.1,7.15-.63,2.09.36,4.09,1.49,5.78,12.89,10.66,24.61,26.53,37.33,36.79,2.11,1.7,3.51,3.36,6.47,2.69,2.5-.57,9.08-7.04,5.76-9.89l-41.73-41.18c-.59-.49-1.43-1.35-2.21-1.35ZM152.55,85.63l-29.13-27.56-41.86,40.44,28.88,27.95c.06-.72.4-1.4.91-1.9,12.9-12.43,25.81-26.14,39.29-38.01.55-.48,1.14-.92,1.9-.92ZM64.42,98.32c-1.1.33-6.4,6-6.64,7.26-.41,2.21,1.71,4.44,3.06,6.11,10.27,12.67,25.67,23.93,36.73,36.13,1.66,1.42,3.72,1.8,5.69.66.77-.44,6.13-6.14,6.29-6.89.26-1.2-1.46-2.72-1.98-3.77l-40.12-39.02c-.89-.74-1.97-.81-3.04-.49ZM147.74,118.71c-2.74-2.55-5.35-5.35-8.07-7.93l-5.96,5.96c9.52,9.95,18.52,20.42,27.94,30.47,5.25,5.61,11.03,10.77,16.35,16.31s18.02,25.74,25.33,14.03c2.25-3.6,1.61-4.7-.83-7.75-8.24-10.28-23.07-21.24-33-30.45-7.33-6.79-14.45-13.83-21.76-20.64Z"/>
    <path class="cls-1" d="M124.36,188.56c4.69.88,13.45.53,14.86,6.81.64,2.86.61,11.75-.16,14.65-.92,3.43-3.94,3.83-7.1,4.2-12.43,1.48-25.74-.5-38.12-.48-18.02.03-35.99.75-54.08.63-3.27-.02-6.18.76-9.88-.11-5.67-1.35-5.25-8.61-4.85-13.35.99-11.5,5.23-11.49,15.7-12.26-2.5-18.03,11.45-13.4,23.58-13.79,17.56-.57,35.04-.35,52.69.03,7.75,1.05,6.87,7.5,7.36,13.68ZM90.98,179.85h-11.31l9.11,1.31,2.2-1.31ZM114.86,189.28c-.13-1.45.63-4.39-1.03-4.94-2.56-.84-12.63.06-16.27-.06-13.37-.44-27.4-1.55-40.84-.68-1,.06-6.34.41-6.57.65-.16.16.29,3.49-.62,4.39l65.34.64ZM129.94,204.98c.04-2.81.7-5.53-2.49-6.63l-88.32-.3c-4.02-.32-7.22,7-2.53,7.58,11.68,1.44,27.05-.57,38.96-.68,18.12-.17,36.26.18,54.37.03Z"/>
  </g>
</svg>