<?xml version="1.0" encoding="UTF-8"?>
<svg id="Layer_1" data-name="Layer 1" xmlns="http://www.w3.org/2000/svg" viewBox="0 0 600 600">
  <defs>
    <style>
      .cls-1 {
        fill: #f3fbe7;
      }
    </style>
  </defs>
  <path class="cls-1" d="M521.29,249.05c15.01-14.39,29.4-24.49,51.86-20.24,36.4,6.88,16.35,57.46,6.7,79.17-10.32,23.22-22.19,46.05-32.9,69.14-29.78,64.22-58.81,139.03-119.29,180.65-72.74,50.06-170.72,22.97-235.79-27.01-39.45-30.3-65.24-74.49-97.23-111.63-14.62-16.98-31.3-32.4-45.14-50.05-4-5.1-7.35-10.91-11.38-16.02-14.26-18.08-30.49-30.96-32.15-56.19-1.89-28.76,22.25-46.59,47.18-28.7,27.42,19.68,45.13,53.7,71.62,72.87,5.05,3.65,10.37,5.48,16.46,2.8,3.07-4.27-6.39-26.58-8.8-31.7-17.02-36.15-40.08-70.37-53.55-108.07-3.15-8.82-8.43-23.11-7.79-32.44,2.3-33.5,36.23-43.32,57.78-18.93,21.71,24.57,33.82,54.16,50.18,81.99,6.81,11.59,13.89,25.68,24.09,34.8,7.9,7.06,15.67,7.13,18.19-4.42,4.48-20.56-8.83-52.86-14.41-73.32-7.46-27.37-13.91-54.81-21.22-82.19-5.2-19.46-13.48-36.95-5.47-56.83,3.09-7.68,4.78-6.44,10.83-10.39,10.82-7.06,15.28-9.43,28.95-6.14,29.62,7.12,37.64,35.17,45.64,60.51,13.39,42.39,25.11,85.77,40.77,127.7,1.63,3.06,9.09,11.59,11.97,13.37,4.21,2.6,14.67,5.71,17.26-.12,3.2-7.23,3.45-15.99,3.73-23.67,1.17-32.68-3.96-66.45-4.73-99.31-.73-31.01-7.18-95.49,37.29-98.92,19.11-1.47,27.31,7.06,35.8,22.39,10,18.05,10.15,30.73,11.79,50.53.51,6.18,2.61,12.92,3.32,19.28,5.59,50.02,8.69,100.48,13.77,150.6,1.92,18.93,2.12,50.59,29.1,48.26,17.1-1.47,28.42-27.02,38.03-39.35,5.34-6.86,11.34-12.45,17.55-18.4ZM370.22,26.03c-2.14-.78-13.85,7.51-12.32,8.89,2.32.4,2.68-1.83,3.75-2.72,2.75-2.28,5.87-3.9,8.57-6.18ZM91.32,392.68c26.32,31.65,52.13,63.22,79.99,93.6,25.8,28.13,64.52,64.09,101.54,75.13,22.88,6.82,53.23,7.61,77.16,6.35,49.77-2.61,92.4-30.13,118.68-71.68,29.22-46.19,50.75-96.86,74.84-145.67,13.73-27.82,36.6-64.87,38.2-96.03.24-4.73-2.67-12.2-7.66-13.21-5.88,2.98-13.79,3.79-19.62,6.47-21.65,9.96-36.24,41.23-52.44,58.5-19.78,21.1-56.17,24.04-71.13-4.2-14.89-28.1-13.94-61.25-17.55-92.02-.78-6.64-2.52-13.44-3.33-19.95-4.65-37.48-5.38-75.39-9.68-112.91-.83-7.2-5.18-26.78-8.08-33.01-2.41-5.18-9.02-9.85-14.86-9.81-4.33.03-18.08,8.79-20.48,12.38-3.16,4.71-1.36,11.86-1.73,17.45-.68,10.21-1.93,20.55-2.12,30.77-.7,38.81,6.69,77.16,4.86,116.48-.76,16.47-2.36,35.04-19.42,42.21-29.54,12.41-49.42-31.97-57.6-52.89-13.56-34.66-24.33-69.99-36.65-105.11-4.04-11.53-9.77-29.25-18.15-38.01-4.45-4.65-7.89-7.14-14.76-5.84-5.09.96-12.16,3.69-12.32,9.64-.09,3.09.95,10.9,1.41,14.35,6.19,46.68,19.71,89.35,31.11,134.62,5.16,20.5,19.84,59.99-2.57,74.75-26.9,17.71-52.87-22.75-64.27-42.14-6.12-10.41-11.42-21.97-17.8-32.19-9.2-14.72-20.51-28.02-30.57-42.01-3.01-4.18-4.05-9.91-9.51-11.03-6.33-1.3-12.43,1.8-16.09,6.88-3.23,4.49-4.78,10.25-3.83,15.73.73,4.2,7.34,17.31,9.55,22.01,10.32,22.02,22.54,43.91,33.82,65.48,7.55,14.44,18.73,32.02,23.63,46.9,2.99,9.08,4.88,18.45,1.67,27.74-.37,1.07-4,8.86-4.39,9.3-1.97,2.23-13.58,6.37-16.84,6.48-15.66.51-35.21-19.88-44.8-31.19-12.29-14.49-29.16-37.88-45.39-47.74-5.09-3.09-17.21-6.44-21.71-1.55-13.45,14.62,6.54,41.39,16.44,53.4,17.11,20.76,35.42,41.05,52.46,61.55ZM404.45,54.1c-1.59-4.89-3.29-10.74-5.57-15.31-.32-.65-2.15-5.05-3.32-3.86l3.99,10.04,4.91,9.12ZM411.98,106.15l-.69-20.19-2.04-11.99c.93,3.5-1.04,6.32-1.39,9.22-.65,5.36,1.23,16.05,2.66,21.38.32,1.18-.48,1.9,1.46,1.58ZM253.82,97.93c-2-6.36-3.96-12.91-6.66-19.02-.37-.83-.34-2.03-1.55-2.21l6.5,19.17,1.7,2.06ZM198.36,101.35l-.76-13.27-2.65-10.7,2.14,18.74,1.27,5.23ZM342.15,77.39v12.67c0,.59.55,3.5.68,4.79.06.6,1.29.65,1.38,0-.94-3.97-1.32-8.24-.74-12.22l-1.33-5.24ZM201.1,136.97c-3-11.61-5.54-23.63-9.1-35.07-.22-.72-.18-2.07-1.16-1.91l3.61,15.9,6.64,21.08ZM346.25,142.45c1.68-9.9-.57-19.84-1.46-29.7l-1.27-5.91c.62,9.45.7,18.88.69,28.41l2.04,7.2ZM414.72,134.92l-1.37,1.02c2.43,21.37,2.05,42.9,5,64.19l3.22,11.5c.09-2.68-1.15-5.27-1.35-7.88-.42-5.34.51-10.66-.02-16.42-.98-10.65-3.81-21.51-4.78-32.2-.58-6.4-.29-13.7-.7-20.19ZM106.62,152.72c-.46-3.19-5.06-3.51-7.52-2.73.38,1.39,7.23,3.01,7.52,2.73ZM134.01,176.7l-12.73-18.42-5.06-2.81c.64,4.68,5.29,6.9,7.83,10.31,1.47,1.98,2.2,4.94,4.12,6.83,1.67,1.66,4.14,2.39,5.84,4.08ZM80.6,160.95c-5.76,2.3-4.68,11.48-3.41,16.43l1.56-10.41,1.85-6.02ZM218.9,184.23l-2.9-10.45-4.62-10.09c1.35,5.78,3.64,12.86,5.97,18.33.36.84.37,2.02,1.55,2.21ZM220.96,215.73l-8-31.37-3.62-7.67,1.85,9.44,9.77,29.6ZM288.74,191.07c.35-.39-2.15-8.82-2.56-10.11-.26-.83-.51-2.9-1.54-2.9,1.25,3.66,1.34,7.66,2.07,11.27.22,1.09,1.34,2.5,2.03,1.73ZM345.57,202.38c.32,5.74,0,12,0,17.81,0,.56-1.97,3.94,0,4.45.89-8.96,1.84-17.81,0-26.7-1.95.54-.03,3.77,0,4.45ZM166.18,229.43l-15.05-26.03c.9,6.33,4.36,10.45,7.39,15.54,2.2,3.7,3.47,8.53,7.66,10.48ZM91.52,210.29c-.46.92-3.29-.78-2.69.98.57,1.68,3.04,4.24,4.01,6.26,4.49,9.29,6.22,19.95,13.77,27.65-5.08-11.58-11.7-22.66-15.1-34.9ZM231.23,232.85l-5.46-19.17,1.71,8.21,3.76,10.96ZM422.25,235.59v-5.81s-1.36-5.14-1.36-5.14v4.44s1.36,6.51,1.36,6.51ZM567.4,234.92c-6.32-.22-13.28,1.53-19.14,3.79-3.87,1.49-6.36,2.42-8.24,6.47l10.78-5.99,16.61-4.27ZM235.34,262.65c.48-4.2,0-9.96,0-14.38,0-1.67-1.98-5.81-2.06-7.87-1.16-.13-.74,2.36-.71,3.11.33,7.02,2.37,14.22,1.41,21.54.73.26,1.33-2.12,1.36-2.39ZM325.03,246.56c-4.52.88-7.48-2.9-11.64-3.42,1.65,2.61,9.4,6.28,11.64,3.42ZM122.37,266.42l-7.52-15.06c1.43,5.09,4.29,10.9,7.52,15.06ZM432.52,280.11c.8-4.37-1.23-8.14-1.86-12.17-.5-3.21-.51-6.85-1.04-9.91-.2-1.15-.66-4.17-1.87-4.62-.95,6.61,1.24,12.19,2.57,18.31.55,2.54-.35,6.67,2.21,8.4ZM583.14,276.68c1.81-7.42,4.7-14.82,4.11-22.59l-4.62,20.37.51,2.22ZM521.54,272.58l8.89-11.64c-3.74,3.02-7.68,6.79-8.89,11.64ZM470.87,316.41c7.88-.67,14.89-4.62,20.87-9.6,6.93-5.77,15.76-19.23,20.77-27.17,1.96-3.1,4.36-6.86,4.92-10.48-12.23,14.83-17.31,32.8-35.24,42.48l-11.31,4.77ZM142.91,303.4c-.15-5.9-4.53-9.45-6.96-13.92-3.61-6.64-6.04-14.22-11.52-19.63,3.1,8.51,7.43,16.39,11.5,24.45l6.98,9.11ZM214.11,282.86c-2.44.2-6.31-2.96-8.21-1.03,1.68.54,3.44,1.35,5.19,1.65.67.11,3.16.6,3.02-.62ZM142.91,317.1c-.05-.05-1.45-.25-1.35.33,1.39,3.52,2.2,7.27,3.59,10.8.29.72.2,2.04,1.18,1.88-.62-1.72-2.93-12.55-3.42-13.01ZM563.99,326c2.77-1.72,3.54-5.97,4.78-8.9-2.54,2.11-4.15,5.72-4.78,8.9ZM37.47,343.81l-4.48-9.55c-4.96-2.1-6.71-6.99-10.57-10.31l10.67,16.38,4.38,3.49ZM75.12,388.33c-1.44-3.51-5.32-6.06-7.88-8.89-7.53-8.33-14.59-17.13-22.24-25.35-.08,1.29,1.05,2.36,1.77,3.36,1.58,2.18,3.67,4.86,5.4,6.93,3.57,4.26,8.14,9.29,11.97,13.37,3.46,3.69,7.19,7.23,10.97,10.6ZM101.83,415.04c-.64-1.88-2.78-4.32-4.12-5.8-.99-1.09-2.1-2.39-3.4-3.1.76,3.74,4.84,6.43,7.52,8.9ZM510.58,442.43c3.23-4.17,6.09-9.97,7.52-15.06l-7.52,15.06ZM136.06,459.55c-.87-2.05-2.7-4.82-4.12-6.49-.97-1.14-2.45-3.06-4.09-3.09-1.18,1.27,6.82,8.67,8.21,9.58ZM462.66,517.08c6.86-5.3,11.38-12.75,16.02-19.92,5.76-8.9,12.5-19.94,17.19-29.38.92-1.86,3.58-5.22,1.35-6.85-6.96,14.31-14.9,28.09-23.75,41.3l-10.82,14.85ZM153.18,480.79c-2.49-6.57-9.09-11.81-13.68-17.12,3.04,6.55,8.42,12.26,13.68,17.12ZM169.61,490.37c-6.93-7.45-12.98-15.72-20.53-22.59.44,1.75,2.27,3.7,3.43,5.12,3.16,3.85,7.16,8.41,10.59,12.01.81.86,5.68,6.2,6.51,5.46ZM196.32,526.67c1.3-1.29-19.86-21.61-21.9-23.28.09,1.53,0,2.8.96,4.11,3.09,4.24,9.35,8.37,12.72,12.68l8.23,6.49ZM216.86,539.68l-8.89-7.53c-1.04,1.11,7.09,7.85,8.89,7.53ZM333.93,575.3h-16.43c-.05.44.91,1.37,1.03,1.37h13.69c.43,0,2.31-1.1,1.71-1.37ZM375.01,575.31c-4.16.51-8.42.85-12.57,1.46-1.08.16-4.12.3-4.54,1.27,4.58-.46,9.4-.62,13.93-1.47.84-.16,3.19-.16,3.18-1.26Z"/>
</svg>