<?xml version="1.0" encoding="UTF-8"?>
<svg id="Layer_1" data-name="Layer 1" xmlns="http://www.w3.org/2000/svg" viewBox="0 0 540.17 581.8">
  <defs>
    <style>
      .cls-1 {
        fill: #fff5f9;
      }
    </style>
  </defs>
  <path class="cls-1" d="M135.97,369.78c-21.36-26.11-43.2-53.75-63.09-81.19-34.19-47.17-50.2-103.28-29.45-159.99,3.34-9.12,7.75-19.56,12.39-27.1,1-1.62,2.34-3.7,3.07-5.38,3.28-7.51.52-8.98,7.35-15.21,34.17-31.15,67.04-31.76,109.01-16.03,40.86,15.31,59.77,46.24,76.75,84,10.84,24.1,14.36,49.69,16.28,75.86,4.62-16.36,6.92-33.49,12.43-49.62,8.92-26.11,30.65-61,51-79.67,3.3-3.03,12.78-8.95,14.65-11.67,2.69-3.89,1.1-5.24,6.02-9.96,44.55-42.62,110.67-19.15,137.4,30.88,40.65,76.11-2.58,169.56-48.65,232.77-28.7,39.39-65.85,73.9-97.17,111.52-17.83,21.41-33.88,44.41-51.74,65.77-2.34,2.8-12.24,15.17-14.71,15.4-1.01.09-1.63-.52-2.24-1.2-26.57-42.62-64.62-74.05-98.18-110.53-14.45-15.71-28.01-32.6-41.14-48.64ZM155.03,64.91c-8.75-2.97-18.02-4.22-27.24-3.76l22.2,4.58,5.05-.81ZM398.47,69.6h17.39c1.51,0,8.67,1.82,10.82,2.34,3.18.77,6.32,2.19,9.38,3.3.31-2.1-1.61-3.05-3.09-3.95-7.86-4.82-20.34-4.58-29.22-3.45-1.14.14-5.14.41-5.28,1.77ZM68.58,109.09c.77.9,14.14-16.49,15.49-17.88l14.57-15.03c-12.92,7.74-23.76,19.15-30.06,32.91ZM272.68,268.76c-1.73-1.03-11.81-33.24-13.33-37.9-11.37-34.74-20.26-70.77-38.03-102.99-20.4-36.99-72.57-63.52-112.96-41.51-38.39,20.92-41.19,64.86-36.95,104.03,2.22,20.54,12.5,40.15,18.57,59.46,2.89,9.18,14.97,27.94,20.5,36.84,38.25,61.55,86.01,112.89,131.01,168.87,10.91,13.57,19.96,27.61,30.25,41.19.61.8.87,1.86,2.18,1.58,14.84-21.65,30.36-42.88,46.16-63.84,24.47-32.45,49.5-64.59,74.25-96.84,16.46-21.45,34.44-40.44,47.53-64.34,13.89-25.36,24.54-53.12,27.91-82.08,5.02-43.01-14.67-92.42-58.19-107.02-10.13-3.4-30.46-5.15-39.75.59-4.55,2.81-21.43,19.89-26.03,24.73-30.06,31.66-46.94,72.71-58.92,114.05-2.02,6.98-3.03,16.82-5.19,23.01-.57,1.65-2.54,2.59-3.12,4.4-1.03,3.19.08,16.49-1.41,17.86-.27.25-3.87.27-4.49-.1ZM492.45,166.44c-.05-13.31-5.07-27.69-10.46-39.82-6.68-15.04-16.2-28.7-28.99-39.15l19.18,27.34c10.8,15.15,13.58,31.23,18.36,48.39.36,1.29.12,2.92,1.92,3.24ZM332.69,115.67c6.35-6.3,14.04-13.42,19.73-20.21.89-1.06,2.28-1.53,1.87-3.29-8.11,5.93-17.33,14.34-21.6,23.5ZM62.93,122.26c-2.14-2.24-7.75,10.71-8.23,11.97-8.56,22.41-7.32,49.77-1.15,72.63l-.05-43.75c1.32-4,.49-8.36.99-12.17,1.33-10.07,5.68-19.04,8.44-28.68ZM466.13,257.63c2.31-8.42,6.34-16.25,8.72-24.66,6.16-21.73,6.22-45.91,6.32-68.41l-1.86,8c1.01,21.08-2.46,41.68-7.6,61.97-1.7,6.7-4.55,13.76-6.09,20.24-.23.95-1.24,3.08.51,2.86ZM54.46,239.77l-12.2-43.24c1.74,13.38,5.6,28.03,10.57,40.66.39,1,.27,2.8,1.63,2.58ZM77.02,254.82c-2.54-15.04-9.53-29.27-12.5-44.38l-1.58-2.62c1.24,10.44,4.09,20.79,7.26,30.8,1.64,5.19,3.2,12.38,6.82,16.2ZM107.1,313.11c-2.24-4.98-5.41-10.04-8.42-14.6-2.61-3.95-5.54-8.01-8.48-11.73,4.18,9.26,9.37,19.38,16.9,26.32ZM361.82,406.19c18.16-13.62,30.23-33.56,44.54-50.87l31.57-43.15c-18.07,16.65-32.66,36.68-48.31,55.55l-27.8,38.47ZM415.39,357.3l6.94-7.62,15.6-22.47c-5.94,6.44-11.15,13.73-16.34,20.78-2.12,2.87-5.01,5.96-6.2,9.3ZM139.05,357.3l-12.94-17.6-3.03-2.14c.89,1.78,15.04,20.74,15.97,19.73ZM339.26,420.29c3.2-2.46,5.93-5.83,8.42-8.96.95-1.2,7.22-9.15,6.6-9.85l-3.72,3.32-11.3,15.48ZM233.04,464.48c-.6-2.46-3.1-4.99-4.71-7.03-6.87-8.7-15.35-19.18-25.34-24-.41,1.76.98,2.24,1.87,3.29,8.06,9.62,19.39,18.61,28.19,27.73Z"/>
</svg>