<?xml version="1.0" encoding="UTF-8"?>
<svg id="Layer_1" data-name="Layer 1" xmlns="http://www.w3.org/2000/svg" viewBox="0 0 238.22 238.22">
  <defs>
    <style>
      .cls-1 {
        fill: #fff;
      }

      .cls-2 {
        fill: #ff2f8e;
      }
    </style>
  </defs>
  <rect class="cls-2" x="0" width="238.22" height="238.22" rx="24.22" ry="24.22"/>
  <path class="cls-1" d="M73.56,152.69c-8.71-8.64-17.65-17.82-25.88-27-14.14-15.78-22.04-35.47-16.67-56.77.86-3.43,2.07-7.37,3.46-10.27.3-.62.71-1.43.91-2.06.9-2.84-.15-3.27,2.09-5.78,11.19-12.55,23.06-14.01,38.83-9.9,15.36,4,23.36,14.48,30.92,27.5,4.83,8.31,7.06,17.44,8.74,26.83,1.06-6.09,1.24-12.37,2.63-18.42,2.25-9.78,8.79-23.22,15.45-30.74,1.08-1.22,4.29-3.72,4.86-4.77.83-1.51.2-1.94,1.81-3.83,14.51-17.09,39.32-11.09,50.87,6,17.57,26,5.44,61.44-8.85,86.04-8.9,15.33-21.04,29.21-30.96,44-5.64,8.42-10.59,17.34-16.24,25.74-.74,1.1-3.86,5.95-4.74,6.12-.36.07-.61-.13-.85-.35-11.22-14.42-26.16-24.36-39.67-36.29-5.82-5.14-11.36-10.74-16.71-16.05ZM68.99,41.68c-3.28-.74-6.68-.85-10-.34l8.2.82,1.8-.48ZM157.23,34.23l6.29-.65c.54-.06,3.2.33,4,.44,1.18.16,2.37.56,3.52.84.03-.77-.7-1.04-1.27-1.31-3.03-1.45-7.53-.89-10.7-.15-.41.1-1.85.34-1.84.84ZM39.38,60.92c.31.3,4.49-6.5,4.93-7.05l4.71-5.99c-4.38,3.29-7.88,7.82-9.64,13.03ZM119.22,111c-.66-.31-5.52-11.58-6.25-13.21-5.42-12.14-9.99-24.84-17.63-35.83-8.77-12.61-28.64-20.25-42.43-10.77-13.1,9.01-12.46,25.01-9.46,39.02,1.58,7.35,6.03,14.05,8.95,20.81,1.39,3.21,6.47,9.55,8.8,12.56,16.15,20.83,35.36,37.6,53.74,56.16,4.46,4.5,8.26,9.24,12.49,13.76.25.27.38.64.85.49,4.55-8.39,9.37-16.65,14.3-24.83,7.63-12.66,15.48-25.23,23.22-37.82,5.15-8.38,10.94-15.93,14.77-25.06,4.07-9.7,6.88-20.14,7.01-30.74.2-15.75-8.78-32.88-25.08-36.53-3.79-.85-11.21-.72-14.36,1.71-1.54,1.19-7,8-8.49,9.93-9.68,12.58-14.25,28.07-17.03,43.48-.47,2.6-.47,6.2-1.01,8.52-.15.62-.82,1.03-.96,1.71-.25,1.19.65,5.96.16,6.51-.09.1-1.39.24-1.63.13ZM194.87,65.72c-.52-4.81-2.88-9.83-5.28-14.01-2.98-5.19-6.94-9.78-11.96-13.07l7.97,9.17c4.48,5.07,6.09,10.79,8.46,16.82.18.45.15,1.05.82,1.1ZM135.17,53.37c2.06-2.52,4.57-5.38,6.38-8.05.28-.42.77-.64.55-1.26-2.71,2.45-5.73,5.84-6.93,9.31ZM37.83,65.89c-.86-.73-2.4,4.17-2.53,4.64-2.26,8.43-.78,18.28,2.31,26.32l-1.66-15.83c.33-1.49-.14-3.04-.1-4.44.1-3.69,1.34-7.1,1.98-10.69ZM188.78,99.7c.52-3.13,1.68-6.12,2.23-9.25,1.41-8.09.53-16.84-.29-24.98l-.37,2.96c1.16,7.59.68,15.17-.42,22.7-.36,2.49-1.13,5.15-1.44,7.55-.05.35-.33,1.16.29,1.02ZM39.19,108.72l-6.04-15.18c1.13,4.77,3.08,9.93,5.35,14.31.18.35.2,1,.68.87ZM47.91,113.32c-1.48-5.34-4.55-10.23-6.19-15.59l-.67-.89c.84,3.73,2.26,7.37,3.78,10.87.79,1.82,1.62,4.36,3.08,5.6ZM60.98,133.27c-1-1.72-2.34-3.43-3.6-4.96-1.09-1.33-2.3-2.69-3.51-3.92,1.86,3.19,4.12,6.66,7.1,8.89ZM156.63,157.37c6.06-5.61,9.67-13.28,14.2-20.08l9.8-16.8c-5.91,6.7-10.44,14.5-15.39,21.91l-8.61,14.96ZM174.18,137.67l2.22-3.02,4.8-8.71c-1.91,2.55-3.52,5.39-5.13,8.13-.66,1.12-1.59,2.35-1.89,3.6ZM74.21,148.06l-5.34-5.88-1.17-.66c.39.61,6.22,6.94,6.52,6.54ZM149,163.32c1.06-1.01,1.93-2.33,2.71-3.56.3-.47,2.27-3.58,2.02-3.81l-1.22,1.34-3.5,6.03ZM112.24,183.3c-.31-.87-1.31-1.69-1.97-2.37-2.81-2.89-6.28-6.36-10.07-7.73-.08.65.44.77.8,1.12,3.28,3.18,7.72,6,11.24,8.97Z"/>
</svg>