<?xml version="1.0" encoding="UTF-8"?>
<svg id="Layer_1" data-name="Layer 1" xmlns="http://www.w3.org/2000/svg" viewBox="0 0 238.22 238.22">
  <defs>
    <style>
      .cls-1 {
        fill: #fff;
      }

      .cls-2 {
        fill: #ff2f8e;
      }
    </style>
  </defs>
  <rect class="cls-2" x="0" width="238.22" height="238.22" rx="24.22" ry="24.22"/>
  <g>
    <path class="cls-1" d="M167.65,55.53c13.46,11.49,27.72,22.15,40.88,33.96,1.1.99,7.49,6.85,7.57,7.67s-3.64,4.3-4.49,4.62c-2.78,1.04-5.91-4.32-8.34-5.32.26,1.33-.26,2.89-.27,4.08-.07,20.4-.1,40.86-.25,61.31-.1,12.93.61,25.97-.01,38.92-.05,1.11-.18,3.42-.42,4.38-.47,1.86-1.78,2.59-3.66,2.62-2.53.03-5.6-.51-8.14-.56-14.39-.28-28.79.49-43.17.55-21.78.08-43.63-.73-65.51-.55-12.52.11-25.9,1.01-38.4,0-2.05-.17-7.4-.36-8.12-2.67-.53-24.56.28-49.17.1-73.76-.06-8.62-.29-17.13-.55-25.76-.06-2.08.33-5.24.01-7.11-.04-.23-.2-.63-.39-.64-1-.08-5.09,2.92-6.44,3.28-.58.16-1.01.21-1.6,0-.68-.23-4.52-4.64-4.33-5.44.48-2.05,8.6-6.99,10.63-8.55,12.53-9.61,24.07-20.54,36.21-30.61,9.49-7.88,19.78-14.84,29.12-22.9,6.11-5.27,12.15-11.31,18.5-16.3,1.09-.85,3.23-2.68,4.6-2.27,1.56.46,4.92,4.65,6.45,5.94,13.58,11.36,26.52,23.58,40.02,35.1ZM128.38,31.92c-1.71-1.55-3.23-3.39-4.97-4.9-.51-.45-2.34-2.06-2.77-2.25-.35-.16-.41-.17-.77,0-.6.28-3.83,3.71-4.74,4.49-20.08,17.29-41.19,33.59-61.71,50.37-1.56,1.27-10.69,7.69-10.88,8.86-.04.24.46.71.52,1.26.25,2.29-.08,5.25-.03,7.65.7,29.91.01,60.03-.26,89.95-.03,3.1-.31,7.83.33,10.74.28,1.29,1.58,1.42,2.7,1.51,8.74.73,19.2-.13,28.17-.02,32.29.39,64.76.63,97.08.26,7.12-.08,14.47-.64,21.55-.24,1.96.11,2.09-.2,2.26-2.23.59-7.3.2-16.68.26-24.2.21-23.79-.61-47.55-.29-71.32.03-1.95.52-4.38.54-6.32.01-1.17-.15-5.01-.39-5.91s-1.52-2.09-2.24-2.76c-4.56-4.25-9.97-8.04-14.74-12.09-16.66-14.13-33.42-28.18-49.63-42.85ZM134.6,29.38c-.23-.38-2.3-2.68-2.63-2.36-.01.45.67,1.01,1,1.3.42.37,1.07,1.01,1.63,1.06ZM133.81,34.11c-1.07-1.51-7.64-6.98-2.9-2.23l2.9,2.23ZM199.58,95.41v5.79c.4-.03.35-1.2.37-1.54.04-.73-.24-1.48.1-2.27l-.47-1.97ZM201.69,99.89v-3.81s-.36-.41-.53-.39v3.81s.36.41.53.39ZM38.31,112.78v-7.37l-.54,3.54c.06.96-.07,1.93.04,2.88.03.26.11.99.5.94ZM196.69,115.94v-4.21c-.39-.02-.46.94-.49,1.22-.09.79-.33,2.55.49,2.99ZM39.89,120.41v-7.63h-.26v7.63h.26ZM198.53,120.41v-6.05l-.54,4.06c.19.57-.46,2.2.54,1.99ZM200.9,130.93v-7.89h-.26v7.89h.26ZM196.95,152.24v-6.05h-.26v6.05h.26ZM37.52,168.55v-6.45c0-.23-.49-.95-.27-1.45h-.26s0,7.89,0,7.89h.53ZM40.94,164.34v7.76c0,.06.58.92.79.92.2-2.78-.36-5.51-.26-8.29l-.53-.39ZM200.1,174.87v-2.23s-.52-2.24-.52-2.24c.06,1.16-.1,2.51.06,3.64.05.36-.06.72.47.83ZM38.31,178.29v4.6s.35.41.52.39l.02-1.2-.54-3.8ZM54.36,201.17h-4.74l3.85.51.88-.51ZM162.09,201.44c-2.22-.25-5.29,0-7.63,0-.16,0-.59.37-.92.27v.26s9.73,0,9.73,0v-.26c-.45.15-.91-.23-1.18-.27ZM69.35,201.7h-7.1v.26h7.1v-.26ZM113.29,202.23c-.26-.86-.74-.26-.92-.26h-6.18v.26h7.1ZM131.44,204.07h4.34c.16,0,.59-.37.92-.27l-.66-.27-4.6.54ZM74.62,204.86h5.52l-1.72-.5-3.8.5ZM128.29,204.33h-6.45c-.06,0-.48.46-.39.52.43.19.98-.26,1.18-.26h5.66v-.26ZM173.8,204.59h-5.52v.26h5.52v-.26ZM71.46,205.38h-5.92s-.41.35-.39.52l1.72.02,4.59-.54ZM51.99,205.65h-7.37v.26h7.37v-.26ZM93.03,205.65h-5.52l3.58.5,1.95-.5ZM113.03,205.65h-9.21v.26c.49-.22,1.21.27,1.45.27h6.31c.23,0,.95-.49,1.45-.27v-.26ZM153.54,205.65h-14.47c-.06.46.59.25.92.26,3.16.13,6.35-.27,9.47.29l4.08-.55Z"/>
    <path class="cls-1" d="M93.12,163.2c-13.1-13.65-33.33-37.05-22.4-57.08,8.84-16.2,29.64-13.96,40.63-1.41,3.77,4.31,5.24,7.97,7.93,12.72.17.29.29.66.71.61,2.08-4.4,4.64-9.78,7.89-13.42,8.89-9.95,27.23-17.35,37.63-5.52,6.22,7.08,6.23,18.57,4.52,27.42-2.32,11.99-15.59,28.76-24.25,37.31-2.69,2.65-5.82,4.9-8.56,7.49-3.79,3.57-7.47,7.59-11.31,11.06-.8.73-4.08,3.62-4.82,3.87-1.29.45-4.44-2.22-5.45-3.08-4.51-3.88-8.69-8.18-13.15-12.11-3.08-2.71-6.5-4.85-9.38-7.85ZM131.29,167.87c11.45-9.96,28.38-28.23,31.91-43.2,2.05-8.71.47-20.7-9.04-24.23s-21.3,7.96-25.83,15.41c-2.12,3.49-3.99,8.89-6.25,11.9-.3.4-1.08,1.23-1.51,1.41-.56.24-2.39.28-2.79-.23-1.2-1.55-2.13-5.02-3.09-6.91-5.58-11.07-16.75-23.91-30.56-19.31-6.22,2.07-9.72,10.93-9.23,17.01,1.78,22.19,29.64,42.2,44.05,57.25.21.22.37.48.39.8,4.01-3.21,8.06-6.51,11.94-9.89ZM72.77,113.3l1.05-3.94c-.63.51-1.08,2.03-1.25,2.83-.06.26-.29,1.17.2,1.12ZM74.61,130.4c-.33-1.16-.68-2.37-1.12-3.49-.11-.28-.08-.78-.45-.72.17,1.34.55,3.28,1.57,4.21Z"/>
  </g>
</svg>