<?xml version="1.0" encoding="UTF-8"?>
<svg id="Layer_1" data-name="Layer 1" xmlns="http://www.w3.org/2000/svg" viewBox="0 0 1286.7 388.25">
  <defs>
    <style>
      .cls-1 {
        fill: #ffcf00;
      }

      .cls-2 {
        fill: #84d40f;
      }

      .cls-3 {
        fill: #06a9e7;
      }

      .cls-4 {
        fill: #ff2f8e;
      }

      .cls-5 {
        fill: #1e1e1e;
      }
    </style>
  </defs>
  <g>
    <path class="cls-5" d="M421.05,172.99l-16.84,49.05h-35.12L445.42,14.52h36.29l76.04,207.53h-35.12l-16.84-49.05h-84.75ZM496.51,144.25l-32.51-98.1h-.58l-32.79,98.1h65.88Z"/>
    <path class="cls-5" d="M651.02,71.12v28.73h-.58c-29.32-4.93-52.83,14.81-52.83,46.44v75.76h-30.48V73.73h30.48v27.86h.58c7.85-18.58,20.03-31.35,39.48-31.35,5.22,0,8.99.28,13.35.87"/>
    <path class="cls-5" d="M663.27,32.51c0-10.46,8.71-15.97,17.12-15.97,9,0,17.42,5.51,17.42,15.97s-8.41,16.25-17.42,16.25c-8.41,0-17.12-5.8-17.12-16.25M695.77,222.04h-30.47V73.73h30.47v148.31Z"/>
    <polygon class="cls-5" points="793.91 99.27 793.91 98.69 719.32 98.69 719.32 73.73 834.83 73.73 834.83 94.04 753.27 196.49 753.27 197.08 838.03 197.08 838.03 222.04 714.09 222.04 714.09 199.4 793.91 99.27"/>
    <path class="cls-5" d="M913.86,226.39c-46.44,0-74.6-32.21-74.6-78.36s28.16-78.37,74.6-78.37,74.59,32.21,74.59,78.37-28.15,78.36-74.59,78.36M913.86,201.43c29.02,0,44.11-22.92,44.11-53.4s-15.09-53.41-44.11-53.41-44.12,22.64-44.12,53.41,15.09,53.4,44.12,53.4"/>
    <path class="cls-5" d="M1131.62,119.58v102.46h-30.76v-93.75c0-20.02-8.42-32.79-29.32-32.79-23.51,0-38.61,14.21-38.61,36.28v90.27h-30.47V73.73h30.47v19.16h.58c7.85-11.62,23.22-23.22,48.77-23.22,27.57,0,49.33,15.96,49.33,49.91"/>
    <path class="cls-5" d="M1215.29,93.75c-24.38,0-33.38,7.55-34.82,26.7h-29.61c1.45-28.44,19.75-50.79,64.44-50.79,32.8,0,57.18,12.48,57.18,51.95v70.53c0,10.45,2.32,15.97,14.23,14.81v14.51c-6.97,2.61-11.91,3.19-17.71,3.19-16.25,0-23.8-5.8-26.7-20.31h-.59c-9.29,13.06-26.12,22.05-49.05,22.05-30.18,0-48.76-17.4-48.76-42.37,0-32.51,24.09-42.66,61.25-49.91,22.92-4.36,36.85-7.26,36.85-21.48,0-10.74-6.38-18.87-26.71-18.87M1242,165.73v-22.35c-4.94,3.48-16.84,6.96-31.05,9.87-25.25,5.51-36.29,12.76-36.29,27.86,0,13.64,8.13,21.19,24.67,21.19,25.25,0,42.67-12.48,42.67-36.57"/>
    <polygon class="cls-5" points="413.41 271.18 413.41 280.75 384.42 280.75 384.42 309.27 373.25 309.27 373.25 242.19 420.16 242.19 420.16 251.67 384.42 251.67 384.42 271.18 413.41 271.18"/>
    <path class="cls-5" d="M450.21,267.8c-7.88,0-10.78,2.44-11.25,8.63h-9.58c.47-9.19,6.38-16.41,20.83-16.41,10.6,0,18.48,4.03,18.48,16.79v22.8c0,3.37.76,5.16,4.59,4.78v4.7c-2.24.84-3.84,1.03-5.72,1.03-5.26,0-7.7-1.88-8.64-6.56h-.18c-3,4.22-8.44,7.13-15.86,7.13-9.75,0-15.76-5.62-15.76-13.7,0-10.51,7.78-13.78,19.79-16.13,7.41-1.41,11.92-2.35,11.92-6.94,0-3.47-2.06-6.1-8.63-6.1M458.84,291.07v-7.23c-1.59,1.12-5.44,2.26-10.04,3.2-8.16,1.78-11.72,4.12-11.72,9.01,0,4.4,2.63,6.84,7.98,6.84,8.16,0,13.78-4.03,13.78-11.81"/>
    <path class="cls-5" d="M553.62,276.16v33.11h-9.94v-30.31c0-6.47-1.31-10.6-8.07-10.6s-10.78,4.59-10.78,11.73v29.17h-9.94v-30.31c0-6.47-1.32-10.6-8.16-10.6s-10.79,4.59-10.79,11.73v29.17h-9.85v-47.94h9.85v6.2h.18c2.53-3.76,7.05-7.5,14.27-7.5,6.75,0,10.79,3.09,12.75,8.25h.2c3.56-4.59,8.25-8.25,15.66-8.25,9.66,0,14.63,5.81,14.63,16.13"/>
    <path class="cls-5" d="M569.79,248.02c0-3.38,2.82-5.17,5.54-5.17,2.91,0,5.64,1.79,5.64,5.17s-2.73,5.25-5.64,5.25c-2.72,0-5.54-1.88-5.54-5.25M580.3,309.27h-9.84v-47.94h9.84v47.94Z"/>
    <rect class="cls-5" x="596.83" y="242.2" width="9.94" height="67.07"/>
    <path class="cls-5" d="M646.57,312.27c-2.73,7.41-5.82,13.33-15.01,13.33-2.82,0-5.17-.47-7.03-.94v-7.5h.83c4.14.56,7.23.28,9.38-2.35,1.79-2.15,3.09-5.91,1.32-10.42l-17.36-43.06h10.6l13.42,36.69h.18l12.29-36.69h10.51l-19.13,50.94Z"/>
    <path class="cls-5" d="M732.16,250.35c-14.45,0-20.18,12.1-20.18,25.33s5.73,25.42,20.18,25.42c12.48,0,17.26-8.17,18.01-16.33h11.16c-1.5,15.1-11.81,25.9-28.9,25.9-19.32,0-31.52-14.73-31.52-34.99s12.2-34.9,31.52-34.9c16.98,0,27.3,10.79,28.9,24.49h-11.16c-1.23-6.75-5.62-14.92-18.01-14.92"/>
    <path class="cls-5" d="M797.5,310.68c-15.01,0-24.12-10.42-24.12-25.33s9.11-25.32,24.12-25.32,24.11,10.41,24.11,25.32-9.1,25.33-24.11,25.33M797.5,302.61c9.37,0,14.25-7.41,14.25-17.27s-4.88-17.26-14.25-17.26-14.26,7.31-14.26,17.26,4.88,17.27,14.26,17.27"/>
    <path class="cls-5" d="M877.27,276.16v33.11h-9.94v-30.31c0-6.47-2.73-10.6-9.48-10.6-7.6,0-12.48,4.59-12.48,11.73v29.17h-9.85v-47.94h9.85v6.2h.18c2.54-3.76,7.5-7.5,15.77-7.5,8.91,0,15.95,5.15,15.95,16.13"/>
    <path class="cls-5" d="M935.09,276.16v33.11h-9.94v-30.31c0-6.47-2.73-10.6-9.48-10.6-7.6,0-12.48,4.59-12.48,11.73v29.17h-9.85v-47.94h9.85v6.2h.18c2.54-3.76,7.5-7.5,15.77-7.5,8.91,0,15.95,5.15,15.95,16.13"/>
    <path class="cls-5" d="M984.64,294.64h9.85c-2.44,9.1-9.57,16.04-21.86,16.04-14.91,0-24.02-10.32-24.02-25.33s9.11-25.32,23.54-25.32c15.48,0,23.08,10.78,23.08,27.85h-36.77c0,8.07,5.16,14.73,13.89,14.73,8.16,0,11.45-5.06,12.28-7.97M958.47,280.57h26.93c0-7.41-5.26-12.76-13.23-12.76s-13.69,5.35-13.69,12.76"/>
    <path class="cls-5" d="M1030.18,268.09c-9.67,0-13.8,8.25-13.8,17.26s4.03,17.27,13.8,17.27c8.43,0,11.54-5.82,11.9-11.17h9.86c-.75,11.07-9.29,19.24-21.76,19.24-14.36,0-23.65-10.32-23.65-25.33s9.29-25.32,23.54-25.32c12.48,0,20.65,7.98,21.86,18.85h-9.86c-.37-4.87-3.47-10.78-11.9-10.78"/>
    <path class="cls-5" d="M1079.36,269.4v25.98c0,5.44,2.62,6.1,9.01,5.73v8.07c-1.97.47-4.12.75-6.75.75-7.88,0-12.2-3.56-12.2-13.69v-26.83h-6.94v-8.07h6.94v-15.1h9.94v15.1h9.01v8.07h-9.01Z"/>
    <path class="cls-5" d="M1102.55,248.02c0-3.38,2.82-5.17,5.53-5.17,2.91,0,5.64,1.79,5.64,5.17s-2.73,5.25-5.64,5.25c-2.71,0-5.53-1.88-5.53-5.25M1113.06,309.27h-9.84v-47.94h9.84v47.94Z"/>
    <path class="cls-5" d="M1151.73,310.68c-15.01,0-24.12-10.42-24.12-25.33s9.11-25.32,24.12-25.32,24.11,10.41,24.11,25.32-9.1,25.33-24.11,25.33M1151.73,302.61c9.37,0,14.25-7.41,14.25-17.27s-4.88-17.26-14.25-17.26-14.26,7.31-14.26,17.26,4.88,17.27,14.26,17.27"/>
    <path class="cls-5" d="M1231.5,276.16v33.11h-9.94v-30.31c0-6.47-2.73-10.6-9.48-10.6-7.6,0-12.48,4.59-12.48,11.73v29.17h-9.85v-47.94h9.85v6.2h.18c2.54-3.76,7.5-7.5,15.77-7.5,8.91,0,15.95,5.15,15.95,16.13"/>
    <path class="cls-5" d="M1286.7,295.76c0,9.19-7.88,14.92-19.51,14.92-15.48,0-22.15-7.23-22.62-17.36h9.57c.47,5.15,2.73,9.57,12.85,9.57,6.85,0,9.76-3.38,9.76-6.38,0-6-5.73-6.46-12.77-8.16-7.6-1.78-17.92-3.28-17.92-14.16,0-7.88,6.95-14.16,18.95-14.16,13.04,0,19.24,7.03,19.89,15.38h-9.57c-.65-3.75-2.53-7.6-10.23-7.6-5.9,0-9.1,2.26-9.1,5.62,0,4.88,5.35,5.26,12.29,6.85,8.81,2.06,18.39,4.04,18.39,15.48"/>
    <g>
      <path class="cls-5" d="M6.25,355.5h11.2c5.39,0,8.88,2.76,8.88,7.53,0,3.67-1.87,5.8-4.88,6.53v.07c6.05,1.14,3.85,11.42,5.25,11.87v.25h-4.59c-1.21-1.1,1.25-10.13-5.07-10.13h-6.42v10.13h-4.36v-26.25ZM10.61,367.87h5.91c2.69,0,5.48-.5,5.48-4.33s-2.79-4.33-5.48-4.33h-5.91v8.65Z"/>
      <path class="cls-5" d="M55.77,376.02h3.86c-.96,3.56-3.74,6.28-8.56,6.28-5.84,0-9.4-4.04-9.4-9.91s3.56-9.91,9.22-9.91c6.05,0,9.04,4.22,9.04,10.91h-14.4c0,3.15,2.02,5.77,5.43,5.77,3.2,0,4.48-1.99,4.81-3.13M45.53,370.52h10.54c0-2.9-2.06-5-5.18-5s-5.36,2.1-5.36,5"/>
      <path class="cls-5" d="M92.07,362.99v18.76h-3.86v-2.42h-.07c-.99,1.46-2.94,2.94-6.16,2.94-3.49,0-6.25-2.03-6.25-6.32v-12.96h3.9v11.86c0,2.54,1.06,4.15,3.7,4.15,2.97,0,4.88-1.8,4.88-4.58v-11.42h3.86Z"/>
      <path class="cls-5" d="M125.4,368.79v12.96h-3.9v-11.85c0-2.53-1.07-4.15-3.7-4.15-2.97,0-4.88,1.8-4.88,4.59v11.41h-3.86v-18.76h3.86v2.42h.07c.99-1.46,2.94-2.94,6.16-2.94,3.49,0,6.25,2.03,6.25,6.32"/>
      <path class="cls-5" d="M142.24,357.78c0-1.32,1.1-2.01,2.17-2.01,1.14,0,2.21.7,2.21,2.01s-1.07,2.06-2.21,2.06c-1.07,0-2.17-.74-2.17-2.06M146.35,381.75h-3.85v-18.76h3.85v18.76Z"/>
      <path class="cls-5" d="M168.98,366.15v10.18c0,2.12,1.03,2.38,3.52,2.24v3.15c-.77.18-1.61.29-2.64.29-3.08,0-4.77-1.39-4.77-5.36v-10.5h-2.72v-3.15h2.72v-5.91h3.88v5.91h3.52v3.15h-3.52Z"/>
      <path class="cls-5" d="M188.59,357.78c0-1.32,1.1-2.01,2.17-2.01,1.14,0,2.21.7,2.21,2.01s-1.07,2.06-2.21,2.06c-1.07,0-2.17-.74-2.17-2.06M192.7,381.75h-3.85v-18.76h3.85v18.76Z"/>
      <path class="cls-5" d="M226.25,368.79v12.96h-3.9v-11.85c0-2.53-1.07-4.15-3.7-4.15-2.97,0-4.88,1.8-4.88,4.59v11.41h-3.86v-18.76h3.86v2.42h.07c.99-1.46,2.94-2.94,6.16-2.94,3.49,0,6.25,2.03,6.25,6.32"/>
      <path class="cls-5" d="M259.95,362.99v17.48c0,5.39-3.27,7.78-8.6,7.78s-8.37-2.83-8.77-5.98h3.89c.37,1.66,1.69,2.9,4.74,2.9,3.22,0,4.88-1.48,4.88-4.84v-2.28h-.07c-.99,1.39-2.72,2.78-5.69,2.78-4.7,0-8.22-3.26-8.22-9.17s3.52-9.18,8.22-9.18c2.97,0,4.7,1.4,5.69,2.72h.07v-2.2h3.86ZM256.05,371.66c0-3.97-1.87-6.02-4.99-6.02-3.38,0-5.11,2.53-5.11,6.02s1.73,6.02,5.11,6.02c3.12,0,4.99-2.05,4.99-6.02"/>
      <polygon class="cls-5" points="313.31 366.85 313.31 370.59 301.96 370.59 301.96 381.75 297.6 381.75 297.6 355.5 315.95 355.5 315.95 359.22 301.96 359.22 301.96 366.85 313.31 366.85"/>
      <path class="cls-5" d="M338.26,365.52c-3.09,0-4.22.96-4.41,3.38h-3.74c.18-3.6,2.49-6.42,8.15-6.42,4.15,0,7.23,1.58,7.23,6.57v8.93c0,1.32.3,2.01,1.8,1.87v1.83c-.87.32-1.5.41-2.24.41-2.05,0-3.01-.74-3.38-2.58h-.07c-1.18,1.65-3.3,2.79-6.2,2.79-3.82,0-6.17-2.2-6.17-5.36,0-4.11,3.05-5.39,7.74-6.32,2.9-.55,4.66-.91,4.66-2.72,0-1.35-.8-2.38-3.37-2.38M341.63,374.63v-2.83c-.62.44-2.12.89-3.92,1.25-3.2.7-4.59,1.62-4.59,3.53,0,1.73,1.03,2.69,3.12,2.69,3.2,0,5.39-1.58,5.39-4.63"/>
      <path class="cls-5" d="M389.27,368.79v12.96h-3.88v-11.85c0-2.53-.52-4.15-3.16-4.15s-4.22,1.8-4.22,4.59v11.41h-3.89v-11.85c0-2.53-.52-4.15-3.19-4.15s-4.22,1.8-4.22,4.59v11.41h-3.86v-18.76h3.86v2.42h.07c1-1.46,2.75-2.94,5.57-2.94,2.65,0,4.22,1.21,5,3.24h.07c1.39-1.8,3.22-3.24,6.13-3.24,3.79,0,5.73,2.28,5.73,6.32"/>
      <path class="cls-5" d="M406.19,357.78c0-1.32,1.1-2.01,2.17-2.01,1.14,0,2.21.7,2.21,2.01s-1.07,2.06-2.21,2.06c-1.07,0-2.17-.74-2.17-2.06M410.3,381.75h-3.85v-18.76h3.85v18.76Z"/>
      <rect class="cls-5" x="427.28" y="355.5" width="3.9" height="26.25"/>
      <path class="cls-5" d="M447.9,357.78c0-1.32,1.1-2.01,2.17-2.01,1.14,0,2.21.7,2.21,2.01s-1.07,2.06-2.21,2.06c-1.07,0-2.17-.74-2.17-2.06M452.01,381.75h-3.85v-18.76h3.85v18.76Z"/>
      <path class="cls-5" d="M482.33,376.02h3.86c-.96,3.56-3.74,6.28-8.56,6.28-5.84,0-9.4-4.04-9.4-9.91s3.56-9.91,9.22-9.91c6.05,0,9.04,4.22,9.04,10.91h-14.4c0,3.15,2.01,5.77,5.43,5.77,3.2,0,4.48-1.99,4.81-3.13M472.09,370.52h10.54c0-2.9-2.06-5-5.18-5s-5.36,2.1-5.36,5"/>
      <path class="cls-5" d="M517.75,376.47c0,3.6-3.08,5.84-7.64,5.84-6.05,0-8.67-2.83-8.85-6.8h3.75c.18,2.03,1.06,3.75,5.02,3.75,2.69,0,3.82-1.32,3.82-2.49,0-2.35-2.24-2.54-5-3.2-2.97-.69-7.01-1.28-7.01-5.54,0-3.09,2.72-5.55,7.42-5.55,5.1,0,7.53,2.76,7.78,6.02h-3.74c-.26-1.46-.99-2.97-4-2.97-2.31,0-3.56.89-3.56,2.21,0,1.91,2.09,2.06,4.81,2.69,3.45.8,7.19,1.57,7.19,6.05"/>
      <polygon class="cls-5" points="570.01 366.85 570.01 370.59 558.66 370.59 558.66 381.75 554.29 381.75 554.29 355.5 572.65 355.5 572.65 359.22 558.66 359.22 558.66 366.85 570.01 366.85"/>
      <path class="cls-5" d="M595.49,382.3c-5.87,0-9.43-4.08-9.43-9.91s3.56-9.91,9.43-9.91,9.44,4.08,9.44,9.91-3.57,9.91-9.44,9.91M595.49,379.15c3.68,0,5.59-2.9,5.59-6.76s-1.9-6.75-5.59-6.75-5.58,2.85-5.58,6.75,1.91,6.76,5.58,6.76"/>
      <path class="cls-5" d="M631.55,362.67v3.63h-.07c-3.7-.62-6.68,1.87-6.68,5.87v9.58h-3.86v-18.76h3.86v3.52h.07c.99-2.35,2.53-3.97,4.98-3.97.66,0,1.14.04,1.69.12"/>
      <path class="cls-5" d="M672.52,375.54l-2.13,6.21h-4.45l9.66-26.25h4.59l9.61,26.25h-4.45l-2.12-6.21h-10.72ZM682.06,371.91l-4.11-12.41h-.07l-4.15,12.41h8.33Z"/>
      <path class="cls-5" d="M745.71,374.63c0,4.18-3.17,7.67-9.77,7.67s-11.3-3.34-11.57-9.29h4.37c.22,3.34,2.49,5.55,7.19,5.55,3.89,0,5.39-1.73,5.39-3.75,0-3.12-2.24-3.71-7.42-4.99-4.1-1.03-8.54-2.61-8.54-7.6,0-4.66,3.6-7.28,9.33-7.28s9.95,3.02,10.31,8.41h-4.36c-.41-3.04-2.31-4.66-5.94-4.66-3.13,0-5,1.18-5,3.12,0,2.86,2.47,3.38,6.14,4.29,5.61,1.44,9.88,2.65,9.88,8.52"/>
      <path class="cls-5" d="M767.36,366.15v10.18c0,2.12,1.03,2.38,3.52,2.24v3.15c-.77.18-1.61.29-2.64.29-3.08,0-4.77-1.39-4.77-5.36v-10.5h-2.72v-3.15h2.72v-5.91h3.88v5.91h3.52v3.15h-3.52Z"/>
      <path class="cls-5" d="M797.58,362.67v3.63h-.07c-3.7-.62-6.68,1.87-6.68,5.87v9.58h-3.86v-18.76h3.86v3.52h.07c.98-2.35,2.53-3.97,4.98-3.97.66,0,1.14.04,1.69.12"/>
      <path class="cls-5" d="M821.16,382.3c-5.87,0-9.43-4.08-9.43-9.91s3.56-9.91,9.43-9.91,9.44,4.08,9.44,9.91-3.57,9.91-9.44,9.91M821.16,379.15c3.68,0,5.59-2.9,5.59-6.76s-1.9-6.75-5.59-6.75-5.57,2.85-5.57,6.75,1.9,6.76,5.57,6.76"/>
      <path class="cls-5" d="M862.93,368.79v12.96h-3.9v-11.85c0-2.53-1.05-4.15-3.7-4.15-2.97,0-4.88,1.8-4.88,4.59v11.41h-3.86v-18.76h3.86v2.42h.07c.98-1.46,2.94-2.94,6.16-2.94,3.49,0,6.25,2.03,6.25,6.32"/>
      <path class="cls-5" d="M896.63,362.99v17.48c0,5.39-3.27,7.78-8.6,7.78s-8.37-2.83-8.77-5.98h3.89c.36,1.66,1.69,2.9,4.74,2.9,3.22,0,4.88-1.48,4.88-4.84v-2.28h-.07c-.99,1.39-2.71,2.78-5.69,2.78-4.7,0-8.22-3.26-8.22-9.17s3.52-9.18,8.22-9.18c2.98,0,4.7,1.4,5.69,2.72h.07v-2.2h3.86ZM892.73,371.66c0-3.97-1.87-6.02-4.99-6.02-3.38,0-5.11,2.53-5.11,6.02s1.73,6.02,5.11,6.02c3.12,0,4.99-2.05,4.99-6.02"/>
      <path class="cls-5" d="M926.71,376.02h3.86c-.96,3.56-3.74,6.28-8.56,6.28-5.83,0-9.4-4.04-9.4-9.91s3.57-9.91,9.22-9.91c6.05,0,9.02,4.22,9.02,10.91h-14.38c0,3.15,2.01,5.77,5.43,5.77,3.2,0,4.48-1.99,4.81-3.13M916.48,370.52h10.54c0-2.9-2.06-5-5.18-5s-5.36,2.1-5.36,5"/>
      <path class="cls-5" d="M957.43,362.67v3.63h-.07c-3.7-.62-6.68,1.87-6.68,5.87v9.58h-3.86v-18.76h3.86v3.52h.07c.98-2.35,2.53-3.97,4.98-3.97.66,0,1.14.04,1.69.12"/>
      <path class="cls-5" d="M1005.08,358.7c-5.66,0-7.89,4.74-7.89,9.91s2.23,9.95,7.89,9.95c4.88,0,6.75-3.2,7.05-6.39h4.36c-.59,5.91-4.63,10.13-11.3,10.13-7.57,0-12.33-5.77-12.33-13.69s4.77-13.67,12.33-13.67c6.64,0,10.68,4.23,11.3,9.59h-4.36c-.48-2.65-2.21-5.84-7.05-5.84"/>
      <path class="cls-5" d="M1041.21,382.3c-5.87,0-9.43-4.08-9.43-9.91s3.56-9.91,9.43-9.91,9.44,4.08,9.44,9.91-3.57,9.91-9.44,9.91M1041.21,379.15c3.68,0,5.59-2.9,5.59-6.76s-1.9-6.75-5.59-6.75-5.57,2.85-5.57,6.75,1.9,6.76,5.57,6.76"/>
      <path class="cls-5" d="M1093.08,368.79v12.96h-3.9v-11.85c0-2.53-.5-4.15-3.15-4.15s-4.22,1.8-4.22,4.59v11.41h-3.89v-11.85c0-2.53-.52-4.15-3.19-4.15s-4.22,1.8-4.22,4.59v11.41h-3.86v-18.76h3.86v2.42h.07c.98-1.46,2.76-2.94,5.57-2.94,2.65,0,4.23,1.21,5,3.24h.07c1.39-1.8,3.22-3.24,6.12-3.24,3.79,0,5.73,2.28,5.73,6.32"/>
      <path class="cls-5" d="M1136.42,368.79v12.96h-3.9v-11.85c0-2.53-.5-4.15-3.15-4.15s-4.22,1.8-4.22,4.59v11.41h-3.89v-11.85c0-2.53-.52-4.15-3.19-4.15s-4.22,1.8-4.22,4.59v11.41h-3.86v-18.76h3.86v2.42h.07c.98-1.46,2.76-2.94,5.57-2.94,2.65,0,4.23,1.21,5,3.24h.07c1.39-1.8,3.22-3.24,6.13-3.24,3.79,0,5.73,2.28,5.73,6.32"/>
      <path class="cls-5" d="M1169.53,362.99v18.76h-3.86v-2.42h-.07c-1,1.46-2.94,2.94-6.17,2.94-3.47,0-6.23-2.03-6.23-6.32v-12.96h3.88v11.86c0,2.54,1.07,4.15,3.72,4.15,2.97,0,4.88-1.8,4.88-4.58v-11.42h3.86Z"/>
      <path class="cls-5" d="M1202.85,368.79v12.96h-3.9v-11.85c0-2.53-1.05-4.15-3.7-4.15-2.97,0-4.88,1.8-4.88,4.59v11.41h-3.86v-18.76h3.86v2.42h.07c.98-1.46,2.94-2.94,6.16-2.94,3.49,0,6.25,2.03,6.25,6.32"/>
      <path class="cls-5" d="M1219.68,357.78c0-1.32,1.1-2.01,2.17-2.01,1.14,0,2.2.7,2.2,2.01s-1.07,2.06-2.2,2.06c-1.07,0-2.17-.74-2.17-2.06M1223.79,381.75h-3.85v-18.76h3.85v18.76Z"/>
      <path class="cls-5" d="M1246.43,366.15v10.18c0,2.12,1.03,2.38,3.52,2.24v3.15c-.77.18-1.61.29-2.64.29-3.08,0-4.77-1.39-4.77-5.36v-10.5h-2.72v-3.15h2.72v-5.91h3.88v5.91h3.52v3.15h-3.52Z"/>
      <path class="cls-5" d="M1275.12,382.93c-1.07,2.9-2.28,5.21-5.87,5.21-1.1,0-2.03-.18-2.76-.37v-2.93h.32c1.62.23,2.83.11,3.68-.91.7-.85,1.21-2.31.52-4.08l-6.8-16.85h4.15l5.25,14.35h.07l4.81-14.35h4.11l-7.48,19.93Z"/>
    </g>
  </g>
  <path class="cls-4" d="M105.51,154.56c-13.42.58-26.41-6.31-38.64-11.13-14.98-6.32-29.82-12.21-44.94-18.27-3.39-1.36-6.83-3.12-9.12-5.93-5.48-6.35-2.65-16.94,6.9-16.13,5.89-1.08,30.81,13.02,30.18,2.37-.75-2.69-3.65-4.73-6-6.26-9.78-6.25-20.76-11.04-30.18-18-8.24-5.84-5.64-18.27,5.12-17.84,12.57,2.11,22.57,11.84,34.18,16.43,3.83,1.91,10.42,1.3,7.97-4.41-.82-1.96-2.49-3.83-4.07-5.4-8.62-8.25-17.96-15.96-26.75-24.24-3.2-3.2-6.76-7.13-7.22-11.69-.34-10.13,11.54-12.81,18.68-7.29,10.48,7.45,19.36,16.96,29.19,25.1,2.3,1.93,4.92,4.09,7.79,4.86,6.52,1.71,6.15-5.64,3.62-9.49-5.1-8.72-11.13-16.71-16.64-25.34-2.67-4.32-5.69-9.53-4.37-14.7,2.02-7.31,12.2-9.72,17.35-4.08,12.01,14.22,21.11,30.94,31.98,46.01,2.29,3.22,5.19,6.9,9.15,7.73,9.59,1.2,7.56-10.69,9.28-17.21,1.25-7.51,11.73-18.4,18.84-13.99,1.85,1.29,2.97,3.76,3.62,6.58,1.62,9,1.69,18.34,2.55,27.46.77,19.94,4.39,41.57-.88,60.9-5.99,20.29-26.84,32.39-47.13,33.94l-.46.03Z"/>
  <path class="cls-3" d="M154.56,231.76c.58,13.42-6.31,26.41-11.13,38.64-6.32,14.98-12.22,29.82-18.27,44.94-1.36,3.39-3.12,6.83-5.93,9.12-6.35,5.48-16.94,2.65-16.13-6.9-1.08-5.89,13.02-30.81,2.37-30.18-2.69.75-4.73,3.65-6.26,6-6.25,9.78-11.04,20.76-18,30.18-5.84,8.24-18.27,5.64-17.84-5.12,2.11-12.57,11.84-22.57,16.43-34.18,1.91-3.83,1.3-10.42-4.41-7.97-1.96.82-3.83,2.49-5.4,4.07-8.25,8.62-15.96,17.96-24.24,26.75-3.2,3.2-7.13,6.76-11.69,7.22-10.13.34-12.81-11.54-7.29-18.68,7.45-10.48,16.96-19.36,25.1-29.19,1.93-2.3,4.08-4.92,4.86-7.79,1.71-6.52-5.64-6.14-9.49-3.62-8.72,5.1-16.71,11.13-25.34,16.64-4.32,2.67-9.53,5.69-14.7,4.37-7.31-2.02-9.72-12.2-4.08-17.35,14.22-12.01,30.94-21.11,46.01-31.98,3.22-2.29,6.9-5.19,7.73-9.15,1.2-9.59-10.69-7.56-17.21-9.28-7.51-1.25-18.4-11.73-13.99-18.84,1.29-1.85,3.76-2.97,6.58-3.62,9-1.62,18.34-1.69,27.46-2.55,19.94-.77,41.57-4.39,60.9.88,20.29,5.99,32.39,26.84,33.94,47.13l.03.46Z"/>
  <path class="cls-2" d="M231.76,182.72c13.42-.58,26.41,6.31,38.64,11.13,14.98,6.32,29.82,12.21,44.94,18.27,3.39,1.36,6.83,3.12,9.12,5.93,5.48,6.35,2.65,16.94-6.9,16.13-5.89,1.08-30.81-13.02-30.18-2.37.75,2.69,3.65,4.73,6,6.26,9.78,6.25,20.76,11.04,30.18,18,8.24,5.84,5.64,18.27-5.12,17.84-12.57-2.11-22.57-11.84-34.18-16.43-3.83-1.91-10.42-1.3-7.97,4.41.82,1.96,2.49,3.83,4.07,5.4,8.62,8.25,17.96,15.96,26.75,24.24,3.2,3.2,6.76,7.13,7.22,11.69.34,10.13-11.54,12.81-18.68,7.29-10.48-7.45-19.36-16.96-29.19-25.1-2.3-1.93-4.92-4.08-7.79-4.86-6.52-1.71-6.15,5.64-3.62,9.49,5.1,8.72,11.13,16.71,16.64,25.34,2.67,4.32,5.69,9.53,4.37,14.7-2.02,7.31-12.2,9.72-17.35,4.08-12.01-14.22-21.11-30.94-31.98-46.01-2.29-3.22-5.19-6.9-9.15-7.73-9.59-1.2-7.56,10.69-9.28,17.21-1.25,7.51-11.73,18.4-18.84,13.99-1.85-1.29-2.97-3.76-3.62-6.58-1.62-9-1.69-18.34-2.55-27.46-.77-19.94-4.39-41.57.88-60.9,5.99-20.29,26.84-32.39,47.13-33.94l.46-.03Z"/>
  <path class="cls-1" d="M182.72,105.51c-.58-13.42,6.31-26.41,11.13-38.64,6.32-14.98,12.21-29.82,18.27-44.94,1.36-3.39,3.12-6.83,5.93-9.12,6.35-5.48,16.94-2.65,16.13,6.9,1.08,5.89-13.02,30.81-2.37,30.18,2.69-.75,4.73-3.65,6.26-6,6.25-9.78,11.04-20.76,18-30.18,5.84-8.24,18.27-5.64,17.84,5.12-2.11,12.57-11.84,22.57-16.43,34.18-1.91,3.83-1.3,10.42,4.41,7.97,1.96-.82,3.83-2.49,5.4-4.07,8.25-8.62,15.96-17.96,24.24-26.75,3.2-3.2,7.13-6.76,11.69-7.22,10.13-.34,12.81,11.54,7.29,18.68-7.45,10.48-16.96,19.36-25.1,29.19-1.93,2.3-4.09,4.92-4.86,7.79-1.71,6.52,5.64,6.14,9.49,3.62,8.72-5.1,16.71-11.13,25.34-16.64,4.32-2.67,9.53-5.69,14.7-4.37,7.31,2.02,9.72,12.2,4.08,17.35-14.22,12.01-30.94,21.11-46.01,31.98-3.22,2.29-6.9,5.19-7.73,9.15-1.2,9.59,10.69,7.56,17.21,9.28,7.51,1.25,18.4,11.73,13.99,18.84-1.29,1.85-3.76,2.97-6.58,3.62-9,1.62-18.34,1.69-27.46,2.55-19.94.77-41.57,4.39-60.9-.88-20.29-5.99-32.39-26.84-33.94-47.13l-.03-.46Z"/>
</svg>