<?xml version="1.0" encoding="UTF-8"?>
<svg id="Layer_1" data-name="Layer 1" xmlns="http://www.w3.org/2000/svg" viewBox="0 0 238.22 238.22">
  <defs>
    <style>
      .cls-1 {
        fill: #fff;
      }

      .cls-2 {
        fill: #ff2f8e;
      }
    </style>
  </defs>
  <rect class="cls-2" x="0" width="238.22" height="238.22" rx="24.22" ry="24.22"/>
  <path class="cls-1" d="M193.57,68.67c5.04,2.34,10.57,6.76,10.41,12.89s-13.65,22.51-18.13,28c-2.96,3.63-17.66,21.25-20.76,21.91-3.52.74-6.83-2.78-5.47-6.19l33.58-41.94c1.55-2.57-2.61-7.58-5.11-6.12-15.36,19.01-30.27,38.39-45.9,57.18-1.82,2.19-4.47,4.08-6.31,6.27-10.47,12.47-24.36,32.81-35.98,42.99-6.37,5.58-16.77,10.22-24.15,15-6.3,4.08-28.88,20.77-34.27,21.64-5.71.92-8.28-1.35-7.13-7.13,1.42-7.17,6.77-18.72,9.11-26.53,5.42-18.13,7.66-37.44,19.41-52.58,17.4-22.42,37.71-44.9,55.92-67.09,8-9.75,18.16-19.01,23.6-30.22,2.04-4.21,6.25-2.6,9.49-5.19,4.99-3.99,7.2-12.69,14.97-13.74,10.29-1.39,29.09,13.62,34.3,21.99,8.25,13.25-2.51,17.96-7.56,28.86ZM168.89,28.31c-1.91.58-6.13,6.51-8.17,7.9,10.49,5.99,18.75,14.68,26.9,23.4.66,0,7.3-9.66,7.3-10.82,0-2.75-8.75-11.24-11.2-13.22-2.8-2.26-11.51-8.27-14.82-7.26ZM63.54,149.75c8.74,3.54,17.05,10.55,23.78,17.11,1.8,1.75,5.69,8.51,8.38,7.04,9.36-10.94,18.35-22.21,27.59-33.24,17.63-21.03,36.98-42.82,53.47-64.64,1.51-2,4.88-5.72,3.85-7.99s-9.55-10.62-11.89-12.59c-2.86-2.41-12.68-9.66-15.76-10.85-.76-.29-1.27-.59-2.04-.03l-87.39,105.19ZM61.78,159.56l-8.66,28.3c.03,2.44,6.82,9.29,9.68,7.66l23.09-15.37c-7.23-8.11-14.22-15.6-24.11-20.6ZM48.16,204.27l4.18-2.44-2.42-1.75-1.75,4.19Z"/>
</svg>