<?xml version="1.0" encoding="UTF-8"?>
<svg id="Layer_1" data-name="Layer 1" xmlns="http://www.w3.org/2000/svg" viewBox="0 0 540.17 581.8">
  <defs>
    <style>
      .cls-1 {
        fill: #f3fbe7;
      }
    </style>
  </defs>
  <path class="cls-1" d="M328.88,392.37c.2-.17-.63-1.65.16-2.65,25.35-32.32,37.33-34.11,75.24-19.34,21.76,8.48,70.76,29.39,87.78,43.23,23.02,18.72,1.65,45.42-12.57,62.63-91.68,110.92-241.18,37.09-321.85-47.22C74.58,342.22-27.16,174.41,93.26,75.34c12.33-10.14,44.38-32.78,60.31-23.81.63.35,8.66,7.22,9.22,7.87,3.9,4.51,14.7,43.5,17.9,52.72,4.16,11.99,18.96,45.79,19.64,55.63,1.64,23.69-33.41,48.2-34.18,79.66-.74,30.32,39.74,79.02,59.83,100.75,25.66,27.75,52.39,56.92,94.07,47.31,1.48-.34,8.16-2.52,8.82-3.09ZM137.43,72.74c-13.86,1.98-42.06,28.99-50.96,40.23-42.6,53.77-34.96,109.87-8.21,168.74,48.27,106.22,186.35,255.67,315.83,228.77,33-6.85,67.66-30.99,84.05-60.63,5.31-9.6,8.97-15.98-1.46-23.16-15.69-10.8-38.06-20.88-55.65-28.65-7.81-3.45-43.49-19.06-49.21-18.98-16.82.22-30.5,30.46-48.91,36.33-48.53,15.48-92.14-33.77-120.84-66.1-32.17-36.24-72.44-88.87-45.91-139.32,5.25-9.99,23.1-28.56,22.34-38.61-.26-3.38-3.12-11.4-4.28-15.18-6.86-22.19-16.64-51.06-25.7-72.26-2.38-5.57-4.09-12.18-11.08-11.18ZM167.32,105.54l-2.25.56,10.53,29.34,6.54,14.52-14.81-44.42ZM48.84,195.52v17.65c0,1.23,2.29,4.96,1.15,7.4l1.18-4.02-2.33-21.03ZM191.24,320.8l-10.23-13.67c-.35,2.36,9.52,14.44,10.23,13.67ZM398.61,517.85l-26.19,3.39h9.66s16.53-3.39,16.53-3.39ZM363.29,520.12h-27.91c-.93,0-6.56-3.28-7.4-.01,11.21,2.18,22.51,1.54,33.71,2.13,2.26.12,1.61.21,1.6-2.12Z"/>
</svg>