<?xml version="1.0" encoding="UTF-8"?>
<svg id="Layer_1" data-name="Layer 1" xmlns="http://www.w3.org/2000/svg" viewBox="0 0 238.22 238.22">
  <defs>
    <style>
      .cls-1 {
        fill: #fff;
      }

      .cls-2 {
        fill: #06a9e7;
      }
    </style>
  </defs>
  <rect class="cls-2" x="0" y="0" width="238.22" height="238.22" rx="24.22" ry="24.22"/>
  <path class="cls-1" d="M142.14,158.85c.08-.07-.25-.64.06-1.04,9.93-12.66,14.62-13.36,29.47-7.57,8.52,3.32,27.72,11.51,34.38,16.93,9.02,7.33.65,17.79-4.93,24.53-35.91,43.45-94.47,14.53-126.06-18.5C42.53,139.21,2.68,73.48,49.85,34.68c4.83-3.97,17.38-12.84,23.62-9.33.25.14,3.39,2.83,3.61,3.08,1.53,1.77,5.76,17.04,7.01,20.65,1.63,4.7,7.43,17.94,7.69,21.79.64,9.28-13.09,18.88-13.39,31.2-.29,11.88,15.56,30.95,23.44,39.46,10.05,10.87,20.52,22.29,36.84,18.53.58-.13,3.2-.99,3.46-1.21ZM67.15,33.66c-5.43.78-16.47,11.36-19.96,15.76-16.69,21.06-13.69,43.03-3.21,66.09,18.91,41.6,72.99,100.14,123.71,89.61,12.92-2.68,26.5-12.14,32.92-23.75,2.08-3.76,3.51-6.26-.57-9.07-6.15-4.23-14.91-8.18-21.8-11.22-3.06-1.35-17.04-7.46-19.28-7.44-6.59.09-11.95,11.93-19.16,14.23-19.01,6.06-36.09-13.23-47.33-25.89-12.6-14.19-28.37-34.81-17.98-54.57,2.06-3.91,9.05-11.19,8.75-15.12-.1-1.32-1.22-4.47-1.68-5.94-2.69-8.69-6.52-20-10.07-28.3-.93-2.18-1.6-4.77-4.34-4.38ZM78.86,46.5l-.88.22,4.12,11.49,2.56,5.69-5.8-17.4ZM32.45,81.75v6.91c0,.48.9,1.94.45,2.9l.46-1.58-.91-8.24ZM88.23,130.82l-4.01-5.35c-.14.92,3.73,5.66,4.01,5.35ZM169.45,208.01l-10.26,1.33h3.79s6.47-1.33,6.47-1.33ZM155.62,208.89h-10.93c-.37,0-2.57-1.28-2.9,0,4.39.85,8.82.6,13.21.84.89.05.63.08.63-.83Z"/>
</svg>