<?xml version="1.0" encoding="UTF-8"?>
<svg id="Layer_1" data-name="Layer 1" xmlns="http://www.w3.org/2000/svg" viewBox="0 0 466.89 456.95">
  <defs>
    <style>
      .cls-1 {
        fill: #ffd5e8;
      }
    </style>
  </defs>
  <path class="cls-1" d="M433.03,176.7c4.75-.67,13.53,2.55,15.3,7.37,3.92,10.69-7.47,20.21-17.52,16.24-8.37-3.31-7.86-22.19,2.22-23.61Z"/>
  <path class="cls-1" d="M364.69,180.6c5.64,5.79,1.99,17.75-6.28,19.77-11.82,2.88-16.13-6.84-14.52-17.07,1.27-8.05,15.91-7.72,20.81-2.69Z"/>
  <path class="cls-1" d="M352.62,98.24c10.82-1.56,17.72,5.09,13.22,15.77-2.23,5.29-7.27,7-12.75,7.08-12.46.19-15.46-20.7-.47-22.85Z"/>
  <path class="cls-1" d="M194.39,176.7c4.42-.43,11.34,5.45,12.11,9.9,1.67,9.76-4.85,15.14-14.21,14.21-13.76-1.37-11.95-22.74,2.1-24.11Z"/>
  <path class="cls-1" d="M270.93,177.35c18.34-3.12,19.63,26.51.02,23.92-11.66-1.54-12.61-21.78-.02-23.92Z"/>
  <path class="cls-1" d="M281.73,100.85c6.06,6.59,3.15,19.07-6.55,20.12-10.89,1.18-16.08-5.94-12.95-16.13,2.66-8.64,13.99-9.97,19.49-3.99Z"/>
  <path class="cls-1" d="M184.95,25.34c-.38-.46-2.08,1.07-.23-2.48,6.66-12.8,30.18.27,19.38,14.28-7.74,10.04-22.24,2.51-21.1-8.31.18-1.73,2.1-3.31,1.96-3.48Z"/>
  <path class="cls-1" d="M112.06,97.6c16.28-2,17.43,22.84,1.72,23.46-16.05.63-17.05-21.58-1.72-23.46Z"/>
  <path class="cls-1" d="M433.65,336.87c20.25-3.73,20.25,28.56-1,22.39-7.32-2.13-9.5-10.03-6.65-16.64.66-1.53,5.91-5.43,7.65-5.75Z"/>
  <path class="cls-1" d="M25.9,177.34c4.63-.96,10.34.47,13.21,4.36,3.7,5.01,3.27,14.02-2.82,16.88-5.1,2.39-10.48,2.99-15-.97-6.47-5.66-3.47-18.6,4.61-20.27Z"/>
  <path class="cls-1" d="M26.54,97.58c4.35-.81,12.27.85,14.35,5.14,4.83,9.95-2.34,19.68-13.16,18.26-10.22-1.33-11.62-21.47-1.18-23.4Z"/>
  <path class="cls-1" d="M189.88,257.09c10.6-2.37,19.19,6.72,14.99,16.91-3.55,8.63-17.62,7.23-21.74-.22-3.04-5.5.55-15.3,6.75-16.69Z"/>
  <path class="cls-1" d="M192.45,336.23c7.72-1.24,16.29,6.54,13.23,14.52-5.45,14.25-25.52,10.88-23.22-5.36.56-3.98,6.13-8.54,9.99-9.16Z"/>
  <path class="cls-1" d="M26.53,17.81c10.31-2.33,16.8,5.6,15.44,15.44-1.3,9.43-16.5,10.63-20.9,3.15-3.12-5.31-1.34-17.06,5.46-18.59Z"/>
  <path class="cls-1" d="M269.66,336.24c4.54-.78,9.57-.01,12.56,3.72,9.01,11.25-10.33,28.32-19.31,14.21-4.28-6.73-1.34-16.55,6.75-17.93Z"/>
  <path class="cls-1" d="M26.54,336.87c18.3-3.74,21.49,22.54,3.01,22.84-14.2.23-14.45-20.51-3.01-22.84Z"/>
  <path class="cls-1" d="M113.29,256.52c7.04-.12,14.54,9.17,11.59,15.97-2.76,6.35-10.79,10.27-17.1,6.46-1.53-.93-5.57-5.22-5.8-6.96-1.04-7.74,2.73-15.32,11.31-15.47Z"/>
  <path class="cls-1" d="M436.24,415.34c10.9-1.08,17.67,14.21,8,20.81-9.34,6.37-21.56-1.46-19.21-12.83.84-4.03,7.49-7.61,11.21-7.98Z"/>
  <path class="cls-1" d="M434.85,256.53c2.11-.15,6.6,1.58,8.49,2.7,11.27,6.69,4.08,26.9-11.61,19.27-11.03-5.37-6.65-21.29,3.12-21.97Z"/>
  <path class="cls-1" d="M110.76,336.23c13.59-2.76,20.32,19.38,6.6,22.55-9.31,2.15-16.96-2.92-16-12.81.4-4.07,5.5-8.95,9.39-9.75Z"/>
  <path class="cls-1" d="M122.2,38.51c-2.97,2.81-11.24,4.93-14.71,2.71-1.14-.73-1.61-2.83-3.38-3.31-.94-3.36-2-7.45-1.43-10.95.12-.73,3.63-7.02,4.09-7.4,3.12-2.59,9.91-1.14,13.06,1.02,5.86,4.01,7.81,12.77,2.37,17.92Z"/>
  <path class="cls-1" d="M271.57,257.11c4.11-.67,9.42,2.67,11.36,6.2,6.84,12.39-10.46,25.81-20.13,11.84-4.48-6.47,1.2-16.8,8.77-18.04Z"/>
  <path class="cls-1" d="M353.25,336.23c5.18-.84,9.92,2.99,11.9,7.57,6.51,15.05-19.92,23.96-21.88,6.57-.73-6.48,3.29-13.06,9.97-14.14Z"/>
  <path class="cls-1" d="M434.28,98.22c4.8-1.01,12.96,2.37,14.08,7.33,2.15,9.55-3.8,16.66-13.53,15.44-11.82-1.48-12.5-20.26-.55-22.77Z"/>
  <path class="cls-1" d="M115.21,176.77c5.17.02,10.32,7.9,9.65,12.7-.56,3.99-5.78,10.07-9.82,10.64-6.03.85-9.79-1.89-13.2-6.51.16-4.08-1.04-7.63,1.46-10.98,2.53-3.4,7.69-5.87,11.92-5.85Z"/>
  <path class="cls-1" d="M351.33,18.45c7.49-1.52,16.29,7.3,14.41,15.05-1.97,8.1-9.36,10.84-16.73,7.39-8.92-4.18-5.48-20.87,2.32-22.45Z"/>
  <path class="cls-1" d="M28.39,256.53c8.72-.59,16.39,5.9,13.97,15.12-.64,2.46-4.29,6.01-6.7,6.7-.8.23-6.12,1.29-6.72,1.3-1.48.01-5.51-2.22-6.64-3.29-5.47-5.22-2.25-19.26,6.08-19.83Z"/>
  <path class="cls-1" d="M351.96,257.11c12.53-2.59,20.85,12.53,9.43,20.91-5.88,4.31-12.37,2.02-15.9-3.87-3.8-6.33-1.26-15.44,6.48-17.04Z"/>
  <path class="cls-1" d="M190.53,98.22c7.04-1.43,15.9,5.7,15.51,12.91-.45,8.28-16.03,13.63-20.75,7.35-3.68-4.9-3.08-10.52-.25-15.54,1.24-2.2,2.86-4.18,5.49-4.71Z"/>
  <path class="cls-1" d="M434.29,18.46c7.4-1.18,16.06,8.83,13.08,16.28-.94,2.35-5.64,7.2-8.28,7.67-16.52,2.95-17.16-21.97-4.8-23.94Z"/>
  <path class="cls-1" d="M27.18,416.63c17.55-3.59,20.07,24.49,1.1,22.85-13.18-1.14-10.54-20.92-1.1-22.85Z"/>
  <path class="cls-1" d="M267.65,19.96c2.05-1.63,2.22-2.19,5.38-1.35,2.17.58,9.25,5.16,9.91,7.33,3.22,10.55-6.97,21.45-16.63,14.71-7.73-5.39-5.29-15.4,1.34-20.69Z"/>
  <path class="cls-1" d="M362.76,436.04c-4.18,3.81-12.79,5.2-16.64.19-4.63-6.01-2.67-14.09,3.5-18.12,10.36-6.76,22.97,8.97,13.14,17.93Z"/>
  <path class="cls-1" d="M271.59,415.97c3.79-.52,9.5,2.85,11.02,6.55,6.65,16.14-18.99,23.49-21.57,7.53-1.01-6.25,4.45-13.24,10.55-14.08Z"/>
  <path class="cls-1" d="M192.45,416.63c7.17-1.14,12.83,5.09,13.42,11.8.99,11.09-21.72,16.51-23.33.31-.48-4.84,5.26-11.37,9.91-12.11Z"/>
  <path class="cls-1" d="M108.86,415.99c8.63-1.76,15.84,6.13,14.06,14.71-1.26,6.09-10.35,10.14-15.75,7.11-1.11-.62-5.57-5.23-5.78-6.34-1.14-6.03.45-14.04,7.47-15.48Z"/>
</svg>