<?xml version="1.0" encoding="UTF-8"?>
<svg id="Layer_1" data-name="Layer 1" xmlns="http://www.w3.org/2000/svg" viewBox="0 0 238.22 238.22">
  <defs>
    <style>
      .cls-1 {
        fill: #ffcf00;
      }

      .cls-2 {
        fill: #fff;
      }
    </style>
  </defs>
  <rect class="cls-1" x="0" width="238.22" height="238.22" rx="24.22" ry="24.22"/>
  <g>
    <path class="cls-2" d="M51.81,129.79c17.35-2.22,34.63,10.35,35.83,28.14,1.11,16.44-11.54,39.61-21.69,52.2-7.99,9.92-10.31,12.01-19.74,1.94-13.81-14.73-28.45-43.69-19.73-63.67,4.49-10.28,14.2-17.18,25.32-18.61ZM53.09,139.33c-15.23,1.82-20.46,17.14-18.15,30.55s11.82,27.78,20.53,38.02c11.65-14.95,34.34-47.46,13.99-63.62-3.97-3.15-11.38-5.54-16.37-4.95Z"/>
    <path class="cls-2" d="M176.32,20.03c17.16-2.67,33.45,6.13,37.31,23.5,3.95,17.73-8.96,41.93-20.61,54.94-3.52,3.93-6.76,8.45-12.09,4.49-11.6-8.61-26.7-33.35-27.99-47.76-1.31-14.65,7.68-32.72,23.38-35.16ZM183.04,93.52c.3.27,1.08.7,1.41.65,1.47-.21,9.6-13.47,10.83-15.72,10.15-18.54,16.5-51.58-15.29-48.38-14.23,1.43-18.94,16.5-16.72,28.79,2.31,12.82,12.81,24.18,19.76,34.66Z"/>
    <path class="cls-2" d="M135.75,179.86c.51.32.86,3.19.74,4.01-.63,4.03-19.8,12.25-18.36,2.72.53-3.49,15.32-8.17,17.62-6.73Z"/>
    <path class="cls-2" d="M93.64,181.18c2.8-.82,13.89,2.25,15.14,4.96,4.18,9.08-20.68,4.58-17.17-3.18.27-.59,1.39-1.6,2.03-1.79Z"/>
    <path class="cls-2" d="M122.31,138.24c-4.12,4.07-15.65-4.22-15.02-8.3,1.41-9.07,19.69,3.68,15.02,8.3Z"/>
    <path class="cls-2" d="M143.33,149.7c-2.71,2.71-13.54-3.29-14.37-6.03-3.36-11.14,21.23-.85,14.37,6.03Z"/>
    <path class="cls-2" d="M147.77,157.59c8.66-2.34,2.94,18.64-4.48,16.34-5.56-1.72,2.18-15.72,4.48-16.34Z"/>
    <path class="cls-2" d="M131.1,89.04c.86.08,2.04.92,2.56,1.57,4.82,6.04-12.09,10.92-14.7,8.34-5.2-5.13,8.17-10.28,12.14-9.91Z"/>
    <path class="cls-2" d="M147.17,87.66c3.8-.45,13.7.17,10.65,6.19-1.65,3.27-19.73,2.94-15.53-4.06,1.05-1.76,2.95-1.9,4.88-2.13Z"/>
    <path class="cls-2" d="M108.91,104.16c10.31-3.09,2.05,14.34-.26,15.04-7.69,2.32-4.05-13.75.26-15.04Z"/>
    <path class="cls-2" d="M52.43,153.33c17.04-3.15,17.48,20.65,2.4,20.9-12.92.22-13.25-18.89-2.4-20.9ZM53.68,160.3c-3.51,1.1-2.18,7.43,2.28,6.13,3.81-1.11,3.13-7.82-2.28-6.13Z"/>
    <path class="cls-2" d="M181.41,41.66c9.9-2.05,16.46,7.62,10.89,15.98-6.45,9.69-20.14,4.56-18.21-7.38.56-3.47,3.74-7.85,7.31-8.6ZM183.3,48.62c-2.48.76-3.55,7.6,1.12,6.91,3.94-.58,3.91-8.44-1.12-6.91Z"/>
  </g>
</svg>