<?xml version="1.0" encoding="UTF-8"?>
<svg id="Layer_1" data-name="Layer 1" xmlns="http://www.w3.org/2000/svg" viewBox="0 0 238.22 238.22">
  <defs>
    <style>
      .cls-1 {
        fill: #fff;
      }

      .cls-2 {
        fill: #84d40f;
      }
    </style>
  </defs>
  <rect class="cls-2" width="238.22" height="238.22" rx="24.22" ry="24.22"/>
  <path class="cls-1" d="M98.12,22.78c.39-.13,2.86.87,3.33,1.2,4.58,3.18,9.02,6.96,13.58,10.17,4.87,3.42,10,6.4,14.81,9.93,2.23,1.63,4.41,3.91,6.75,5.4,1.82,1.16,9.1,4.94,10.56,1.9.52-1.08-.24-5.75.05-7.62,1.82-11.6,14.34-21.34,26.03-19.47,21.34,3.4,30.17,28.12,12.12,41.9-2.71,2.07-8.1,4.2-10.1,6.09s-.3,3.11,1.21,4.6c11.74,8.29,23.45,16.7,34.92,25.31,1.64,1.23,5.44,3.19,6.09,4.9.85,2.22-1.01,3.41-2.09,5.17-2.49,4.08-5.22,7.54-7.93,11.4-5.17,7.36-9.8,15.11-15.31,22.24-2.58,3.34-7.12,9.13-11.24,4.53-3.56-3.97-5.21-7.68-10.61-9.97-5.47-2.32-10.71-2.06-15.81,1.01-13.64,8.2-8.17,26.63,6.64,29.17,2.78.48,8.4-.47,9.19,3.28.23,1.09-.41,2.62-.95,3.57-3.09,5.38-7.46,10.37-11.05,15.36-4.18,5.81-8.32,11.71-12.44,17.44-4.4,6.13-4.93,6.82-11.46,2.06-9.28-6.77-18.71-13.39-28-20.15-2.37-1.72-7.74-6.99-10.81-5.68-.97.42-.97,6.17-1.35,7.66-1.32,5.21-5.47,10.75-9.75,13.92-11.56,8.55-26.12,4.94-34.81-5.92-8.25-10.32-4.58-27.23,6.92-33.69,1.78-1,7.01-2.28,7.59-4.08.37-1.17-2.23-3.72-3.11-4.44-11.48-9.39-25.27-16.4-36.47-26.03-1.99-1.71-5.15-2.89-3.76-5.92,2.51-5.5,8.32-11.37,11.96-16.32,4.09-5.56,7.78-11.65,12.14-16.98,2.13-2.61,5.16-6.67,8.89-6.12s3.87,4.59,5.23,7.58c8.33,18.2,33.63,12.51,34.99-7.68.55-8.11-6.8-16.42-14.37-18.39-3.63-.95-8.41,1.33-10.86-2.86-1.19-2.04-.4-4.04.69-5.94,3.78-6.56,10.22-13.62,14.84-19.84,4.07-5.48,8.07-11.98,12.28-17.19.24-.29,1.22-1.38,1.44-1.46ZM211.79,108.61c-5.32-4.39-11.26-7.98-16.82-12.07-4.81-3.54-9.56-7.41-14.34-11.02-3.51-2.65-7.24-4.71-10.33-7.94-1.58-1.65-2.5-3.3-1.4-5.55,1.76-3.62,10.25-6.98,13.72-9.86,10.49-8.7,10.07-23.19-2.17-29.88s-26.52-.76-27.97,14.11c-.32,3.29.76,6.77-1.99,9.37-1.08,1.02-6.25,2.54-7.76,2.38-2.79-.29-5.23-2.36-7.49-3.86-7.89-5.24-15.74-10.87-23.51-16.37-3.98-2.82-7.99-5.61-12.09-8.25-1.3.03-9.77,12.75-11.16,14.64-2.39,3.24-5.1,6.44-7.45,9.7-.86,1.2-6.5,9-6.5,9.58,0,1.34,5.53,1.71,6.8,2.09,15.41,4.7,23.03,20.29,14.15,34.31-9.22,14.56-31.3,16.28-40.3.44-2.05-3.6-1.92-8.55-6.33-3.08-4.04,5.02-7.57,11.2-11.43,16.47-2.94,4.01-6.26,7.84-9.27,11.82-.74.98-1.41,2.06-2.09,3.09-.03.72,4.33,4.05,5.27,4.74,10.9,8.11,22.92,14.86,33.61,23.35,3.31,2.63,6.27,5.27,3.88,9.7s-6.22,3.71-9.89,5.9c-7.67,4.59-11.37,16.59-6.94,24.5,9.17,16.4,31.22,14.79,37.35-3.11,1.45-4.22-.25-9.13,4.5-11.76,5.63-3.12,12.88,4.48,17.11,7.48,4.47,3.17,9.04,6.19,13.51,9.37s9.08,7.4,13.99,10.11c.67.37,1.1.49,1.88.43l23.6-32.2c.03-.58-.3-.99-.81-1.24-9.92-2.01-18.24-5.91-20.77-16.47-5.16-21.46,23.68-34.33,37.54-18.53,1.22,1.39,3.08,5.03,4.7,5.49,1.41.4,4.28-4.31,5.03-5.44,2.72-4.06,5.33-8.24,8.17-12.28,4.36-6.19,9.55-12.23,13.43-18.78.26-.44.51-.89.57-1.4Z"/>
</svg>