<?xml version="1.0" encoding="UTF-8"?>
<svg id="Layer_1" data-name="Layer 1" xmlns="http://www.w3.org/2000/svg" viewBox="0 0 540.17 653.32">
  <defs>
    <style>
      .cls-1 {
        fill: #fff5cc;
      }
    </style>
  </defs>
  <path class="cls-1" d="M395.54,210.45c20.33,13.47,41.34,25.92,62.48,38.11,14.6,11.32,34.11,19.08,48.94,29.63,2.88,2.05,5.16,4.32,4.55,8.08-4.9,8.01-8.52,16.75-13.16,24.87-11.6,20.32-24.06,40.65-36.29,60.64-3.38,5.52-10.51,18.83-15.27,21.78-14.43,8.96-21.22-12.17-29.45-18.43-27.66-21.03-69.95-.61-64.51,36.24,1.94,13.15,11.29,26.66,24.68,30.05,10.48,2.66,29.7-4.27,34.1,9.58,2.27,7.17-7.63,21.2-11.48,27.77-16.64,28.36-34.81,55.96-50.32,85.09-5.18,6.47-18.49-4.45-23.74-7.45-21.71-12.42-43.08-25.36-64.4-38.37-4.34-2.65-30.71-20.56-33.05-19.71-1.32,2.82-.31,6.66-.52,9.72-4.42,62.89-68.68,89.09-113.43,43.37-28.78-29.4-21.98-76.88,12.78-98.43,2.17-1.35,9.39-4.38,10.44-5.46,2.12-2.17-2.53-4.41-4.42-5.55-26.92-16.27-55.35-30.51-82.35-46.66-7.12-4.26-17.99-10.08-24.21-14.67-1.89-1.4-3.37-4.09-2.83-6.48.85-3.75,8.01-14.87,10.42-18.94,8.97-15.12,18.96-29.9,28.15-44.88,7.43-12.11,14.7-26.93,22.67-38.38,2.59-3.72,6.64-6.29,11.22-6.34,11.8-.13,11.92,11.99,17.15,19.88,18.98,28.67,64.15,28.46,77.87-4.67,10.18-24.57-1.79-48.6-26.02-58.4-12.2-4.94-26.49,4.57-36.68-5.28-3.78-3.66-4.48-10.34-2.03-14.98l60.61-104.47c1.29-1.75,3.68-3.31,5.92-2.99,1.67.24,6.85,2.65,8.74,3.57,25.02,12.17,51.1,28.95,75.5,43.09,6.3,3.65,23.8,16.59,30.58,15.47,1.42-.23.77-.3.71-1.21-.2-2.83-1.35-5.96-1.46-9.45-1.63-50.39,39.78-83.09,87.45-64.46,45.19,17.66,61.43,64.6,29.74,103.31-8.6,10.51-19.9,15.91-29.06,25.39ZM488.48,289.72c-.08-1.96-29.29-17.5-33.6-20.09-21.35-12.83-43.57-25.8-64.54-39.36-7.57-4.89-17.4-10.82-18.96-20.2-3.24-19.53,14.78-21.85,27.01-29.97,27.55-18.27,29.37-54.15,1-72.44-37.54-24.2-76.3,2.37-70.85,45.74,1.2,9.58,6.51,17.82-4.76,24.64-11.09,6.71-21.43,1.48-31.56-3.81-22.89-11.98-44.99-26.12-67.13-39.21-9.02-5.33-18.31-10.26-27.34-15.58l-49.24,83.33c.11.57,6.34-.25,7.44-.24,35.25.42,65.67,34.89,59.2,69.83-9.79,52.85-78.05,73.49-111.2,28.78-2.45-3.31-4.13-7.6-6.68-10.62-.53-.62-.08-1.23-1.38-.63l-48.88,81.16c.08.87,8.13,6.16,9.74,7.17,31.44,19.56,64.97,36.1,96.5,55.39,12.55,7.68,7.99,22.06-2.32,29.63-4.16,3.05-10.07,4.69-14.48,7.66-35.98,24.14-23.61,70.76,15.62,81.96,27.98,7.99,53.28-11.01,57.34-39.16,1.5-10.39-2.87-23.38,6.3-31.29,4.28-3.69,11.3-4.72,16.43-2.4,12.64,5.72,24.54,14.73,36.43,21.69,13.41,7.86,26.88,15.98,40.14,23.75,10.47,6.14,21.08,12.15,31.82,17.79,8.02-9.98,13.4-22.38,21.11-32.71l27.85-48.81c-28.91-2.16-55.2-21.75-57.42-51.91-3.58-48.56,54.45-81.75,94.5-53.74,5.38,3.76,9.11,10.09,13.87,13.35.66.45,1.06.95,1.95.5l46.08-80.19Z"/>
</svg>