<?xml version="1.0" encoding="UTF-8"?>
<svg id="Layer_1" data-name="Layer 1" xmlns="http://www.w3.org/2000/svg" viewBox="0 0 785 550">
  <defs>
    <style>
      .cls-1 {
        fill: #fff5f9;
      }
    </style>
  </defs>
  <path class="cls-1" d="M577.78,139.49c15.08,14.73,28.16,31.25,38.66,49.57,21.36,37.27,32.54,78.9,37.37,121.44,12.64-5.81,22.61-8.7,36.77-7.66,24.74,1.81,46.96,23.44,44.33,49.13-.48,4.67-3.27,8.28-2.75,12.79,2.96.62,6.13,1.76,8.83,3.09,26.68,13.12,33.36,46.11,17.26,70.36-14.51,21.86-46.7,31.39-72.06,26.34-4.85-.97-23.76-11.13-25.1-10.87-7.18,7.68-14.64,14.13-24.25,18.67-30.2,14.24-80.23,13.88-107.6-6.42-4.89-3.63-9.71-9.6-13.37-14.33-5.42,3.06-11.23,6.63-17.13,8.65-23.02,7.86-50.27,4.72-66.23-14.96-14.11-17.39-11.21-45.07,6.23-59.29,5.86-4.78,11.75-5.38,17.96-8.69-1.88-16.79.68-30.58,11.91-43.47,7.96-9.12,18.84-16.39,30.8-18.8,2.11-.42,13.24-.6,13.16-2.19-1-3.62-3.21-7.5-4.35-10.9-17.36-51.6-55.16-95.6-113.51-97.31-53.76-1.58-97.49,38.34-115.79,85.59-1.36,3.51-2.15,7.24-3.68,10.69l.06,1.03c16.83,12.33,27.58,32.1,23.85,53.37,1.13,1.88,11.99,3.03,15.06,4.09,17.14,5.91,32.77,24.64,33.24,43.15,1.2,47.24-44.83,77.8-89.05,63.14-9.88-3.28-17.4-8.52-25.86-13.93-1.89.37-8.91,10.54-11.22,12.62-5.15,4.64-18.95,12.56-25.45,14.62-31.34,9.94-70.29.03-89.64-27.28-7.13,2.15-15.25,6.65-22.69,7.55-28.04,3.39-60.62-16.34-64.26-45.6-.28-2.22.86-6.7.59-8.34-.1-.6-1.74-.39-1.79-.97-.08-.95,3.2-16.05,3.82-18.12,4.12-13.89,15.52-27.8,28.33-34.63,3.01-1.61,16-3.32,16.56-3.96.62-.7-.9-4.5-.84-6.06.96-24.37,17.07-47.95,39.05-58.26,8.96-4.2,19.53-6.68,29.43-6.35,2.96-9.23,4.58-18.98,7.52-28.24,17.52-55.22,53.26-104.24,100.57-136.92,99.58-68.77,248.65-56.92,335.25,27.65ZM631.85,286.66c.28-4.91-1.08-9.74-2.18-14.5-16.52-71.41-57.22-126.66-122.8-159.56-128.88-64.66-287.42-10.82-342.2,123.54-3.58,8.78-12.33,31.83-12.03,40.56.16,4.55,6.24,3.73,9.32,5.02,4.44,1.86,7.19,5.63,11.75,5.9,2.38-7.61,4.32-16.67,6.95-24.06,26.4-74.35,80-133.27,158.94-151.11,105.28-23.8,204.9,22.91,250.98,120.59,6.8,14.42,11.58,29.46,15.02,45.06,6.02,1.65,12.58,2.2,18.43,4.47,3.02,1.18,4.84,3.43,7.82,4.09ZM559.94,214.51c-56.51-85.18-166.93-114.06-259.31-68.51-53.53,26.4-88.9,75.99-106.37,132.12-1.09,3.5-6.37,21.99-6.07,24.06.19,1.32,1.39,3.59,3.01,3.45.95-.08,10.29-7.48,13.15-8.85,2.47-1.18,11-3.31,12.06-4.64.93-1.17,2.2-9.21,3.07-11.71,21.68-62.66,64.22-112.49,130.01-129.47,92.72-23.94,180.01,32.69,211.25,119.5,1.02,2.85,2.83,14.11,4.39,15.19,2.98-1.87,22.51-6.7,22.65-8.01-2.77-10.62-6.11-22.12-10.59-32.2-4.13-9.29-11.73-22.61-17.25-30.93ZM492.1,201.25c-66.26-56.54-165.84-47.44-220.71,19.95-15.26,18.74-29.24,44.81-34.69,68.33.42.42,9.71-.33,11.88.06,2.58.46,8.46,5.14,10.91,3.63,1.21-.75,1.87-6.93,2.49-8.47,27.42-68.44,91.84-115.56,167.61-92.82,44.09,13.24,77.52,53.32,93.49,95.19,3.21,8.42,5.48,17.21,7.36,26.02.41,1.53,6.64,4.85,7.42,4.78,1.13-.09,9.73-16.59,12.55-18.36-3.02-14.97-8.79-27.88-15.45-41.48-10.04-20.5-24.82-41.44-42.85-56.82ZM182.54,334.09c-1.47-1.38-3.14-9.29-4.5-12.18-12.25-26.12-41.97-33.64-67.02-21.11-16.8,8.41-31.14,27.46-26.83,47.17,1.21,5.52,8.02,3.64,6.04,11.19-2.69,10.22-16.63,4.41-24.7,6.06-29.04,5.96-41.09,48.74-16.8,66.79,6.44,4.78,14.8,7.1,22.3,8.22,1.53.23,2.48,1.67,3.83,1.76,11.29.77,20.5-6.35,29.45-11.53,11.06-6.39,11.93,4.22,16.89,11.14,22.26,31.1,74.43,30.9,97.35,0,2.79-3.76,5.84-15.64,8.33-16.46.98-.32,5.4-.99,6.33-.87,3.4.42,3.68,4.07,5.37,5.9,8.64,9.33,17.7,17.1,30.51,20.06,21.04,4.87,44.93-3.72,55.75-22.58,14.09-24.56-2.07-53.31-30.52-53.17-4.9.02-10.95,4.76-15.15-1.07-4.58-6.37,1.48-14.4,2.73-20.83,4.62-23.69-21.97-43.13-42.92-45.81-16.64-2.13-33.9,7.16-43.77,20.01-1.81,2.36-2.05,5.79-4.94,7.45-2.19,1.26-5.84,1.67-7.76-.14ZM740.15,432.98c19.27-20.09,8.33-48.09-19.13-51.84-6.45-.88-17.2,2.4-16.66-8.14.39-7.52,9.2-7.7,11.97-16.71,7.06-22.97-19.95-40.88-41.04-36.33-14.89,3.21-13.3,7.49-22.48,14.82-12.45,9.95-13.19-10.63-16.94-17.33-19.19-34.28-74.33-26.26-83.15,11.78-1.27,5.47,2.09,14.52-7.13,13.64-5.76-.55-11.03-7.27-17.56-9.22-11.29-3.38-28.89-2.25-38.71,4.65-11.18,7.86-18.78,23.34-15.49,37.1,1.36,5.71,8.5,7,8.24,13.74-.17,4.42-4.23,6.61-8.25,7.13-4.22.55-6.42-1.7-12.2-.76-23.74,3.86-28.11,30.79-9.14,44.13,14.6,10.26,35.87,8.24,50.28-1.14,5-3.25,11.77-11.73,17.85-10.73,3.69.61,7.91,10.77,10.63,14.23,9.71,12.35,28.34,20.52,43.84,22,20.22,1.93,41.45.67,58.97-9.71,6.57-3.89,15.12-12.52,19.19-18.97,1.8-2.85.73-6.9,5.9-7.54,5.97-.73,8.81,6.17,12.18,9.2,18.56,16.62,51.92,13.63,68.83-4Z"/>
</svg>