<?xml version="1.0" encoding="UTF-8"?>
<svg id="Layer_1" data-name="Layer 1" xmlns="http://www.w3.org/2000/svg" viewBox="0 0 238.22 238.22">
  <defs>
    <style>
      .cls-1 {
        fill: #ffcf00;
      }

      .cls-2 {
        fill: #fff;
      }
    </style>
  </defs>
  <rect class="cls-1" x="0" width="238.22" height="238.22" rx="24.22" ry="24.22"/>
  <path class="cls-2" d="M133.57,49.7c4.64.36,9.3.75,13.95,1.09,10.9.78,21.23,1.99,32.09,3.23.67.08,1.29.47,1.9.49.99.04,1.65-1.09,2.72-1.37,2.98-.77,7.53-.24,8.64,3.15.68,2.06.97,4.04-.37,5.89-.58.8-1.56,1.17-1.79,1.53-.16.25-.82,2.42-.8,2.74,4.4,15.9,10.6,31.2,15.45,46.94,2.06,6.69,3.73,13.52,5.84,20.2.94,1.61,4.66-.02,5.27.2,2.85,1.06,0,3.79-.72,5.02-5.04,8.59-8.05,14.76-17.45,19.61-10.51,5.42-25.4,4.56-35.57-1.19-11.82-6.68-14.58-13.36-18.59-25.71-.27-.83-1.21-1.17-.63-2.47.46-1.05,3.42.49,4.18-.51,5.88-11.43,12.72-22.35,18.83-33.65,5.6-10.37,10.72-21.02,16.39-31.35-1.02-2.95-2.86-2.6-5.61-2.76-13.72-.84-27.98-.63-41.78-1.07-.77-.02-3.63-.49-3.97-.32-.14.07-1.2,2.14-1.73,2.68s-1.26.61-1.69,1.36c-1.41,2.5-1.07,9.84-1.26,12.93-1.48,24.7-3.09,49.29-4.61,73.87-.47,7.54-.81,15-.99,22.55-.03,1.43-.71,8.36,0,8.94.36.29,1.9.49,2.63.89,1.23.66,2.86,2.5,3.49,3.75.25.49.16,1.1.35,1.5.46,1.01,4.96,1.61,6.21,2,3.63,1.15,7.3,2.96,10.37,5.19,3.64,2.65,10.08,8.15,9.44,13.14-.14,1.08-.64,1.28-.92,2-.22.57.21,1.38-.71,1.91-.65.38-3.79-.04-4.75-.18-18.93-2.82-37.83-3.25-56.77-5.25-5.75-.61-11.58-1.7-17.41-1.91-2.93-.11-4.14,1.47-5.27-2.25-.62-2.04.46-3.91,1.53-5.64,3.69-5.94,11.36-8.5,17.99-9.42,3.27-.45,6.63-.55,9.92-.83.36-4.43,3.03-7.94,7.9-7.1.13-1.08.64-2.07.85-3.13.46-2.26.4-4.48.61-6.63,1.55-15.67,3.9-31.32,5.74-46.97,2.31-19.74,4.49-39.43,6.78-59.27l-3.45-4.82c-.94-.83-3.26-.3-4.44-.38-12.15-.84-24.29-2.83-36.21-3.94-1.73-.16-9.04-1.08-10.08-.58-.21.1-2.79,3.29-2.26,3.92,2.66,6.97,5.2,14.01,7.55,21.09,2.88,8.66,5.25,17.44,7.83,26.21,1.79,6.07,3.75,12.08,5.54,18.15,1.12,1.74,8.62-.85,6.09,3.24,2.98.64-1.28,3.56-1.89,4.65-.52.94-.8,2.31-1.45,3.48-6.32,11.27-17.51,16.23-30.12,16.67-11.01.38-24.56-4.7-30.6-14.4-2.1-3.37-5.39-11.48-6.46-15.34-1.45-5.24,2.27-4.19,5.97-3.86,3.28-6.58,6.4-13.26,9.75-19.81,3.77-7.38,7.52-14.75,11.27-22.14,2.87-5.66,6.57-11.64,9.08-17.38.2-.45.77-1.48.75-1.85,0-.1-.91-.74-1.18-1.12-.91-1.29-1.97-4.73-2.21-6.34-.54-3.7.04-2.38,2.32-3.08.78-.24,2.18-1.62,3.23-1.96,1.65-.54,4.36,0,5.84.95.77.49,1.39,1.56,1.82,1.81.69.4,5.82.2,7.08.23s2.74.44,3.9.4c.53-.02.41-.51.62-.51,9.69-.11,19.98,1.79,29.65,2.19,2.87.12,6.11-.37,9.04-.04.62-2.17,2.55-4.36,4.32-5.72.41-.32,1.09-.3,1.32-.64.88-1.3.83-8.29,1.23-10.45.19-1,.77-2.14,1.9-2.35.69-.13,1.05.24,1.49.22.88-.04,2.61-1.15,3.53.24,1.1,1.66-.9,10.86-.66,13.33,1.64,1.81,2.86,4.04,4.19,6.1ZM125.49,42.86c-.09-3.31,1.43-6.54,1.06-9.96-.47-.04-1.53,8.39-1.55,9.22-.02.56-.29.78.49.74ZM160.46,54.2l-1.18-.68-20.68-1.48c7.27,1.21,14.53,1.51,21.86,2.16ZM145.63,54.51l-11.63-1.08c-.06,0-.05.91-.1,1.11l.69.08,11.04-.11ZM168.25,57.44c-11.58-1.51-23.3-.36-34.95-1.01l-.46.52c1.97.41,4.04-.09,5.99-.01,6.47.26,13.02.86,19.46.97.71.01,1.85-.42,2.25-.36.16.02.08.52.29.59,1.62.58,2.98-.6,4.22-.71.68-.06,1.49.15,2.2.19.34.02,1.01.3.99-.19ZM115.91,52.87c-1.05-.14-2.13-.14-3.18-.3-9.03-1.35-18.29-1.51-27.46-1.98l-6.58.22c1.43.12,2.87.28,4.3.41,9.48.87,21.05,2.21,30.49,2.25.66,0,2.06,0,2.43-.6ZM62.64,48.8c-.15-.21-1.51-.24-1.87-.48l-.09.84c-.66-.55-.46-.13-.88.47.47-.03,2.66.35,2.77.26.04-.04.13-.99.07-1.08ZM69.11,51.6c-.03-1.84-.89-1.01-2.11-1.31-.49,1.18,1.15,1.04,2.11,1.31ZM80.16,52.91l17.72,1.64-3.13-.87c-2.46.53-4.96-.47-7.2-.64-.54-.04-1.09.19-1.68.14-1.57-.13-3.15-.37-4.72-.45-.34-.02-1.01-.31-.99.19ZM115.09,55.59l-5.12-.47-4.62.12c2.92.27,5.83.37,8.75.53.34.02,1.01.3.99-.18ZM79.36,52.56l-6.09-.56,3.7.74,2.39-.18ZM187.33,104.74s-.72.14-.85.07c-.46-.25-.83-4.29-.88-5.15-.56-9.44-.29-20.16.2-29.54l-.26-3.25c-2.33,6.34-6.39,11.82-9.33,17.86-5.61,11.52-12.11,22.63-17.96,34.09-.9,1.76-1.48,3.76-2.36,5.41-.6,1.13-1.46,1.07-1.61,3.03-.01.17.53.1.51.31-.05.41-.93.91-.38,1.71.24.35,3.26.42,3.94.43,14.88.28,25.91.46,40.78,2.94,2.41.4,4.87.72,7.31.96-1.45-4.65-3.32-9.18-4.72-13.85s-2.28-9.85-3.59-14.65c-3-10.94-7.98-22.16-10.06-33.31-.12-.66-.14-1.24-.02-1.9l-.78,2.28c.23,7.73,1.65,15.56.5,23.26l.31,4.2-.54-.19c-.09.98.24,1.97.03,2.96-.12.57-.71.22-.66.75.03.38.73,1.26.42,1.59ZM124.7,63.46c-.88-.22-1.61,2.05-.92,2.43.17.09,1.14-1.98.92-2.43ZM78.7,122.88l-19.07-62.37c-1.5,2.74-3.19,5.36-4.61,8.15-6.56,12.95-13.19,26.38-18.9,39.73-.45,1.05-2.56,5.48-3.26,5.89-.22.13-1.04-.04-1.13.07-.08.09.03,2.12.07,2.33.05.25.57.23.52.37-.16.46-1.22.93.02,1.27,2.38.64,5.35.05,7.79.15,10.88.47,20.83,1.31,31.54,3.22,2.33.41,4.6,1.24,7.01,1.2ZM123.87,72.32c-.06-.94.69-2.46-.27-3.1l-1.11,2.97,1.38.13ZM118.31,114.26l2.99-17.49c-.21-1.02,0-1.75.29-2.73l2.15-20.34-.87,3.41c-1.28,11.32-3.16,22.33-4.53,33.64-.1.82-.18,1.68-.22,2.51-.02.34-.3,1.01.18.99ZM205.37,124c-1.26-4.68-2.47-9.4-3.87-14.04-.14-.47-.4-1.49-.81-1.75.64,4.48,2.16,8.77,3.48,13.08l1.19,2.71ZM121.27,117.83c.57-.77.34-5.74.43-7.01.15-2.22.51-4.44.63-6.66.02-.34.3-1.01-.18-.99-1.67,11.35-4.19,22.49-6.2,33.78l1.12-3.42c.94-4.32,1.47-9.1,2.74-13.32.51-1.69.79-1.45,1.47-2.38ZM31.45,111.52c1.46-4.12,3.89-7.86,5.03-12.1l-1.68,3.05c-.9,2.66-2.48,5.31-3.4,7.92-.1.27-.5,1.13.05,1.13ZM116.26,121.33l.98-10.52-.96,4.23c-.04,1.48-.37,2.97-.39,4.44,0,.38-.02,1.69.38,1.85ZM81.22,122.83c-.06-2.69-1.69-5.15-2.1-7.84l-.7-1.08,1.65,6.17,1.15,2.75ZM111.76,163.93c1.15-4.08,3.15-7.97,4.44-12.05,2.21-6.98,3.55-12.98,4.13-20.25.21-2.64.54-5.27.74-7.9l-1.04,5.06c-.93,1.02-.6,2.12-.85,3.28-.29,1.36-.69,2.73-.95,4.1-.04.22-.17,1.01.24.58l1.23-4.21c.48-.02.21.66.18.99-.3,4.52-3.53,14.86-4.97,19.57-1.02,3.33-2.36,6.62-3.58,9.88l.42.94ZM188.86,133.37c-2.16-.14-4.37-.3-6.53-.33-.32,0-1.25-.03-1.29.44l5.39.18,2.44-.29ZM63.24,122.57c-1.73-.3-3.65-.23-5.4-.5l-.02.27c.64.12,1.41.41,2.05.47l5.4.5.02-.27c-.76.2-1.55-.38-2.05-.47ZM162.11,132.84c-.19-.81-2.16-.28-2.83-.18-1.48.22-3.97.63-5.37.98-.34.09-.76.21-.86.59l5.14-.37c.86-.87,2.69-.98,3.92-1.03ZM30.02,121.9c-.06-.04-.07-.93-.49-.22-.07.12-.33,1.58-.29,1.65l2.26-.35c-.18-.47-1.01-.77-1.48-1.08ZM169.75,134.67c-3.8.46-7.68.37-11.47.8-1.8.2-6.04.77-7.6,1.32-1.43.5.36.53.6.7.2.15.12,1.06.89.82,2.71-.84,5.5-1.53,8.28-2.06s5.72-.69,8.48-1.18c.29-.05.84,0,.82-.39ZM181.63,136.05c-1.33-.47-3.47.57-4.62.41-.18-.02.01-.55-.51-.64-.62-.11-4.33.24-5,.43l-1.12.71,9.02-.36,2.23-.55ZM52.55,124.93c-5.95-.23-12.27-.86-18.19-.22-.76.08-1.53.63-2.47.26-.12.57.95.22,1.08.38.11.13-.07,1.46-.57,1.62-1.08.35-.66-1.22-.87-1.44-.06-.06-1.78-.5-1.66.23.32,1.89,2.99,1.25,4.33,1.38.04-.62-1.19.08-.74-1.04.39-.98,5.3-1.14,6.43-1.19,3.31-.12,6.69.04,9.98.33l2.68-.3ZM207.5,140.13c-8.08-.83-16.21-1.21-24.32-1.14-7.37.07-14.87.34-22.08,1.75-.58,3.06,4.85.56,6.34.22,1.41-.32,2.93-.36,4.32-.8-.07.33.04.81-.14,1.06-.25.35-7.04,2.51-8.04,2.93-.29.32,3.61,3.32,4.48,2.93.08.08-.45.58-.34.77.12.22,3.85,2.78,4.09,2.85.95.25,2.82-.4,3.79-.69.1,1.28-1.36,1.17-1.86,2.06,3.84,1.25,8.96,2.13,13,1.95,2.82-.12,10.12-3.27,12.54-4.9,3.44-2.31,5.03-6.47,8.24-9ZM61.81,127.46c-.34-.28-5.61-.1-6.57-.06-.42.02-.86-.04-1.01.47,3.09.23,6.19.66,9.28.87,1.21.08,2.63-.31,3.9.06.63.18.54,1.07,1.42,1.11-3.56.99-7.82-.16-11.56-.38-4.2-.25-8.54-.48-12.77-.61s-8.47.12-12.73.22c-.96,4.35,6.21,1.31,6.79,2.03.09.11-.1.85-.24,1.09-.51.83-3.17.89-4.14,1.02-.18.15,1.77,2.25,2.22,2.38,1.02.31,5.25-1.34,6.61-1.29.43.48-2.96,2.06-3.36,2.25-.57.28-1.29.54-1.92.61.38.49,2.13,1.91,2.57,2.06.58.19,1.6-.44,2.23-.44.7,0,1.49.53,2.27.43-.52.89-1.68.95-2.59.88-.09.06.11.35.24.44.34.24,5,1.73,5.56,1.79,1.57.17,6.65.53,8.07.46.87-.04,1.69-1.02,2.06.17l-5.15,1.34c6.04,1.71,12.13-1.46,17.26-4.46,2.89-1.69,8.32-4.94,9.17-8.29.45-1.76-.79-2.14-2.3-2.44-3.87-.78-9.75-1.07-13.81-1.33-.58-.04-1.1.13-1.67.14l.19-.54ZM168.11,137.31c-4.72-.07-9.41.98-14.06,1.7l-1.74.04c.48.49.51,1.48,1.34,1.34l7.15-1.88,7.3-1.2ZM28,127.68l-.54-1.72c-.27.37-1.81.6-1.88.67-.05.05.1,1.35.15,1.4.44.46,1.36-.35,1.21-1.01l1.05.65ZM160.91,142.79c.05-3.1-4.39-1.22-6.32-1.14,1.6,3.42,3.52,1.71,6.32,1.14ZM27.24,129.85c-.46.95,2.31,3.97,2.57,2.33.02-.12-.79-2.26-.88-2.34-.41-.36-1.2.13-1.69.01ZM162.37,144.63c-.23-.16-3.53.98-4.23.84.49.41,1.63,1.93,2.04,2.16.21.11,3.54-.53,3.68-.65.4-.35-.73-1.01-1.01-1.33s-.44-.98-.48-1.01ZM33.82,137.16l-2.49-3.17c-2.53-.92.63,2.96,1.08,3.17.34.16.99-.14,1.41,0ZM159.38,150.19c-1.05-1.05-2.61-3.12-3.68-3.97-.4-.32-.69-.16-.7.08,0,.3,3.53,3.9,4.38,3.89ZM37.06,144.44c-2.04-2.38-4.72-4.16-6.77-6.52-.28-.33-2.52-3.91-2.9-3.59l2.06,3.28c.94.43.9,1.34,1.39,1.91,1.56,1.82,4.13,3.79,6.23,4.92ZM168.49,151.31c-.42-.58-2.85-2.91-3.26-3.05-.72-.25-2.73.66-3.73.17.61.81,3.33,3.36,4.11,3.6.53.17,2.12-.88,2.88-.73ZM37.97,140.62c-.09-.14-2.43-2.03-2.59-2.09-.42-.15-.73.08-1.13.07-.24.24,2.13,2.24,2.5,2.39.52.22,1.67.28,1.22-.37ZM183.91,156.66c-2.06-1.07-4.46-.75-6.74-1.18-2.32-.44-5.55-2.44-7.07-2.54-.67-.04-1.5.62-2.34.26-.2.64.05.45.3.65,2.41,1.91,12.07,3.66,15.04,3.2.29-.04.84,0,.81-.4ZM111.72,170.35c2.31-7.14,5.67-14.01,7.29-21.39l-7.36,19.91.07,1.47ZM43.79,145.62c1.81.46,4.33.19,6.23.58l-7.42-2.65-2.1-.04c.6.76,2.41,1.9,3.29,2.12ZM185.34,159.3l-2.9-.27-2.13.36,2.63.24,2.41-.33ZM58.5,148.11l-7.84.25c1.4,1,3.88.15,5.57.24l2.27-.49ZM111.65,180.12c1.42-7.94,6.02-15.05,6.89-23.1l-3.58,10c-1.94,4.28-3.65,8.67-4.71,13.25l.96-1.31.45,1.16ZM114.95,180.71c.36-.05.65-.39.83-.69.44-.69,2.22-4.37,2.42-5.08.37-1.31.03-2.4.13-3.69l-3.38,9.46ZM113.34,180c1.06-1.87,1.53-3.87,1.95-5.96l-1.58,3.48c0,.63-1.03,2.01-.37,2.48ZM117.19,180.63c.1.11,1.06.13,1.29-.14.43-.5.06-1.38.02-1.97-.27-.24-1.42,1.99-1.31,2.11ZM104.48,182.25c-.84-1.06-3.73,1.71-3.88,2.71,1.18-.79,2.18-2.34,3.8-1.88-.02-.23.12-.77.07-.83ZM108.07,185.65c.1-.1,0-2.41.12-2.78l-1.81,2.9c.27-.01,1.63-.06,1.69-.12ZM124.6,188.02c-.72-1.1-2.25-1.63-3.45-1.99.77,1.14,2.17,1.69,3.45,1.99ZM120.3,189.3l-2.99-.84c-.2.74.09.49.54.68.24.1,3.48,1.17,2.45.15ZM135.87,192.98l-6.79-2.03c-.22.8.15.47.59.65,1.41.58,3.72,1.31,5.21,1.56.3.05,1.01.3.99-.18ZM106.05,189.38c-.93.26-6.13-.18-6.42-.04-.06.03.21.76-.38,1.08l6.8-1.04ZM114.23,191.54c-2.57-.09-5.67-.02-8.19.44-.29.05-.84-.01-.82.39,2.66-.19,5.33-.25,8-.37.42-.02.86.04,1.01-.47ZM96.76,190.2l-8.23,1.47c2.11-.03,4.68-.21,6.76-.62.22-.04,2.02-.3,1.47-.85ZM128.46,193.51c-.94-.71-1.81.17-2.8-.08-3.6-.9-8.11-.77-11.93-.45-.42.04-.99.58-1.62.31l15.02,1.71.27.55c-1.99,1.54-4.01,2.22-6.48,2.67-7.99,1.45-16.87,1.69-24.96,2.87l-3.35.73c7.5.73,15.03-.48,22.54-.7,5.61-.16,12.45.56,17.86-.04.87-.1,1.71-.9,2.43-.46-.51.24-.35.93-.81,1.15-.67.32-3.26.8-4.12.92-2.09.27-4.24.11-6.33.38h-12.14c.42,1.11,1.87.42,2.88.52,4.76.47,9.61.51,14.44.79,4.86.29,9.69,1.11,14.57,1.08l-.17-1.13,2.41,1.06c-.73-1.05-1.99-1.97-3.01-2.74-.57-.42-2.9-1.59-2.98-1.75s.07-.57.06-.81l2.24-.07c-1.43-.51-2.98-.81-4.4-1.33-3.39-1.25-6.82-3.07-9.61-5.18ZM145.53,199.27c-.67-.87-5.78-3.37-7.09-3.95-1.56-.68-3.22-1.26-4.85-1.71-.1.38.43.42.71.55,2.32,1.1,4.68,1.93,6.95,3.18.71.39,4.28,2.9,4.59,2.71-.07-.23-.16-.6-.3-.77ZM95.65,193.17c-2.72.29-5.43.86-8.18.76l-8.84,2.13c3.01-.23,6.1-.39,9.08-.91,1.14-.2,2.19-.69,3.32-.93,1.47-.32,3.43-.17,4.62-1.04ZM108.33,194.9l-.08-.56c-4.07.37-8.2.34-12.25.94-6.73,1.01-13.3,2.67-20.07,3.53-.99.13-1.99-.61-1.81.74,6.72-1.26,13.49-2.31,20.28-3.12.58-.07,1.23.15,1.85.08,4.03-.49,8.06-1.32,12.08-1.61ZM81.4,200.78c1.65.39,4.29.4,6.09.56.32.03,3.36-1.17,4.27-1.32,1.83-.31,3,.1,4.41.03.49-.02.48-.54.78-.61,3.56-.83,7.59-1.28,11.23-1.81,3.61-.52,7.26-.9,10.9-1.19l-2.61-.53c-4.23.16-8.52,1.24-12.69-.04l-.08.83,1.39.13c-.63.78-1.97.33-3.07.75-3.53,1.35-3.49.87-6.97,1.13-4.77.35-9.52,1.26-14.28,1.45-.13.27.53.59.64.62ZM148.41,208.39c-.65-.74-4.14-.72-5.2-.27-.34.15-.46-.05-.41.59.19.18,4.48.22,5.15.2.39,0,.82-.1.46-.51Z"/>
</svg>