<?xml version="1.0" encoding="UTF-8"?>
<svg id="Layer_1" data-name="Layer 1" xmlns="http://www.w3.org/2000/svg" viewBox="0 0 238.22 238.22">
  <defs>
    <style>
      .cls-1 {
        fill: #fff;
      }

      .cls-2 {
        fill: #06a9e7;
      }
    </style>
  </defs>
  <rect class="cls-2" x="0" y="0" width="238.22" height="238.22" rx="24.22" ry="24.22"/>
  <path class="cls-1" d="M117.08,20.27c8.02-1.48,16.26,7.69,23.04,11.61,13.79,7.97,29.68,11.11,45.39,12.9,13.48,1.54,25-2.74,26.43,15.41,4.48,57.14-19.71,127.03-74.53,152.48-16.07,7.46-21.08,7.3-36.86-.67C43.93,183.39,20.27,120.13,26.82,58.93c1.7-15.84,15.77-11.84,27.03-12.74,15.43-1.23,31.33-5.75,44.67-13.62,4.58-2.7,14.47-11.54,18.56-12.3ZM131.67,35.18c-2.34-2.18-5.73-4.98-8.92-5.47,2.31,2.34,5.71,4.67,8.92,5.47ZM117.76,32.55c-17.9,12.95-36.7,22.58-59.14,24.57-3.04.27-18.09-.05-19.58,1-.81.57-1.25,4.31-1.36,5.5-4.71,54.52,16.58,112.32,67.09,137.98,7.65,3.89,13.75,7.17,22.28,4.16,28.94-10.22,53.94-42.96,64.12-70.97,7.14-19.65,11.71-51.77,9.79-72.54-.16-1.78-.54-5.09-2.56-5.67-20.76-1.17-40.53-3.46-59.44-12.57-3.62-1.74-19.14-11.78-21.21-11.45ZM204.36,66.72c-.36-3.67,1.28-8.97-2.04-11.65l2.04,11.65ZM37.7,120.88l-3.42-15.76c.02,3.66.87,7.43,1.7,10.98.3,1.27.57,4.18,1.72,4.79Z"/>
</svg>