<?xml version="1.0" encoding="UTF-8"?>
<svg id="Layer_1" data-name="Layer 1" xmlns="http://www.w3.org/2000/svg" viewBox="0 0 238.22 238.22">
  <defs>
    <style>
      .cls-1 {
        fill: #ffcf00;
      }

      .cls-2 {
        fill: #fff;
      }
    </style>
  </defs>
  <rect class="cls-1" width="238.22" height="238.22" rx="24.22" ry="24.22"/>
  <path class="cls-2" d="M114.64,21.56c2.74,2.02,9.46,5.23,12.77,6.8,17.54,8.35,31.52,8,50.49,5.86,2.93-.33,10.69-2.33,12.85-1.55.69.25,4.02,3.11,4.55,3.75.34.41,3.03,4.21,3.11,4.46,1.61,5.01,2.17,11.48,2.88,16.79.96,7.13,1.37,12.25,1.34,19.48-.12,28.92-2.12,54.79-15.37,81.04-11.57,22.92-29.94,43.67-50.41,59.11-2.14,1.61-1.19,2.4-4.52,1.49-9.92-2.71-20.88-11.26-29.5-16.96-8.55-5.65-17.27-11.36-24.75-18.5-7.38-7.05-18.01-17.8-23.11-26.43-13.34-22.53-21.65-49.35-25.11-75.29-.66-4.95-1.53-10.26-1.98-15.22-.11-1.25-.47-5.52-.35-6.5.17-1.46,1.86-4.27,3.14-5.05,6.5-3.92,16.92-3.57,24.51-4.95,19.08-3.47,37.8-16.24,50.97-30.1,1.6-1.04,5.48-1,7,.02.64.43.97,1.32,1.51,1.72ZM97.96,31.24c1.26-.2,2.03-1.28,2.92-2.07l2.14-2.96-5.06,5.03ZM126.39,31.03c-2.24-1.15-4.72-1.95-6.99-3.11-1.6-.82-2.91-2.47-5.05-2.52-.07.67.44.74.84,1.04,3.58,2.68,8.81,4.91,13.06,6.23.99-.06.2-.42-.13-.6-.57-.31-1.29-.82-1.72-1.04ZM110.31,28.72c-.74-.45-1.8-.35-2.48.15-12.16,12.3-25.74,20.91-42.35,26.03-8.33,2.56-17.13,3.5-25.41,6.03-.81.25-1.8.11-2.53.43-1.35.59-1.45,5.59-1.36,6.99.57,8.34,3.2,20.43,5.06,28.68s3.55,15.36,6.36,23.02c14.02,38.14,44.97,74.66,83.38,89.27,1.54.59,2.8,1.48,4.38.37.29-.2.3-.67.53-.85,20.44-16.14,34.46-36.71,45.91-59.91,12.39-25.07,13.21-57.69,10.71-85.13-.41-4.46-.88-10.14-1.73-14.54-.29-1.5-.92-4.11-1.93-5.22-.67-.73-4.61-2.34-5.67-2.34-12.74-.07-23.53,2.77-36.65.45-9.07-1.6-26.56-7.09-34.39-11.77-.8-.48-1.39-1.39-1.84-1.67ZM98.63,33.85l-1.23.69-8.16,7.25c1.77-.34,2.98-1.97,4.35-3.05,1.85-1.45,4-2.47,5.04-4.89ZM83.01,45.62s.03-.71-.24-.63c-1.52,1.03-3.29,1.59-4.88,2.49-.37.21-1.28.51-1.23.98.88,0,6.1-2.52,6.35-2.85ZM171.7,37.13c-7.64.68-15.23-.29-22.87-.05l6.17,1.06c4.8.37,9.55,0,14.35-.16l2.35-.85ZM69.76,49.71c-1.45.08-2.85.45-4.25.72-.93.18-1.86.32-2.82.5-6.3,1.23-12.44,3.11-18.81,3.98l9.13-1,14.31-3.27,2.44-.94ZM40.41,54.2c-3.47.96-5.66.5-7.18,4.29.41.29,2.39-2.3,3.01-2.59,1.2-.57,3.44-.37,4.17-1.7ZM185.89,37.64c-3.58-.22-7.15.09-10.66.71,0,.82.07.53.55.64,1.42.33,6.58-.39,8.36-.64.37-.05,1.83-.2,1.76-.71ZM42.25,58c-1.11.03-2.9-.02-3.55,1.13,1.07.24,2.96,0,3.55-1.13ZM193.07,41.46c-.24-.11-.65.07-.95.07-.37.46,1.88,6.66,2.29,7.67.23.55-.11.95.81.67-.92-1.33-.57-7.71-2.15-8.42ZM35.33,79.75c.02-2.88-.7-5.59-1.11-8.45-.1-.69.16-1.37.07-2.03-.17-1.25-.61-3.97-1.59-4.66.41,4.73,1.35,9.36,2.16,14.02.07.4-.09,1.26.48,1.11ZM32.94,82.08c-.03-1.56-.24-3.64-.66-5.14-.13-.49-.17-1.01-.81-1.06l1.47,6.2ZM195.44,95.59c.62-5.38,1.21-10.71,1.26-16.15.04-4.59.14-11.73-.47-16.08-.21-1.46-.96-3.22-1.22-4.72-.52.12-.44,1.5-.42,1.91.12,2.59.85,5.32,1.02,7.93.38,5.87.32,13.5.08,19.41-.09,2.2-.63,4.46-.63,6.66,0,.37-.22,1.19.38,1.03ZM37,102.91c-.31-2.09-.52-4.19-.82-6.29l-.98-2.39c-.37,3.39.91,6.63,1.62,9.88,1.03-.48.22-.93.18-1.2ZM199.54,96.07c-.22-4.05,1.04-8.15.11-12.12l-.69,2.91c.45,2.71-.33,5.4.11,8.1.06.4-.08,1.26.48,1.11ZM43.11,121.46l-1.96-4.79c.3,1.33.6,2.92,1.11,4.17.23.57.02.87.85.61ZM191.07,129.13c.83-.91,1.23-2.5,1.6-3.68,2.21-7.16,2.86-14.77,3.44-22.21-.51.21-.72.78-.86,1.27-1.13,4.04-1.04,9.79-1.74,14.14-.57,3.54-1.58,7.01-2.43,10.48ZM65.18,159.3c-2.05-4.67-5.49-8.64-7.39-13.4l-6.74-9.99c.5,3.94,3.67,7.02,5.66,10.24,2.27,3.66,4.3,7.52,6.58,11.17.46.74,1.02,1.71,1.89,1.98ZM186.67,152.24c3.09-5.38,5.86-11.22,6.81-17.37l-2.47,5.69c-.79,4.17-3.38,7.61-4.35,11.68ZM76.87,174.26l-3.65-4.34-1.05-.76c.79,1.23,1.89,2.74,2.9,3.77.5.51,1.1,1.1,1.79,1.34ZM178.27,167.8l1.75-2.08,2.92-5.93c-1.78,1.95-2.92,4.44-4.28,6.71-.24.4-.74.46-.38,1.3ZM173.54,172.78l1.4-.86,2.71-3.71-4.11,4.57ZM168.65,179.15l-15.92,17.2c3.88-2.72,6.66-6.7,9.77-10.19.47-.53,6.65-6.65,6.15-7.02ZM105.05,199.52c.06-.64-.45-.74-.81-1.07-1.1-1.01-2.64-2.16-4.04-2.67l4.85,3.74ZM126.38,213.57c.04-.63-.4-.78-.84-1.03-1.62-.91-3.73-1.86-5.46-2.57l-6.35-4.54c-2.11-.34-.37,1.33.58,1.99,1.75,1.23,4.17,2.15,5.94,3.1.78.42,5.62,3.68,6.14,3.04ZM144.79,205.12l-2.01.98-5.04,4.3c2.48-1.32,5.33-3.09,7.05-5.28ZM134.32,212.54c-.05-.04-.78-.04-1.15-.23-2.58-1.37-5.13-1.92-7.96-2.62.57,1.06,1.87.81,2.81,1.18,1.41.55,4.62,2.39,5.9,2.39.65,0,.65-.53.4-.72Z"/>
</svg>