<?xml version="1.0" encoding="UTF-8"?>
<svg id="Layer_1" data-name="Layer 1" xmlns="http://www.w3.org/2000/svg" viewBox="0 0 600 600">
  <defs>
    <style>
      .cls-1 {
        fill: #f3fbfe;
      }
    </style>
  </defs>
  <path class="cls-1" d="M471.77,586.83c-3.58,3.58-14.16.17-18.2-1.98-17.98-9.58-38.61-29.81-55.04-42.83-31.74-25.16-64.5-50.25-94.97-76.69-3.14-2.73-15.23-15.96-17.84-16.47-1.45-.28-4.92,2.1-6.29,3.05-19.57,13.61-39.09,33.05-57.93,48.28-31.69,25.62-64.12,51.57-97.04,75.7-5.97,4.37-12.62,13.4-20.77,10.97-4.31-1.28-5.24-6-4.93-9.82.98-12.13,6.48-22.01,10.08-32.87,8.98-27.1,18.32-54.52,28.12-81.31,10.52-28.74,21.24-57.42,33.32-85.54-.17-1.95-22.21-16.88-25.41-19.39-8.99-7.04-17.43-14.91-26.41-21.87-32.28-25-70.66-49.52-100.79-76.23-3.13-2.78-11.3-10.44-13.43-13.39-6.43-8.91,7.84-11.13,14.43-11.31,58.21-1.54,116.19-4.96,173.85-4.31,7.4.08,15.27,2.23,22.95,1.01,7.97-23,15.63-46.14,23.68-69.12,11.59-33.1,22.53-66.91,35.7-99.48,5.29-13.08,12.62-32.04,19.34-43.96,4.37-7.75,11.08-11.13,17.36-2.9,9.38,12.28,15.84,55.79,20.39,72.95,5.72,21.55,11.98,43.18,17.83,64.78,6.79,25.06,14.47,49.88,20.27,75.21,1.79,1.39,3.79,1.48,5.94,1.66,11.95.99,30.12-2.09,42.89-2.31,46.95-.78,95.34.81,142.69-1,11.36-.43,25.45-5.92,33.8,5.91,2.61,3.7,2.48,4.95.55,9.13-2.37,5.11-19.79,17.98-25.29,21.91-35.69,25.54-75.39,50.3-112.23,74.46-10.6,6.95-24.78,13.96-34.62,21.17-1.11.81-6.71,6.13-7.04,6.87-1.22,2.76,13.29,43.49,12.82,50.51,8.67,27.72,16.96,55.75,24.73,83.63,4.73,17,20.33,63.34,19.91,77.74-.04,1.48-1.57,6.95-2.45,7.83ZM292.86,71.03c4.27-5.43,8.02-14.55,8.56-21.46-5.36,5.51-5.51,14.57-8.56,21.46ZM308.93,75.33c-1.4-1.74-1.89.45-2.39,1.37-8.37,15.43-12.41,36.21-20.95,51.99-15.56,35.73-25.32,79.86-42.24,114.4-6.5,13.27-5.17,5.49-15.18,8.42-1.82.53-5.11,4.5-8.36,4.76-12.19,31.87-27.69,62.27-43.76,92.32l.33,1.41c3.55,3.43,21.8,14.75,22.01,18.71.19,3.47-7.84,16.8-9.63,21.49-5.61,14.71-7.98,30.95-13.91,45.62,5.34-6.12,7.42-15.68,10.85-22.94,5.08-10.76,11.29-21.2,16.16-32.12,36.31-81.56,61-168.74,100.81-248.95,3.19-6.43,12.83-19.34,12.46-25.63-.33-5.6-5.21-16.14-6.11-21.79-.31-1.96.29-8.6-.07-9.05ZM139.44,535.59c12.63-12.58,28.52-21.71,41.25-34.38,43.09-118.17,99.32-231.03,147.42-347.3l-9.52-33.52-8.42,14.63c-52.9,124.11-97.31,251.73-156.95,373.05l-13.78,27.51ZM263.89,152.57c1.59-.27,2.07-1.97,2.67-3.22,3.86-8.05,7.18-17.87,8.03-26.82-1.5-.25-1.46,1.81-1.87,2.93-3.23,8.85-5.13,18.38-8.84,27.1ZM333.6,166.52c-2.79-.51-1.66.41-2.23,1.52-6.68,12.99-11.96,28.57-17.95,42.11-14.85,33.58-30.66,66.8-45.44,100.47-26.48,60.33-52.13,121.05-77.05,182.04,10.68-8.49,23.79-16.58,33.76-25.78,7.13-6.58,6.55-9.49,10.74-17.16,19.61-35.99,37.25-73.81,55.86-110.44,18.98-37.36,36.93-75.24,58.23-111.37l-15.92-61.41ZM373.31,253.43c-4.1-.29-9.42,1.06-12.87-1.62-3.71-2.88-5.12-11.31-8.57-14.48l-106.22,210.28c7.14-3.93,31.32-28.29,37.1-28.98,2.08-.25,4.13,1.57,5.24.06l25.75-55.85,59.56-109.4ZM63.25,242.7c-3.34.08-6.72-.24-10.06.12-1.11.12-5.04.42-4.95,2.01,2.75.48,5.33-.9,8-.94,1.88-.03,7.95,2.72,7.01-1.19ZM89,242.7c-3.3-.53-6.58.56-9.72.71-2.77.13-6.95-2.49-8.51,1.42h10.18s8.05-2.12,8.05-2.12ZM456.46,244.84c-7.42-1.17-17.47.86-25.21,0-.08.7,1.42,2.15,1.61,2.15h26.29c.43-.93-1.77-2-2.68-2.15ZM549.26,245.92c-13.83,2.21-27.62,3.77-41.67,3.38l-13.67,24.41-18.67,26.91,74.02-54.71ZM497.76,250.21c-10.51.26-21.57-.18-31.63,2.15l-52.03,89.04c4.31-2.92,8.21-6.56,12.53-9.45,6.47-4.34,31.93-17.86,35.16-21.7,2-2.38,7.75-15.28,10.43-19.61,7.49-12.1,17.42-24.85,24.27-36.88.68-1.2,1.63-1.94,1.27-3.55ZM61.07,254.56c-4.29-2.31-7.81.12-12.13-.13-1.87-.11-6.87-2.34-7.13-2.08-1.63,1.67.8,1.99,1.35,2.46,4.8,4.1,10.55,7.24,15.27,11.48l2.64-11.73ZM455.92,252.35c-9.11,2.54-18.98-.6-27.99,2.84-36.54,63.5-74.86,126.04-107.21,191.86l22.04,17.72c2.33.4,1.24-.49,1.68-1.48,6.9-15.48,15.93-30.69,24.4-45.36,3.67-6.35,23.79-36.56,23.72-40.44-.1-5.05-4.51-11.69-1.49-16.72,1.49-2.49,6.09-3.29,8.9-7.21,8.87-12.4,14.92-32.86,23.6-46.14l32.36-55.07ZM420.52,254.51c-7.32-.22-14.71.25-22.04.03-4.46-.13-14.44-3.41-17.55.6-30.53,55.47-59.73,111.66-87.96,168.36,4.1,1.99,18.21,17.04,20.85,17.64,1.69.38,2.18-1.4,2.84-2.43,7.85-12.14,15.02-31.92,22.12-45.47,16.63-31.74,35.62-64.29,54.03-95.09,8.82-14.76,17.92-29.5,27.7-43.64ZM69.69,254.48c.93,4.5-5.42,14.08-4.22,17.57.42,1.23,18.99,12.17,20.84,15.68l14.46-31.64c-.82-1.08-.87-1.2-2.19-1.18-9.65.21-19.26.55-28.89-.44ZM132.99,254.5c-.84-.75-19.45,1.4-22.59.45l-16.64,37.1,20.99,12.87c2.84-13,8.75-26.56,14.61-38.5.81-1.65,4.46-5.63,4.44-6-.03-.62-1.69-1.61-1.8-3.2-.07-.97,1.32-2.42.99-2.72ZM173.75,254.5l-27.71.17c-8.34,18.19-19.85,34.7-25.66,54.05l19.59,14.42,33.78-68.64ZM212.38,254.51c-9.9,2.3-18.92-.48-28.8.16l-37.53,72.25c2.52,2.92,23.78,18.97,25.55,17.69l40.78-90.11ZM366.87,483.01c8.43-26.09,22.21-50.26,33.87-75.08-.41-6.92-6-13.02-4.91-20.4l-47.1,81.17.37,1.46c2.36,1.09,16.46,14.08,17.76,12.85ZM393.69,503.4c2.14-17.3,14.76-31.9,21.47-47.82-2.27-12.61-9.31-24-10.75-36.93l-33.15,68.13c6.34,4.79,13.07,11.44,19.76,15.54.85.52.97,1.57,2.67,1.08ZM418.39,466.93c-1.14,9.25-19.68,32.95-19.27,40.29.16,2.93,16.05,13.1,18.72,16.55l13.15-22.12c-4.27-10.05-6.29-22.22-10.4-32.11-.45-1.09-.77-2.49-2.2-2.61ZM446.26,544.17l-12.85-34.33c.58,3.9-9.05,16.33-8.5,18.66l21.35,15.67Z"/>
</svg>