<?xml version="1.0" encoding="UTF-8"?>
<svg id="Layer_1" data-name="Layer 1" xmlns="http://www.w3.org/2000/svg" viewBox="0 0 600 600">
  <defs>
    <style>
      .cls-1 {
        fill: #c1e9f9;
      }
    </style>
  </defs>
  <path class="cls-1" d="M553.4,255.65c-27.85,24.76-61.5,45.73-91.95,66.99-14.02,9.78-28.68,22.39-43.14,30.87-1.31.77-4.65,1.23-4.85,1.95-1.08,3.81,2.7,7.91,3.62,11.53,13.86,54.73,35.48,113.13,45.34,168.16.77,4.28,2.15,7.85-.92,11.49-.74.89-5.75,4.59-6.52,4.53-1.35-.11-14.07-9.53-16.29-11.26-42.07-32.73-82.52-71.37-125.67-102.07-4.04-2.87-11.85-10.87-16.69-10.88-4.03-.02-15.48,11.54-19.54,14.68-40.1,31.06-79.1,63.5-120.35,93.15-7.28,5.23-13.22,11.16-21.86,15.14-5.79,2.67-8.11,3.42-11.31-3-3.79-7.6.03-9.82,2.23-16.51,10.53-32.03,21.72-64.02,33.23-95.82,9.23-25.5,19.71-50.63,28.8-76.19-.56-2.39-34.61-25.11-39.61-28.76-29.28-21.32-59.85-41.29-88.8-63.02-7.52-5.64-17.42-12.63-23.72-18.94-1.49-1.48-4.03-1.65-4.31-4.32-.75-7.16,8.75-4.08,12.58-4.48,52.16-5.39,99.7-7.74,152.1-5.51,3.69.16,26.94,2.92,27.96,1.95.35-.33-1.01-3.76-.55-5.68.97-4.06,6.62-12.37,8.61-17.1,15.39-36.65,28.64-74.83,43.87-111.72,4.5-10.89,14.13-35.41,20.7-44.8,1.19-1.7,3.66-2.57,3.99-3.13.63-1.05-.03-3.24,1.12-4.09,2.44-1.79,12.11.07,13.1,4.12,8.99,28.55,15.57,57.74,23.5,86.57,5.5,19.99,11.34,39.79,17.08,59.78,1.38,4.81,6.95,30.96,9.94,32.76,1.92.75,4.19.6,6.22.5,42.9-2.22,85.14-1.19,128.06-1.53,18.27-.14,38.46-1.19,56.72.91,4.49.52,13.39,2.33,12.83,8.49-.3,3.25-12.49,12.54-15.53,15.25ZM532.12,248.61l-178.77,2.75c-3.29-2.11-4.9-13.53-6.21-17.51-15.6-47.35-27.88-94.28-41.24-141.81-.5-1.79-1.71-5.68-3.39-6.64l-61.77,167.88-6.56-1.83c-.18.91.27,3.52,0,3.8-1.56,1.65-28.29-1.68-32.75-1.9-21.98-1.08-43.75-1.72-65.42-1.95-19.81-.21-39.61-.07-59.35,1,.43,1.6,2.98,1.2,4.71,2.4,11.58,8.01,23.58,20.37,35.22,29.3,25.62,19.64,53.17,36.65,79.54,55.2,3.05,2.15,10.23,7.29,11.43,10.38,2.2,5.68-.61,5.59-.9,8.55-.91,8.99-3.48,16.55-6.63,25.6-13.58,38.92-28.62,77.13-42.48,115.99-1.81,5.09-3,10.38-4.98,15.41,9.13-4.96,16.3-12.41,24.21-18.96,28.72-23.79,55.99-48.47,84.97-71.6,7.98-6.37,19.6-16.74,28.17-21.17,8.25-4.27,10.91-1.86,17.63,2.77,26.82,18.47,52.05,41.61,77.02,62.47,10.24,8.55,21.59,16.35,31.8,25.13,8.58,7.38,16.25,15.72,24.65,23.26l-54.65-164.18,145.75-104.36ZM475.19,241.02h-21.82c.33,1.88,1.42,1.23,2.51,1.4,2.77.43,10.27.69,13.13.56,1.4-.06,5.71-.27,6.18-1.96ZM101.32,287.5c-7.51-8.51-19.15-13.39-28.46-19.92-1.75,1.88,7.74,6.58,8.61,7.98l19.84,11.94Z"/>
</svg>