<?xml version="1.0" encoding="UTF-8"?>
<svg id="Layer_1" data-name="Layer 1" xmlns="http://www.w3.org/2000/svg" viewBox="0 0 238.22 238.22">
  <defs>
    <style>
      .cls-1 {
        fill: #fff;
      }

      .cls-2 {
        fill: #06a9e7;
      }
    </style>
  </defs>
  <rect class="cls-2" x="0" width="238.22" height="238.22" rx="24.22" ry="24.22"/>
  <path class="cls-1" d="M214.45,113.35c-12.15,7.65-26.26,13.49-39.18,19.64-5.95,2.83-12.32,6.7-18.35,9-.55.21-1.85.17-1.97.43-.65,1.38.53,3.18.65,4.61,1.8,21.67,6.32,45.24,6.59,66.77.02,1.67.32,3.12-1.08,4.31-.34.29-2.47,1.38-2.76,1.31-.5-.13-4.74-4.51-5.48-5.31-13.92-15.1-26.84-32.34-41.3-46.74-1.35-1.35-3.82-4.88-5.65-5.19-1.53-.26-6.61,3.41-8.35,4.34-17.21,9.27-34.08,19.13-51.63,27.79-3.1,1.53-5.73,3.4-9.27,4.37-2.37.65-3.3.79-4.11-1.86-.96-3.13.63-3.73,1.89-6.13,6.03-11.51,12.3-22.95,18.69-34.31,5.12-9.11,10.7-17.99,15.76-27.13-.06-.94-11.56-11.73-13.24-13.43-9.78-9.95-20.13-19.48-29.76-29.57-2.5-2.62-5.82-5.9-7.82-8.7-.47-.66-1.43-.88-1.36-1.91.17-2.77,3.58-1,5.06-.91,20.16,1.25,38.38,3.37,58.15,7.53,1.39.29,10.05,2.81,10.5,2.51.15-.1-.15-1.49.15-2.19.63-1.48,3.3-4.28,4.35-5.95,8.17-12.95,15.62-26.62,23.74-39.68,2.4-3.86,7.61-12.56,10.7-15.72.56-.57,1.55-.75,1.72-.94.3-.36.19-1.23.69-1.48,1.04-.53,4.6.79,4.72,2.39,1.61,11.42,2.27,22.93,3.46,34.39.83,7.94,1.79,15.84,2.71,23.8.22,1.92.68,12.21,1.71,13.08.68.41,1.55.49,2.33.58,16.44,1.87,32.43,4.93,48.76,7.52,6.95,1.1,14.69,1.98,21.5,3.94,1.67.48,4.94,1.73,4.34,4.04-.32,1.22-5.54,3.98-6.87,4.81ZM206.81,109.33l-68.11-10.26c-1.12-1.01-1.01-5.45-1.25-7.05-2.93-18.98-4.63-37.59-6.7-56.5-.08-.71-.29-2.27-.87-2.74l-34.09,59.89-2.38-1.11c-.13.34-.12,1.35-.24,1.45-.7.53-10.64-2.43-12.33-2.79-8.28-1.8-16.52-3.42-24.74-4.88-7.51-1.33-15.05-2.53-22.62-3.37.06.64,1.05.64,1.64,1.21,3.89,3.78,7.67,9.23,11.53,13.36,8.49,9.09,17.89,17.29,26.74,26.01,1.02,1.01,3.43,3.42,3.69,4.67.48,2.3-.58,2.08-.88,3.19-.91,3.36-2.37,6.07-4.14,9.31-7.62,13.93-15.76,27.5-23.48,41.39-1.01,1.82-1.8,3.76-2.87,5.54,3.78-1.31,6.98-3.69,10.4-5.67,12.42-7.22,24.35-14.88,36.82-21.83,3.43-1.92,8.51-5.12,12.04-6.26s4.26-.02,6.52,2.17c9.03,8.72,17.15,19.11,25.32,28.61,3.35,3.9,7.17,7.58,10.5,11.56,2.79,3.35,5.18,7,7.9,10.4l-10.38-65.85,61.99-30.44ZM185.66,102.84l-8.29-1.38c0,.74.46.56.86.69,1.02.34,3.86.91,4.96,1.05.54.06,2.19.26,2.47-.35ZM40.64,96.85c-2.32-3.71-6.43-6.3-9.55-9.37-.78.6,2.53,2.99,2.77,3.58l6.79,5.79Z"/>
</svg>