<?xml version="1.0" encoding="UTF-8"?>
<svg id="Layer_1" data-name="Layer 1" xmlns="http://www.w3.org/2000/svg" viewBox="0 0 540.17 507.21">
  <defs>
    <style>
      .cls-1 {
        fill: #fff5cc;
      }
    </style>
  </defs>
  <path class="cls-1" d="M173.76,164.18c13.06-12.63,45.51-32.92,62.96-37.44,84.68-21.95,181.78,35.53,175.48,129.45-3.22,47.99-23.21,76.8-61.65,103.27-77.82,53.58-203.9,14.66-214.11-86.22-3.65-36.06,11.02-83.63,37.32-109.05ZM301.28,136.87c-7.38-.46-14.59-3.56-21.97-2,.17,1.61,4.27,1.86,5.5,1.98,4.27.4,8.7.66,12.99,1,1.1.09,3.72.73,3.47-.98ZM256.12,146.15c-32.86,2.35-65.46,24.72-81.88,52.98-24.08,41.45-17.29,82.86,6.99,122.22,18.82,30.52,72.86,43.69,106.33,37.05,43.37-8.6,95.67-42.18,99.63-90.19,7.03-85.31-49.74-127.89-131.06-122.07ZM332.25,151.84c-3.53-3.88-10.88-5.31-15.98-5.97l15.98,5.97ZM349.01,155.04c-.7-1.14-9.61-5.13-11.76-5.18,1.33,3.47,6.56,3.37,8.59,4.92,1.18.9,1.22,2.87,1.42,3.05,1.42,1.26,2.89-.96,1.76-2.8ZM147.42,228.76c1.61-10.87,7.24-20.45,9.99-30.96-1.48.04-1.89,2.81-2.43,4.04-2.74,6.22-7.29,17.23-8.3,23.68-.17,1.07-1.07,3.47.74,3.23ZM145.43,271.72c-.66-14.04-1.3-27.11,2-40.95-2.16.75-2.51,3.69-2.88,5.6-1.21,6.25-2.52,27.23-.79,32.57.34,1.05.23,3.02,1.68,2.78ZM392.2,239.76v16.48c0,.99-1.32,4.36.99,4.49l.81-9.49-1.8-11.49ZM254.33,374.64l-19.97-2,12.5,2.97,7.47-.97Z"/>
  <path class="cls-1" d="M110.13,94.25c11.17,11.18,26.34,25.48,36.33,37.1,1.12,1.3,9.37,14.48,9.59,15.5.5,2.33-2.46,3.43-.62,5.99-16.23-.38-26.73-13.62-37.95-23.48-14.83-13.04-41.39-35.92-48.48-54.46-3.57-9.35,7.49-12.05,13.52-7.48,7.85,5.95,20.12,19.34,27.6,26.84ZM102.9,96.48c-1.26-1.5-10.82-12.96-12.41-11.56,4.09,4.48,8.21,10.85,12.48,14.99.4.39,3,2.42,3.52,1.48-.11-2.27-2.43-3.53-3.59-4.91Z"/>
  <path class="cls-1" d="M395.58,379.22c-5.86-6.48-8.51-13.08-13.22-20.1,9.54-6.9,20.79,2.12,28.32,8.52,15.94,13.56,43.38,36.19,55.98,51.92,1.03,1.28,6,8.77,6.26,9.77,1.89,7.34-7.51,8.81-12.74,6.7-5.98-2.41-29.17-21.58-35.04-26.9-9.26-8.39-21.05-20.52-29.55-29.92Z"/>
  <path class="cls-1" d="M147.16,351.88c5.5-1.16,10.15.95,9.09,7.05l-26.82,33.16c-13.49,14.09-26.96,31.55-42.46,43.45-11.57,8.88-19.2.58-11.3-11.3,8.67-13.04,25.99-32.47,37.27-43.65,5.46-5.41,28.66-27.55,34.22-28.72ZM105.48,407.61c-2.38.46-5.17,2.9-7.01,4.47-2.4,2.05-5.95,5.59-7.98,8-.94,1.12-2.42,1.63-1.99,3.5l16.97-15.97Z"/>
  <path class="cls-1" d="M474.84,62.11c6.81-1.44,8.15,5.72,7.05,11.1-19.7,26.97-42.68,51.01-66.76,74.09-21.96,6.43-14.05-6.32-5.93-16.92,12.65-16.51,31.23-36.19,45.91-51,2.77-2.8,17.45-16.8,19.74-17.28Z"/>
  <path class="cls-1" d="M26.35,238.06c23.3-.56,47.48,4.21,70.66,6.7,5.33.57,10.4-1.88,15.53,2.43,10.8,9.09-.08,12.89-9.59,12.61-13.32-.4-26.78-2.18-40.08-2.89-18.42-.98-39.47.17-57.57-4.39-5.19-1.3-7.25-6.72-3.07-10.62,4.39-4.09,17.63-3.69,24.12-3.85Z"/>
  <path class="cls-1" d="M487.91,237.05c9.59-.11,39.67.05,47.15,3.21,5.85,2.48,7.12,7.8,1.5,11.49-6.88,4.51-32.8,3.67-42,3.96-17,.52-39.01,1.77-55.81-.08-4.88-.54-12.64-7.05-9.15-11.94.89-1.25,12.81-3.8,15.05-3.93,14.03-.81,28.82-2.54,43.26-2.71ZM514.08,244.76h-17.98l13.45,2.05,4.53-2.05Z"/>
  <path class="cls-1" d="M267.04.14c3.53-.96,8.29,3.11,9.06,6.55,1.79,8.02,2.71,24.09,3.19,32.77.64,11.6.11,23.55-.03,34.92-.07,5.86,2.5,29.76-5.44,30.11-9.64.42-9.81-19.7-10.76-25.82-3.41-22.04-4.01-34.82-1.75-57.21.51-5.01-.95-19.51,5.73-21.32ZM271.31,38.96v15.48c0,.14,1.26,3.66,2.02,1.98l-2.02-17.47Z"/>
  <path class="cls-1" d="M269.89,404.67c5.05.83,8.11,3.22,9.75,8.09,2.67,15.44,1.44,30.83,1.62,46.33.15,13.07,1.76,25.4-.04,38.83-1.24,9.25-9.14,13.35-13.83,4l-3.1-39.84c1.39-13.38-.14-26.56.42-39.83.1-2.48,3.49-17.23,5.19-17.59Z"/>
</svg>