<?xml version="1.0" encoding="UTF-8"?>
<svg id="Layer_1" data-name="Layer 1" xmlns="http://www.w3.org/2000/svg" viewBox="0 0 785 400">
  <defs>
    <style>
      .cls-1 {
        fill: #f3fbe7;
      }
    </style>
  </defs>
  <path class="cls-1" d="M172.19,165.86c26.19-3.13,53.97,7.34,74.91,22.46,6.36,4.59,11.54,10.5,17.94,15.03,61.26,43.33,110.85-19.61,169.17-32.32,52.26-11.39,70.33,22.2,112.98,38.98,50.71,19.95,97.13.61,138.82-29.02,4.14-2.94,20.18-19.76,23.61-9.47,1.39,4.16-.73,8.57-3.11,11.98-6.2,8.87-36.46,28.49-46.87,34.06-45.75,24.49-85.04,29.51-132.32,5.34-29.2-14.93-47.44-38.48-84.3-33.08-60.62,8.87-97.34,67.37-166.64,42.18-28.32-10.29-44.34-34.29-74.45-43.46-41.97-12.78-90.07,14.93-122.69,39.22-19.55,2.86-6.09-13.48,1.34-19.63,22.86-18.94,61.94-38.71,91.63-42.27ZM192.9,174.57c-5.26-.5-11.15.36-16.49,0l25.21,3.27,13.26,4.73c1.03-1.46-2.39-2.43-3.22-2.78-4.93-2.04-13.57-4.73-18.76-5.23ZM502.19,196.54c-3.77-3.38-10.39-8.23-14.93-10.54-10.48-5.34-25.51-8.51-37.19-7.86-6.3.35-13.45,2.94-19.83,3.44-.25,1.71,2.37,1.06,3.48.98,4.53-.35,10.68-2.06,15.01-2.08,4.76-.02,14.53-.04,18.75.31,1.73.14,17.68,5.93,19.96,7.04,4.64,2.24,9.44,7.29,14.75,8.72ZM229.37,189.55c-2.71-4.01-8.32-6.34-12.99-6.97l12.99,6.97ZM589.14,230.51c-2.06-3.55-7.86-1.58-11.48-2-13.83-1.6-25.54-6.35-38.49-10.97,14.08,10.81,32.83,11.52,49.97,12.97Z"/>
  <path class="cls-1" d="M169.13,54.92c56.54-5.21,71.18,39.42,115.67,54.74,38.31,13.19,67.47-17.48,97.16-34.8,35.54-20.73,62.78-25.56,101.92-9.37,34.41,14.24,52.38,51.97,95.76,52.22,43.24.25,89.81-36.55,123.25-60.75,14.62-3.11,10.41,9.34,3.68,16.71-10.15,11.12-27.77,20.42-40.37,28.58-44.57,28.83-77.69,48.31-131.39,24.22-42.46-19.05-64.7-67.38-121.55-47.3-51.17,18.08-81.49,71.94-143.6,44.63-39.58-17.41-51.02-53.35-102.74-50.12-28.21,1.76-52.59,14.61-74.78,31.14-4.05,3.02-12.49,11.8-15.69,13.28-8.83,4.11-9.97-5.81-5.42-12.4,14.6-21.12,72.6-48.43,98.09-50.78ZM218,73.07c-4.68-2.56-12.31-5.33-17.49-7.02-1.72-.56-3.2-.96-1.13,1.13,15.76,5.19,29.53,14.71,41.97,25.46,1.07-1.12-3.61-5.21-4.51-5.97-5.21-4.41-12.93-10.37-18.84-13.61ZM496.19,85.66c.47-2.14-1.05-2.28-2.31-3.18-3.62-2.58-8.41-5.95-12.66-6.81-.61,2.88.97,1.58,2.16,2.29,4.28,2.55,8.55,5.13,12.81,7.7ZM355.29,103.65c-.11-.11-2.38-.42-2.98-1.02.02,1.21.02,2.64-1,3.5-.53.45-10.14,3.32-8,5.5.43.43,9.98-5.12,10.72-5.7.67-.53,2.74-.74,1.26-2.28ZM342.3,110.64c-2.46-.03-3.85,2.31-5.99,3.31-.69.32-1.91-.24-2.93.27-1.72.86-5.14,2.66-6.07,4.39,5.1-1.96,12.15-2.98,14.99-7.97ZM618.12,118.63l-11.98,3.97c4.28,1.18,9.45-.19,11.98-3.97ZM600.13,123.63c-7.28,3.24-14.92,1.65-22.32,2.06-.91.05-5.6.59-5.65,1.92,8.55-1.4,21.96,2.7,27.98-3.98Z"/>
  <path class="cls-1" d="M176.31,273.36c3.59-2.65,12.27-.63,17.97.76,1.03.25,6.11,1.9,7.5,2.37,39.14,13.18,56.09,47.33,102.01,50.97,53.89,4.27,100.14-57.79,157.92-53.97,35.57,2.35,52.43,18.46,81.15,34.76,46.52,26.4,100.25,12.32,143.13-14.37,4.78-2.98,19.75-15.18,23.07-15.98,7.8-1.89,9.38,5.67,5.42,11.5-4.92,7.25-34.54,26.66-43.38,31.56-21,11.64-62.54,24.75-86.34,22.33-57.07-5.8-85.4-67.41-151.55-48.35-39.77,11.46-78.99,50.59-122.39,50.57-41.69-.02-62.47-20.17-95.13-39.86-43.3-26.11-74.13-10.86-112.15,14.37-5.8,3.85-22.42,18.14-27.58,18.47-10.57.69-5.57-10.48-1.46-15.53,15.87-19.48,73.27-51.64,98.47-51.03,1.38.03,2.87,1.8,3.35,1.44ZM603.13,332.42h-21.49c-1.59,0-11.34-2.61-13.71-3.28-1.72-.49-8.43-4.04-8.77-3.71-1.53,1.48,4.24,4.19,5.01,4.53,2.13.94,14.98,4.46,16.46,4.46h19.99c.62,0,3.38-1.6,2.5-2Z"/>
</svg>