<?xml version="1.0" encoding="UTF-8"?>
<svg id="Layer_1" data-name="Layer 1" xmlns="http://www.w3.org/2000/svg" viewBox="0 0 238.22 238.22">
  <defs>
    <style>
      .cls-1 {
        fill: #fff;
      }

      .cls-2 {
        fill: #ffcf00;
      }
    </style>
  </defs>
  <rect class="cls-2" x="0" y="0" width="238.22" height="238.22" rx="24.22" ry="24.22"/>
  <g>
    <path class="cls-1" d="M144.5,166.82c-1.06,1.22,10.05,17.18,10.96,20.11,13.23.64,26.66-3.26,30.63,13.1,1.94,8.01,2.46,18.59-7.95,19.56-21.64,2.03-49.22-.2-71.61-.06-12.27.08-24.51.2-36.81,0-5.02-.09-10.24,2.59-15.22-1.39-6.22-4.98-4.8-21,.38-26.38,6.57-6.82,17.68-4.35,26.04-5.09l11.49-19.42c-12.75-6.75-24.94-13.8-33.91-25.37-30.86-39.84-16.08-100.55,31.6-118.68,53.16-20.2,107.83,18.56,105.75,75.37-1.1,30.12-22.88,58.91-51.35,68.26ZM141.6,26.65c-3.77-.34-6.92-2.79-10.83-2.17l8.5,2.7,2.34-.53ZM106.91,25.2c-2.4-.02-4.93.45-7.23,1.07-.93.25-3.47.69-3.6,1.81,2.88-.52,5.83-1.09,8.66-1.81.82-.21,2.35.04,2.17-1.06ZM162.32,45.68c-29.29-27.94-79.23-19.22-99.14,15.63-31.42,54.97,23.63,116.63,81.1,92.63,43.24-18.05,51.34-76.51,18.05-108.26ZM185.69,78.66l-.32-3.64-2.56-5.74c.05,2.4.88,5.11,1.66,7.37.26.76.16,2.18,1.22,2.02ZM142.33,186.32c-2.3-3.16-5.86-12.95-8.3-15.17-1.6-1.45-9.55.48-12.32.53-5.97.11-12.61-1.01-18.64-1.15-.84.28-8.44,14.14-8.44,15.43,15.8,2.56,31.77-.5,47.71.36ZM175.47,209.34c2.06-1.3-.2-7.81-1.44-9.55-1.61-2.26-3.4-2.42-6.01-2.66-16.64-1.55-36.65,0-53.48.06-13.92.04-33.13-1.6-46.3-.05-4.13.49-6.77,4.3-6.91,8.31-.09,2.74-.29,3.68,2.55,4.02,14.57,1.77,34.22-.77,49.15-.79,9.46-.01,18.78.7,28.19.79,4.43.04,32.81.78,34.26-.13Z"/>
    <path class="cls-1" d="M142.63,119.42c-19.54,18.43-53.22,9.63-57.94-17.46-4.32-24.78,14.98-42.07,39.2-39.91,27.97,2.5,38.97,38.3,18.74,57.37ZM115.41,73.07c-25.99,3.44-25.36,43.36,1.49,44.44,33.45,1.35,29.8-48.58-1.49-44.44Z"/>
  </g>
</svg>