<?xml version="1.0" encoding="UTF-8"?>
<svg id="Layer_1" data-name="Layer 1" xmlns="http://www.w3.org/2000/svg" viewBox="0 0 337.28 337.28">
  <defs>
    <style>
      .cls-1 {
        fill: #ffcf00;
      }

      .cls-2 {
        fill: #84d40f;
      }

      .cls-3 {
        fill: #06a9e7;
      }

      .cls-4 {
        fill: #ff2f8e;
      }
    </style>
  </defs>
  <path class="cls-4" d="M105.51,154.56c-13.42.58-26.41-6.31-38.64-11.13-14.98-6.32-29.82-12.21-44.94-18.27-3.39-1.36-6.83-3.12-9.12-5.93-5.48-6.35-2.65-16.94,6.9-16.13,5.89-1.08,30.81,13.02,30.18,2.37-.75-2.69-3.65-4.73-6-6.26-9.78-6.25-20.76-11.04-30.18-18-8.24-5.84-5.64-18.27,5.12-17.84,12.57,2.11,22.57,11.84,34.18,16.43,3.83,1.91,10.42,1.3,7.97-4.41-.82-1.96-2.49-3.83-4.07-5.4-8.62-8.25-17.96-15.96-26.75-24.24-3.2-3.2-6.76-7.13-7.22-11.69-.34-10.13,11.54-12.81,18.68-7.29,10.48,7.45,19.36,16.96,29.19,25.1,2.3,1.93,4.92,4.08,7.79,4.86,6.52,1.71,6.15-5.64,3.62-9.49-5.1-8.72-11.13-16.71-16.64-25.34-2.67-4.32-5.69-9.53-4.37-14.7,2.02-7.31,12.2-9.72,17.35-4.08,12.01,14.22,21.11,30.94,31.98,46.01,2.29,3.22,5.19,6.9,9.15,7.73,9.59,1.2,7.56-10.69,9.28-17.21,1.25-7.51,11.73-18.4,18.84-13.99,1.85,1.29,2.97,3.76,3.62,6.58,1.62,9,1.69,18.34,2.55,27.46.77,19.94,4.39,41.57-.88,60.9-5.99,20.29-26.84,32.39-47.13,33.94l-.46.03Z"/>
  <path class="cls-3" d="M154.56,231.76c.58,13.42-6.31,26.41-11.13,38.64-6.32,14.98-12.22,29.82-18.27,44.94-1.36,3.39-3.12,6.83-5.93,9.12-6.35,5.48-16.94,2.65-16.13-6.9-1.08-5.89,13.02-30.81,2.37-30.18-2.69.75-4.73,3.65-6.26,6-6.25,9.78-11.04,20.76-18,30.18-5.84,8.24-18.27,5.64-17.84-5.12,2.11-12.57,11.84-22.57,16.43-34.18,1.91-3.83,1.3-10.42-4.41-7.97-1.96.82-3.83,2.49-5.4,4.07-8.25,8.62-15.96,17.96-24.24,26.75-3.2,3.2-7.13,6.76-11.69,7.22-10.13.34-12.81-11.54-7.29-18.68,7.45-10.48,16.96-19.36,25.1-29.19,1.93-2.3,4.08-4.92,4.86-7.79,1.71-6.52-5.64-6.14-9.49-3.62-8.72,5.1-16.71,11.13-25.34,16.64-4.32,2.67-9.53,5.69-14.7,4.37-7.31-2.02-9.72-12.2-4.08-17.35,14.22-12.01,30.94-21.11,46.01-31.98,3.22-2.29,6.9-5.19,7.73-9.15,1.2-9.59-10.69-7.56-17.21-9.28-7.51-1.25-18.4-11.73-13.99-18.84,1.29-1.85,3.76-2.97,6.58-3.62,9-1.62,18.34-1.69,27.46-2.55,19.94-.77,41.57-4.39,60.9.88,20.29,5.99,32.39,26.84,33.94,47.13l.03.46Z"/>
  <path class="cls-2" d="M231.76,182.72c13.42-.58,26.41,6.31,38.64,11.13,14.98,6.32,29.82,12.21,44.94,18.27,3.39,1.36,6.83,3.12,9.12,5.93,5.48,6.35,2.65,16.94-6.9,16.13-5.89,1.08-30.81-13.02-30.18-2.37.75,2.69,3.65,4.73,6,6.26,9.78,6.25,20.76,11.04,30.18,18,8.24,5.84,5.64,18.27-5.12,17.84-12.57-2.11-22.57-11.84-34.18-16.43-3.83-1.91-10.42-1.3-7.97,4.41.82,1.96,2.49,3.83,4.07,5.4,8.62,8.25,17.96,15.96,26.75,24.24,3.2,3.2,6.76,7.13,7.22,11.69.34,10.13-11.54,12.81-18.68,7.29-10.48-7.45-19.36-16.96-29.19-25.1-2.3-1.93-4.92-4.08-7.79-4.86-6.52-1.71-6.15,5.64-3.62,9.49,5.1,8.72,11.13,16.71,16.64,25.34,2.67,4.32,5.69,9.53,4.37,14.7-2.02,7.31-12.2,9.72-17.35,4.08-12.01-14.22-21.11-30.94-31.98-46.01-2.29-3.22-5.19-6.9-9.15-7.73-9.59-1.2-7.56,10.69-9.28,17.21-1.25,7.51-11.73,18.4-18.84,13.99-1.85-1.29-2.97-3.76-3.62-6.58-1.62-9-1.69-18.34-2.55-27.46-.77-19.94-4.39-41.57.88-60.9,5.99-20.29,26.84-32.39,47.13-33.94l.46-.03Z"/>
  <path class="cls-1" d="M182.72,105.51c-.58-13.42,6.31-26.41,11.13-38.64,6.32-14.98,12.21-29.82,18.27-44.94,1.36-3.39,3.12-6.83,5.93-9.12,6.35-5.48,16.94-2.65,16.13,6.9,1.08,5.89-13.02,30.81-2.37,30.18,2.69-.75,4.73-3.65,6.26-6,6.25-9.78,11.04-20.76,18-30.18,5.84-8.24,18.27-5.64,17.84,5.12-2.11,12.57-11.84,22.57-16.43,34.18-1.91,3.83-1.3,10.42,4.41,7.97,1.96-.82,3.83-2.49,5.4-4.07,8.25-8.62,15.96-17.96,24.24-26.75,3.2-3.2,7.13-6.76,11.69-7.22,10.13-.34,12.81,11.54,7.29,18.68-7.45,10.48-16.96,19.36-25.1,29.19-1.93,2.3-4.09,4.92-4.86,7.79-1.71,6.52,5.64,6.14,9.49,3.62,8.72-5.1,16.71-11.13,25.34-16.64,4.32-2.67,9.53-5.69,14.7-4.37,7.31,2.02,9.72,12.2,4.08,17.35-14.22,12.01-30.94,21.11-46.01,31.98-3.22,2.29-6.9,5.19-7.73,9.15-1.2,9.59,10.69,7.56,17.21,9.28,7.51,1.25,18.4,11.73,13.99,18.84-1.29,1.85-3.76,2.97-6.58,3.62-9,1.62-18.34,1.69-27.46,2.55-19.94.77-41.57,4.39-60.9-.88-20.29-5.99-32.39-26.84-33.94-47.13l-.03-.46Z"/>
</svg>